<svg xmlns="http://www.w3.org/2000/svg" width="151.554" height="119" viewBox="0 0 151.554 119">
  <g id="Group_73" data-name="Group 73" transform="translate(0 -0.069)">
    <ellipse id="Ellipse_20" data-name="Ellipse 20" cx="75.777" cy="24.175" rx="75.777" ry="24.175" transform="translate(0 70.718)" fill="#ffe1e5"/>
    <g id="Group_35" data-name="Group 35" transform="translate(116.553 24.717)">
      <g id="Group_33" data-name="Group 33" transform="translate(6.818 37.875)">
        <path id="Path_205" data-name="Path 205" d="M434.585,217.474a38.539,38.539,0,0,1,5.166-.29,33,33,0,0,0,9.171-1.683c-.639,2.264-1.277,4.5-1.886,6.762a28.051,28.051,0,0,1-1.8,5.108,14.859,14.859,0,0,1-3.076,4.121,11.811,11.811,0,0,1-9.868,3.221,8.725,8.725,0,0,1-6.878-5.8C423.673,223.075,429.332,218.373,434.585,217.474Z" transform="translate(-425.093 -215.5)" fill="#b4dfd5"/>
        <path id="Path_206" data-name="Path 206" d="M454.616,221.935c-2.38,1.074-4.789,2.148-7.081,3.338a11.3,11.3,0,0,1,1.393-2.264c.2-.261-.174-.638-.406-.348a14.418,14.418,0,0,0-1.741,2.96v.058c-1.045.551-2.061,1.132-3.047,1.77a30.126,30.126,0,0,0-4.179,3.047,54.577,54.577,0,0,1,1.915-5.95c.116-.319-.348-.58-.464-.261q-1.262,3.4-2.177,6.878a12.464,12.464,0,0,0-2.873,4.237c-.116.319.348.58.464.261a10.883,10.883,0,0,1,1.045-2h.029a58.173,58.173,0,0,1,9,.319c.348.058.464-.464.116-.522a58.88,58.88,0,0,0-8.765-.319,22.451,22.451,0,0,1,6.414-5.369h0a52.782,52.782,0,0,1,8.3.668c.348.087.435-.435.116-.522a44.347,44.347,0,0,0-7.6-.668,92.162,92.162,0,0,1,9.751-4.818C455.08,222.284,454.935,221.79,454.616,221.935Z" transform="translate(-432.789 -220.049)" fill="#42b093"/>
      </g>
      <g id="Group_34" data-name="Group 34" transform="translate(1.211 17.267)">
        <path id="Path_207" data-name="Path 207" d="M407.9,158.077a12.765,12.765,0,0,1,7.4-5.195c2-.493,4.15-.551,5.979-1.538,1.857-1.045,3.047-2.931,4.586-4.411a8.15,8.15,0,0,1,5.224-2.438,5.1,5.1,0,0,1,4.818,2.786c1.016,2.351-.435,5.166-2.612,6.5-1.1.668-2.467,1.161-3.047,2.293a5.109,5.109,0,0,0-.406,1.974,33.121,33.121,0,0,1-.813,6.327,13.892,13.892,0,0,1-4.44,7.168,11.184,11.184,0,0,1-7.923,2.641,15.812,15.812,0,0,1-4.3-1.074C405.635,170.672,403.894,164.026,407.9,158.077Z" transform="translate(-405.772 -144.492)" fill="#42b093"/>
        <path id="Path_208" data-name="Path 208" d="M444.885,153.849a31.9,31.9,0,0,1-3.715.58c.813-.668,1.6-1.335,2.438-1.974.261-.2-.087-.551-.348-.377-.929.7-1.8,1.422-2.7,2.177a13.564,13.564,0,0,1,.261-2.148c.058-.319-.406-.464-.464-.145a14.3,14.3,0,0,0-.319,2.728c-1.741,1.509-3.425,3.076-5.05,4.731.087-.987.145-1.944.145-2.931,0-.319-.493-.348-.493-.029a35.092,35.092,0,0,1-.2,3.512c-2.757,2.815-5.34,5.775-7.865,8.794.29-3.076.638-6.124,1.045-9.171a.247.247,0,0,0-.493-.029c-.435,3.279-.813,6.559-1.132,9.868h0c-1.161,1.393-2.322,2.815-3.454,4.208a1.459,1.459,0,0,1-.261-.638q-.261-1.175-.435-2.351a48.592,48.592,0,0,1-.551-5.4c-.029-.319-.522-.348-.493-.029a49.69,49.69,0,0,0,1.248,9.026c-.261.348-.551.668-.813,1.016-.2.261.232.522.406.261.29-.348.58-.726.871-1.074,3.483-.261,6.82-1.625,10.332-1.6.319,0,.348-.493.029-.493-2.96-.029-5.746.958-8.649,1.422a4.491,4.491,0,0,1-1.277.145c1.161-1.422,2.322-2.844,3.512-4.266l10.506-2.293c.319-.058.2-.551-.116-.493-3.279.726-6.588,1.451-9.868,2.148,2.5-2.96,5.05-5.892,7.778-8.649a29.875,29.875,0,0,0,4.556-.406c.319-.058.2-.551-.116-.493a25.6,25.6,0,0,1-3.947.377c1.683-1.683,3.425-3.338,5.224-4.876a39.091,39.091,0,0,0,4.5-.668A.237.237,0,1,0,444.885,153.849Z" transform="translate(-416.436 -149.668)" fill="#2e9376"/>
      </g>
      <path id="Path_209" data-name="Path 209" d="M430.3,98.116c-3.976.174-8.1,1.045-10.941,3.744,1.219-2.409,2.409-4.847,3.57-7.285a2.41,2.41,0,0,0,1.277.174c2-.261,2.67-2.032,2.786-3.8a23.261,23.261,0,0,0,0-2.844c-.029-.668.435-3.947-1.132-2.9a14.763,14.763,0,0,0-2,1.8,7.142,7.142,0,0,0-2.119,3.309,4.745,4.745,0,0,0,.145,2.96,2.429,2.429,0,0,0,.638,1.045l.029.029c-1.335,2.844-2.757,5.659-4.179,8.474v-.058a10.538,10.538,0,0,0,.087-3.57,7.521,7.521,0,0,0-3.192-4.934.215.215,0,0,0-.348.116c0,.058-1.248,5.021-.406,7.256a6.239,6.239,0,0,0,1.48,2.293c.319.319.871.813,1.364.784-1.509,2.931-2.989,5.862-4.469,8.794a9.1,9.1,0,0,0-.029-1.567,6.884,6.884,0,0,0-2.264-4.5,4.452,4.452,0,0,0-1.8-1.016,7.142,7.142,0,0,0-.726,4.179,5.448,5.448,0,0,0,.58,2.264,3.677,3.677,0,0,0,1.6,1.451,3.237,3.237,0,0,0,2,.435c-1.77,3.6-3.454,7.227-4.992,10.912a4.3,4.3,0,0,0-1.567-2.351,9.171,9.171,0,0,0-2.5-1.393,3.438,3.438,0,0,1-1.6-1.016,9.207,9.207,0,0,1,.348,2.177,6.312,6.312,0,0,0,1.074,2.757,3.7,3.7,0,0,0,1.451,1.306,2.825,2.825,0,0,0,2.09.2c-.551,1.364-1.074,2.728-1.538,4.121a87.187,87.187,0,0,0-3.28,11.841.222.222,0,0,0,.435.087,90.312,90.312,0,0,1,5.34-17.21,2.124,2.124,0,0,0,1.277,1.857,3.63,3.63,0,0,0,1.248.348,5.38,5.38,0,0,0,3.744-1.074,5.32,5.32,0,0,0,1.974-3.338.359.359,0,0,0-.116-.406.339.339,0,0,0-.29,0,8.856,8.856,0,0,1-2.9.029,8.118,8.118,0,0,0-2.9.087,2.931,2.931,0,0,0-1.306.755c1.364-3.192,2.844-6.356,4.382-9.49a2.426,2.426,0,0,0,1.19.9,7.532,7.532,0,0,0,6.037.087,7.61,7.61,0,0,0,4.179-4.353,10.224,10.224,0,0,0-6.24-.435A10.427,10.427,0,0,0,414.021,113c-.174.145-.464.348-.726.551,1.538-3.076,3.105-6.095,4.644-9.142,1.335,2.728,5.543,2.322,7.981,1.306,2.96-1.248,5.137-4.15,4.5-7.488C430.506,98.175,430.39,98.116,430.3,98.116Z" transform="translate(-401.6 -84.998)" fill="#fdd17a"/>
    </g>
    <g id="Group_38" data-name="Group 38" transform="translate(0.464 28.683)">
      <g id="Group_36" data-name="Group 36" transform="translate(0 27.35)">
        <path id="Path_210" data-name="Path 210" d="M15.995,194.525a34.144,34.144,0,0,0-5.166-.145A32.127,32.127,0,0,1,1.6,192.9c.7,2.235,1.364,4.469,2.061,6.7a28.133,28.133,0,0,0,1.915,5.079,14.447,14.447,0,0,0,3.192,4.063,11.8,11.8,0,0,0,9.955,2.989,8.715,8.715,0,0,0,6.733-5.95C27.023,199.865,21.277,195.309,15.995,194.525Z" transform="translate(-1.6 -192.9)" fill="#61bda6"/>
        <path id="Path_211" data-name="Path 211" d="M7.873,199.157c2.409,1.016,4.818,2.032,7.168,3.163a12.269,12.269,0,0,0-1.451-2.235c-.2-.261.174-.638.377-.377a12.629,12.629,0,0,1,1.8,2.931v.058c1.045.522,2.09,1.074,3.076,1.683a32.065,32.065,0,0,1,4.266,2.96,52.428,52.428,0,0,0-2.061-5.892c-.116-.319.348-.58.464-.261a61.3,61.3,0,0,1,2.322,6.849,12.441,12.441,0,0,1,2.989,4.15c.145.319-.348.58-.464.261a10.1,10.1,0,0,0-1.1-1.974h-.029a62.134,62.134,0,0,0-9,.522c-.348.058-.464-.464-.116-.522a58.752,58.752,0,0,1,8.765-.522,22.849,22.849,0,0,0-6.53-5.224h0a49.712,49.712,0,0,0-8.3.871.268.268,0,0,1-.116-.522,44.177,44.177,0,0,1,7.575-.842A94.594,94.594,0,0,0,7.67,199.65C7.409,199.534,7.554,199.041,7.873,199.157Z" transform="translate(-5.813 -197.329)" fill="#40967d"/>
      </g>
      <g id="Group_37" data-name="Group 37" transform="translate(4.678 8.278)">
        <path id="Path_212" data-name="Path 212" d="M52.077,143.761a15.61,15.61,0,0,0-8.968-6.356c-2.438-.609-5.05-.668-7.227-1.886-2.264-1.248-3.686-3.57-5.572-5.369a9.738,9.738,0,0,0-6.356-2.96,6.16,6.16,0,0,0-5.833,3.367c-1.219,2.844.493,6.269,3.134,7.894,1.335.813,2.989,1.393,3.686,2.815a5.534,5.534,0,0,1,.464,2.38,37.656,37.656,0,0,0,.958,7.662,16.886,16.886,0,0,0,5.369,8.736,13.624,13.624,0,0,0,9.635,3.25,20.23,20.23,0,0,0,5.224-1.277C54.747,159.056,56.894,150.988,52.077,143.761Z" transform="translate(-17.72 -127.186)" fill="#b4dfd5"/>
        <path id="Path_213" data-name="Path 213" d="M25.106,138.72c1.48.319,2.989.551,4.5.726-.958-.813-1.944-1.625-2.96-2.38-.319-.232.116-.668.406-.435,1.1.842,2.206,1.741,3.25,2.641a16.051,16.051,0,0,0-.319-2.612c-.087-.377.493-.551.58-.174a18.056,18.056,0,0,1,.377,3.309c2.119,1.828,4.15,3.744,6.124,5.746q-.174-1.785-.174-3.57c0-.377.609-.406.609-.029a35.07,35.07,0,0,0,.261,4.266c3.338,3.425,6.472,7.023,9.519,10.68-.348-3.715-.755-7.43-1.248-11.145-.058-.377.551-.406.609-.029.522,3.976.987,7.981,1.335,11.957h0c1.422,1.712,2.786,3.425,4.179,5.137a1.991,1.991,0,0,0,.319-.784c.2-.958.377-1.886.522-2.844a62.033,62.033,0,0,0,.7-6.559c.029-.377.609-.406.609-.029a63.27,63.27,0,0,1-1.538,10.941c.319.406.668.842.987,1.248.232.29-.261.638-.522.319-.348-.435-.7-.871-1.074-1.306-4.237-.319-8.271-1.974-12.538-1.974-.377,0-.406-.609-.029-.609,3.6,0,6.965,1.161,10.477,1.741a5.487,5.487,0,0,0,1.538.174c-1.393-1.741-2.815-3.483-4.237-5.195l-12.741-2.815a.3.3,0,0,1,.145-.58c3.976.871,7.981,1.77,11.957,2.641-3.018-3.628-6.124-7.168-9.4-10.535a38.938,38.938,0,0,1-5.514-.493c-.377-.058-.232-.638.145-.58a33.029,33.029,0,0,0,4.789.464c-2.032-2.061-4.15-4.034-6.327-5.95a49.467,49.467,0,0,1-5.456-.813C24.583,139.213,24.728,138.633,25.106,138.72Z" transform="translate(-22.703 -133.637)" fill="#61bda6"/>
      </g>
      <path id="Path_214" data-name="Path 214" d="M51.193,109.819c3.454.464,6.994,1.538,9.258,4.121-.871-2.206-1.741-4.411-2.554-6.646a2.133,2.133,0,0,1-1.132.058c-1.712-.377-2.148-1.974-2.148-3.541a17.322,17.322,0,0,1,.232-2.467c.058-.58-.087-3.483,1.219-2.467a15.391,15.391,0,0,1,1.625,1.741,6.336,6.336,0,0,1,1.6,3.047,4.271,4.271,0,0,1-.348,2.583,2.337,2.337,0,0,1-.638.871l-.029.029c.958,2.583,1.974,5.166,2.989,7.72v-.029a9.477,9.477,0,0,1,.2-3.134,6.632,6.632,0,0,1,3.163-4.063c.116-.058.29-.029.29.116,0,.058.7,4.469-.232,6.385a5.226,5.226,0,0,1-1.48,1.886c-.319.232-.813.638-1.248.58,1.074,2.67,2.177,5.34,3.221,8.01a6.006,6.006,0,0,1,.174-1.364,6.112,6.112,0,0,1,2.322-3.744,4.3,4.3,0,0,1,1.654-.755,6.221,6.221,0,0,1,.29,3.715,4.611,4.611,0,0,1-.7,1.944,3.263,3.263,0,0,1-1.509,1.132,2.947,2.947,0,0,1-1.8.232c1.277,3.28,2.467,6.559,3.512,9.9a3.831,3.831,0,0,1,1.538-1.915,8.132,8.132,0,0,1,2.293-1.016,3.167,3.167,0,0,0,1.451-.755,8.157,8.157,0,0,0-.464,1.886,5.486,5.486,0,0,1-1.161,2.322,3.446,3.446,0,0,1-1.364,1.045,2.491,2.491,0,0,1-1.828.029c.377,1.219.726,2.467,1.045,3.715a73.114,73.114,0,0,1,1.944,10.593c.029.232-.348.29-.377.058a79.56,79.56,0,0,0-3.338-15.44,1.919,1.919,0,0,1-1.248,1.538,2.907,2.907,0,0,1-1.132.2,4.687,4.687,0,0,1-3.163-1.219,4.764,4.764,0,0,1-1.48-3.076c0-.116,0-.29.116-.348a.41.41,0,0,1,.261.029,8.222,8.222,0,0,0,2.525.261,7.438,7.438,0,0,1,2.525.29,2.662,2.662,0,0,1,1.074.755c-.929-2.9-2-5.775-3.105-8.62a2.322,2.322,0,0,1-1.1.7,6.613,6.613,0,0,1-8.591-4.5,8.858,8.858,0,0,1,5.485.116,8.955,8.955,0,0,1,3.134,1.915c.145.145.377.319.58.551-1.1-2.786-2.235-5.572-3.338-8.329-1.393,2.293-5.021,1.6-7.081.522-2.5-1.335-4.15-4.034-3.338-6.878C51.019,109.848,51.106,109.819,51.193,109.819Z" transform="translate(-36.508 -98.663)" fill="#ec7772"/>
    </g>
    <g id="Group_40" data-name="Group 40" transform="translate(67.12 0.069)">
      <g id="Group_39" data-name="Group 39" transform="translate(7.608 11.937)">
        <path id="Path_215" data-name="Path 215" d="M267.473,42.39a38.357,38.357,0,0,1,5.166,0A32.186,32.186,0,0,0,281.9,41.2c-.755,2.206-1.509,4.44-2.264,6.646a28.085,28.085,0,0,1-2.061,5.021,14.487,14.487,0,0,1-3.309,3.976,11.844,11.844,0,0,1-10.013,2.7,8.686,8.686,0,0,1-6.559-6.153C256.3,47.411,262.191,43.028,267.473,42.39Z" transform="translate(-257.486 -41.2)" fill="#61bda6"/>
        <path id="Path_216" data-name="Path 216" d="M286.919,47.238c-2.438.929-4.876,1.886-7.256,2.96a12.65,12.65,0,0,1,1.509-2.177c.232-.261-.145-.638-.377-.377a12.6,12.6,0,0,0-1.886,2.873c0,.029,0,.029-.029.058-1.074.493-2.119,1.016-3.134,1.6a29.833,29.833,0,0,0-4.324,2.815,58.768,58.768,0,0,1,2.206-5.833c.145-.319-.319-.58-.464-.261a57.488,57.488,0,0,0-2.525,6.762,12.542,12.542,0,0,0-3.105,4.063c-.145.319.319.58.464.261a10.133,10.133,0,0,1,1.161-1.944h.029a61.651,61.651,0,0,1,8.968.784.272.272,0,0,0,.145-.522,58.524,58.524,0,0,0-8.736-.784,22.7,22.7,0,0,1,6.675-5.021h0a52.93,52.93,0,0,1,8.271,1.1.272.272,0,0,0,.145-.522,43.732,43.732,0,0,0-7.546-1.045,94.869,94.869,0,0,1,9.984-4.3C287.354,47.616,287.238,47.093,286.919,47.238Z" transform="translate(-264.597 -45.468)" fill="#40967d"/>
      </g>
      <path id="Path_217" data-name="Path 217" d="M256.152,4.75a.125.125,0,0,0-.116-.116c-2.67-.377-5.543-.319-7.778,1.132,1.393-1.8,2.757-3.6,4.063-5.456.116-.145-.116-.348-.232-.174-1.48,2.09-3.047,4.121-4.615,6.153V6.26A7.445,7.445,0,0,0,248,3.88,5.038,5.038,0,0,0,246.487.194a.152.152,0,0,0-.261.029c0,.029-1.48,3.192-1.19,4.818a4.449,4.449,0,0,0,.7,1.712c.174.261.464.668.813.7l-4.092,5.311a5.141,5.141,0,0,0-.755-4.324,2.928,2.928,0,0,0-1.074-.9,4.964,4.964,0,0,0-1.016,2.7,3.326,3.326,0,0,0,.116,1.6,2.678,2.678,0,0,0,.871,1.161,2.123,2.123,0,0,0,1.277.551c-1.625,2.177-3.221,4.382-4.7,6.646a3.022,3.022,0,0,0-.755-1.77,6.761,6.761,0,0,0-1.48-1.248,2.443,2.443,0,0,1-.929-.871,8.8,8.8,0,0,1-.029,1.509,4.208,4.208,0,0,0,.377,1.974,2.388,2.388,0,0,0,.813,1.045,2.08,2.08,0,0,0,1.364.406c-.522.842-1.045,1.683-1.567,2.554a59.7,59.7,0,0,0-3.686,7.488c-.058.174.2.29.261.116a62.292,62.292,0,0,1,5.746-10.825,1.49,1.49,0,0,0,.609,1.422,2.786,2.786,0,0,0,.784.377,3.63,3.63,0,0,0,2.641-.261,3.524,3.524,0,0,0,1.741-1.974c.029-.087.058-.232-.029-.29-.058-.058-.116-.029-.2-.029a5.611,5.611,0,0,1-1.945-.348,5.579,5.579,0,0,0-1.944-.319,1.826,1.826,0,0,0-.958.348c1.306-1.974,2.7-3.889,4.121-5.775a1.69,1.69,0,0,0,.667.755,5.162,5.162,0,0,0,7.372-1.567,6.878,6.878,0,0,0-4.121-1.074,7.113,7.113,0,0,0-2.757.755,5.278,5.278,0,0,0-.551.29c1.393-1.857,2.844-3.686,4.237-5.514.551,2,3.4,2.264,5.166,1.886A4.809,4.809,0,0,0,256.152,4.75Z" transform="translate(-231.271 -0.069)" fill="#2a514a"/>
    </g>
    <g id="Group_56" data-name="Group 56" transform="translate(33.724 20.364)">
      <g id="Group_41" data-name="Group 41">
        <path id="Path_218" data-name="Path 218" d="M116.2,114.375V77.546A7.531,7.531,0,0,1,123.746,70h72.12a6.385,6.385,0,0,1,6.385,6.385v37.99a7.531,7.531,0,0,1-7.546,7.546H123.746A7.549,7.549,0,0,1,116.2,114.375Z" transform="translate(-116.2 -70)" fill="#76a9b7"/>
        <path id="Path_219" data-name="Path 219" d="M200.386,124.9H127.86a4.762,4.762,0,0,1-4.76-4.76V81.86a4.762,4.762,0,0,1,4.76-4.76h72.5a4.762,4.762,0,0,1,4.76,4.76v38.28A4.7,4.7,0,0,1,200.386,124.9Z" transform="translate(-121.097 -75.039)" fill="#e4f3f7"/>
      </g>
      <path id="Path_220" data-name="Path 220" d="M236.587,276.993H200.4a.706.706,0,0,1-.7-.7h0a.706.706,0,0,1,.7-.7h36.191a.706.706,0,0,1,.7.7h0A.706.706,0,0,1,236.587,276.993Z" transform="translate(-175.466 -215.93)" fill="#76a9b7"/>
      <path id="Path_221" data-name="Path 221" d="M238,256.649H201.4l3.134-7.749h30.328Z" transform="translate(-176.673 -196.979)" fill="#527480"/>
      <g id="Group_54" data-name="Group 54" transform="translate(5.63 5.717)">
        <rect id="Rectangle_17" data-name="Rectangle 17" width="74.819" height="35.842" transform="translate(0 5.282)" fill="#b4dfd5"/>
        <g id="Group_43" data-name="Group 43">
          <rect id="Rectangle_18" data-name="Rectangle 18" width="74.819" height="5.311" fill="#e6e6ce"/>
          <g id="Group_42" data-name="Group 42" transform="translate(1.393 1.654)">
            <ellipse id="Ellipse_21" data-name="Ellipse 21" cx="1.016" cy="1.016" rx="1.016" ry="1.016" fill="#ec7772"/>
            <ellipse id="Ellipse_22" data-name="Ellipse 22" cx="1.016" cy="1.016" rx="1.016" ry="1.016" transform="translate(3.773)" fill="#fdd17a"/>
            <ellipse id="Ellipse_23" data-name="Ellipse 23" cx="1.016" cy="1.016" rx="1.016" ry="1.016" transform="translate(7.575)" fill="#61bda6"/>
          </g>
        </g>
        <text id="BRAND" transform="translate(23.869 24.778)" fill="#fff" font-size="9" font-family="SegoeUI, Segoe UI"><tspan x="0" y="0">BRAND</tspan></text>
        <rect id="Rectangle_19" data-name="Rectangle 19" width="8.852" height="26.091" transform="translate(3.483 9.258)" fill="#61bda6"/>
        <g id="Group_44" data-name="Group 44" transform="translate(4.208 10.1)">
          <rect id="Rectangle_20" data-name="Rectangle 20" width="3.338" height="3.338" fill="#b4dfd5"/>
          <rect id="Rectangle_21" data-name="Rectangle 21" width="3.338" height="3.338" transform="translate(4.034)" fill="#b4dfd5"/>
        </g>
        <g id="Group_45" data-name="Group 45" transform="translate(4.208 14.395)">
          <rect id="Rectangle_22" data-name="Rectangle 22" width="3.338" height="3.338" fill="#b4dfd5"/>
          <rect id="Rectangle_23" data-name="Rectangle 23" width="3.338" height="3.338" transform="translate(4.034)" fill="#b4dfd5"/>
        </g>
        <g id="Group_46" data-name="Group 46" transform="translate(4.208 18.69)">
          <rect id="Rectangle_24" data-name="Rectangle 24" width="3.338" height="3.338" fill="#b4dfd5"/>
          <rect id="Rectangle_25" data-name="Rectangle 25" width="3.338" height="3.338" transform="translate(4.034)" fill="#b4dfd5"/>
        </g>
        <g id="Group_47" data-name="Group 47" transform="translate(4.208 22.986)">
          <rect id="Rectangle_26" data-name="Rectangle 26" width="3.338" height="3.338" fill="#b4dfd5"/>
          <rect id="Rectangle_27" data-name="Rectangle 27" width="3.338" height="3.338" transform="translate(4.034)" fill="#b4dfd5"/>
        </g>
        <g id="Group_48" data-name="Group 48" transform="translate(4.208 27.281)">
          <rect id="Rectangle_28" data-name="Rectangle 28" width="3.338" height="3.338" fill="#b4dfd5"/>
          <rect id="Rectangle_29" data-name="Rectangle 29" width="3.338" height="3.338" transform="translate(4.034)" fill="#b4dfd5"/>
        </g>
        <g id="Group_53" data-name="Group 53" transform="translate(13.757 12.48)">
          <g id="Group_50" data-name="Group 50" transform="translate(1.393 1.393)">
            <g id="Group_49" data-name="Group 49">
              <path id="Path_222" data-name="Path 222" d="M359.735,196.5v.435H359.3" transform="translate(-309.527 -179.377)" fill="none" stroke="#1c1c38" stroke-linecap="round" stroke-linejoin="round" stroke-width="1"/>
              <line id="Line_1" data-name="Line 1" x1="47.596" transform="translate(1.016 17.558)" stroke-dasharray="2.965 3.953" stroke="#1c1c38" stroke-linecap="round" stroke-linejoin="round" stroke-width="1" fill="none"/>
              <path id="Path_223" data-name="Path 223" d="M188.235,196.935H187.8V196.5" transform="translate(-187.8 -179.377)" fill="none" stroke="#1c1c38" stroke-linecap="round" stroke-linejoin="round" stroke-width="1"/>
              <line id="Line_2" data-name="Line 2" y1="15.033" transform="translate(0 0.987)" stroke-dasharray="2.875 3.833" stroke="#1c1c38" stroke-linecap="round" stroke-linejoin="round" stroke-width="1" fill="none"/>
              <path id="Path_224" data-name="Path 224" d="M187.8,137.935V137.5h.435" transform="translate(-187.8 -137.5)" fill="none" stroke="#1c1c38" stroke-linecap="round" stroke-linejoin="round" stroke-width="1"/>
              <line id="Line_3" data-name="Line 3" x2="47.625" transform="translate(1.567)" stroke-dasharray="2.965 3.953" stroke="#1c1c38" stroke-linecap="round" stroke-linejoin="round" stroke-width="1" fill="none"/>
              <path id="Path_225" data-name="Path 225" d="M359.3,137.5h.435v.435" transform="translate(-309.527 -137.5)" fill="none" stroke="#1c1c38" stroke-linecap="round" stroke-linejoin="round" stroke-width="1"/>
              <line id="Line_4" data-name="Line 4" y2="15.033" transform="translate(50.208 1.538)" stroke-dasharray="2.875 3.833" stroke="#1c1c38" stroke-linecap="round" stroke-linejoin="round" stroke-width="1" fill="none"/>
            </g>
          </g>
          <g id="Group_51" data-name="Group 51">
            <rect id="Rectangle_30" data-name="Rectangle 30" width="2.757" height="2.757" fill="#1c1c38"/>
            <rect id="Rectangle_31" data-name="Rectangle 31" width="2.757" height="2.757" transform="translate(50.208)" fill="#1c1c38"/>
          </g>
          <g id="Group_52" data-name="Group 52" transform="translate(0 17.558)">
            <rect id="Rectangle_32" data-name="Rectangle 32" width="2.757" height="2.757" fill="#1c1c38"/>
            <rect id="Rectangle_33" data-name="Rectangle 33" width="2.757" height="2.757" transform="translate(50.208)" fill="#1c1c38"/>
          </g>
        </g>
        <rect id="Rectangle_34" data-name="Rectangle 34" width="49.918" height="1.219" transform="translate(15.44 9.258)" fill="#61bda6"/>
        <rect id="Rectangle_35" data-name="Rectangle 35" width="49.918" height="1.219" transform="translate(15.44 34.769)" fill="#61bda6"/>
      </g>
      <g id="Group_55" data-name="Group 55" transform="translate(2.119 2.032)" opacity="0.4">
        <path id="Path_226" data-name="Path 226" d="M276.93,79.9a4.34,4.34,0,0,0-4.092-2.9h-.609L224.4,124.829H232Z" transform="translate(-195.117 -77)" fill="#faf9dd"/>
        <path id="Path_227" data-name="Path 227" d="M172.487,77,126.4,123.058a4.314,4.314,0,0,0,3.483,1.77h20.809L198.549,77Z" transform="translate(-125.558 -77)" fill="#faf9dd"/>
        <path id="Path_228" data-name="Path 228" d="M123.5,104.542v13.147L164.16,77H151.042Z" transform="translate(-123.5 -77)" fill="#faf9dd"/>
      </g>
    </g>
    <g id="Group_61" data-name="Group 61" transform="translate(4.516 34.292)">
      <path id="Path_229" data-name="Path 229" d="M137.939,177.6a14.385,14.385,0,0,0,2.119.58c1.277.29,2.525.58,3.8.871a2.035,2.035,0,0,0,1.016.058,4.2,4.2,0,0,0,1.422-.638c.435-.348.609-2,.9-2.5.174-.29.551-.406.522-.232-.058.261.116,2.815.058,3.047a1.916,1.916,0,0,1-1.1,1.219,4.94,4.94,0,0,1-1.6.377,29.869,29.869,0,0,1-4.556.087,24.093,24.093,0,0,1-4.092-.348,14.942,14.942,0,0,1-3.715-1.161,4.969,4.969,0,0,1-1.248-1.219c-.987-1.1.348-3.105,1.741-2.815a7.476,7.476,0,0,1,2.206,1.335A14.109,14.109,0,0,0,137.939,177.6Z" transform="translate(-97.587 -158.385)" fill="#e27e5a"/>
      <g id="Group_58" data-name="Group 58" transform="translate(16.895 29.351)">
        <g id="Group_57" data-name="Group 57" transform="translate(0.421 33.659)">
          <path id="Path_230" data-name="Path 230" d="M87.785,340.469a.907.907,0,0,1-.609.784,2.539,2.539,0,0,1-1.045.145L78,341.485a7.813,7.813,0,0,1-2.728-.29,2.484,2.484,0,0,1,.058-1.219c.174-.7.522-1.393.638-2.119a22.789,22.789,0,0,0,.058-2.438.276.276,0,0,1,.058-.2.218.218,0,0,1,.145-.029l2.554-.087c.261,0,1.857,0,1.915.2a4.3,4.3,0,0,0,1.422,1.944c.638.522,1.306.958,1.915,1.509a3.167,3.167,0,0,0,.842.668,4.675,4.675,0,0,0,1.683.116,1.493,1.493,0,0,1,1.045.435A.732.732,0,0,1,87.785,340.469Z" transform="translate(-75.226 -335.1)" fill="#ce422c"/>
          <path id="Path_231" data-name="Path 231" d="M87.785,352.163a.907.907,0,0,1-.609.784,2.539,2.539,0,0,1-1.045.145L78,353.179a7.813,7.813,0,0,1-2.728-.29,2.484,2.484,0,0,1,.058-1.219c.087-.029.174-.058.29-.087a21.831,21.831,0,0,1,2.728.319c.9.087,1.828.174,2.757.174a18.068,18.068,0,0,0,6.5-.435A.869.869,0,0,1,87.785,352.163Z" transform="translate(-75.226 -346.794)" fill="#7f1d13"/>
        </g>
        <path id="Path_232" data-name="Path 232" d="M80.952,235.369a3.139,3.139,0,0,1,.929,2.583,3.491,3.491,0,0,1-.668,1.074c-2.873,3.57-3.918,8.271-4.876,12.741-.029.2-.087.435.058.58a.576.576,0,0,0,.377.174c.813.2,1.625.406,2.467.609a.829.829,0,0,0,.464.029c.435-.087.522-.667.609-1.1a7.2,7.2,0,0,1,.668-1.77c1.1-2.293,2.206-4.556,3.309-6.849a13.565,13.565,0,0,1,2.786-4.266,2.977,2.977,0,0,0,.784-.929,2.018,2.018,0,0,0-.029-1.306,39.378,39.378,0,0,0-1.828-5.4c-1.48-3.8-2.989-7.633-4.469-11.435a1.721,1.721,0,0,0-.493-.784,1.662,1.662,0,0,0-1.741.145,14.311,14.311,0,0,0-4.76,3.976c-.638.813-1.1,1.741-.435,2.641.7.929,1.451,1.857,2.119,2.815C77.788,231.132,79.356,233.279,80.952,235.369Z" transform="translate(-73.777 -219.123)" fill="#3b6472"/>
      </g>
      <g id="Group_60" data-name="Group 60" transform="translate(0 24.207)">
        <g id="Group_59" data-name="Group 59" transform="translate(0 33.564)">
          <path id="Path_233" data-name="Path 233" d="M22.522,319.385a3.8,3.8,0,0,1-.058,1.509,11.7,11.7,0,0,0,.087,3.338,6.619,6.619,0,0,0,.377,1.828c.174.406.435.813.58,1.219a2.021,2.021,0,0,1,.145.726,1.02,1.02,0,0,1-.145.58,1.364,1.364,0,0,1-1.219.667,2.565,2.565,0,0,1-1.364-.464,8.016,8.016,0,0,1-2.815-3.715,32,32,0,0,0-1.974-4.3,2.452,2.452,0,0,1-.464-.958.764.764,0,0,1,.464-.871,2.453,2.453,0,0,0,.493-.145,17.17,17.17,0,0,0,2.96-1.6c1.016-.609,1.857.668,2.438,1.393A2.237,2.237,0,0,1,22.522,319.385Z" transform="translate(-15.633 -317.049)" fill="#ce422c"/>
          <path id="Path_234" data-name="Path 234" d="M23.177,332.345a2.013,2.013,0,0,0,.377-.145,1.019,1.019,0,0,1-.145.58,1.364,1.364,0,0,1-1.219.668,2.565,2.565,0,0,1-1.364-.464,8.016,8.016,0,0,1-2.815-3.715,32,32,0,0,0-1.974-4.3,2.451,2.451,0,0,1-.464-.958.764.764,0,0,1,.464-.871,2.451,2.451,0,0,0,.493-.145c.116.261.145.58.232.842a18.088,18.088,0,0,0,1.741,4.237,12.041,12.041,0,0,0,2.438,3.541A2.522,2.522,0,0,0,23.177,332.345Z" transform="translate(-15.562 -321.273)" fill="#7f1d13"/>
        </g>
        <path id="Path_235" data-name="Path 235" d="M49.4,203.575a1.246,1.246,0,0,1-.087,1.1c-1.277,2.786-3.483,5.34-3.483,8.387a9.414,9.414,0,0,0,.319,2.206l.087.435c.9,3.976,1.8,8.039,1.277,12.073a3,3,0,0,1-.319,1.132,2.585,2.585,0,0,1-.9.871c-2.873,1.973-6.588,2.5-9.345,4.615-1.277.987-2.293,2.264-3.628,3.134a9.618,9.618,0,0,1-2.525-2.67c2.293-1.277,3.657-3.715,5.717-5.369a21.849,21.849,0,0,1,4.005-2.322,1.385,1.385,0,0,0,.784-.668,1.3,1.3,0,0,0,.029-.667,35.5,35.5,0,0,0-2.583-8.329c-.261-.639-.493-1.277-.755-1.944a21.638,21.638,0,0,1-1.48-6.472,11.312,11.312,0,0,1,.493-3.831,8.216,8.216,0,0,1,1.654-3.047c.784-.9,1.364-.871,2.5-.755a32.678,32.678,0,0,1,7.633,1.712A1.262,1.262,0,0,1,49.4,203.575Z" transform="translate(-26.378 -201.398)" fill="#547989"/>
      </g>
      <path id="Path_236" data-name="Path 236" d="M119.5,184.468a7.8,7.8,0,0,0,1.915.929,9.583,9.583,0,0,0,4.615-.232c2.177-.464,4.353-.871,6.559-1.219a5.985,5.985,0,0,1,2.032-.087c.493.087,1.1.29,1.422-.087.145-.174.29-.29.319-.493a33.159,33.159,0,0,0,0-5.63c-.29.116-.58,2.119-.638,2.438a1.91,1.91,0,0,1-.261.9,1.684,1.684,0,0,1-.348.29c-.174.174-.261.377-.435.551a1.792,1.792,0,0,1-.958.406,16.356,16.356,0,0,1-4.76-.029c-1.625-.174-3.25-.377-4.876-.668a5.884,5.884,0,0,1-2.554-.929,9.2,9.2,0,0,1-1.77-2.525,1.049,1.049,0,0,0-.435-.435,1.205,1.205,0,0,0-.726-.087,4.816,4.816,0,0,0-2.409.842c-.493.348-1.161,1.016-1.1,1.654.029.58,1.016.638,1.364,1.045C117.471,182.233,118.226,183.655,119.5,184.468Z" transform="translate(-86.203 -160.26)" fill="#f29d7e"/>
      <path id="Path_237" data-name="Path 237" d="M69.445,155.953c-.522.7-1.074,1.422-1.6,2.119-.609.813-1.219,1.625-1.886,2.409a27.9,27.9,0,0,1-7.43,6.24c-.29.174-.609.348-.7.667a1.221,1.221,0,0,0,.232.929,24.687,24.687,0,0,0,8.1,8.329,1.634,1.634,0,0,0,.871.348,1.492,1.492,0,0,0,.813-.435,33.494,33.494,0,0,0,6.211-6.907,10.583,10.583,0,0,1,2.583-3.076c.377-.261.842-.609.726-1.016a.98.98,0,0,0-.2-.319c-.668-.842-1.393-1.654-2.119-2.438,1.045-.261,1.567-1.538,2.583-1.915a1.79,1.79,0,0,1,2.032.668,3.568,3.568,0,0,1,1.712-1.741,25.918,25.918,0,0,0-1.393-2.235,12.568,12.568,0,0,0-2.061-2.409,9.76,9.76,0,0,0-5.079-2.09C71.1,152.935,70.345,154.734,69.445,155.953Z" transform="translate(-45.549 -142.89)" fill="#e289a9"/>
      <path id="Path_238" data-name="Path 238" d="M119.193,145.533a10.1,10.1,0,0,1-1.393,1.538,3.073,3.073,0,0,1,1.248.842c.726.9.406,2.351,1.19,3.192a1.086,1.086,0,0,1,.377-.842c.406-.435.813-.9,1.219-1.335a2.106,2.106,0,0,1,.9-.7,2.523,2.523,0,0,1,1.045-.029,14.614,14.614,0,0,0-2.5-3.8c-.29-.29-.929-.929-1.335-.522-.174.174-.2.58-.29.813A3.92,3.92,0,0,1,119.193,145.533Z" transform="translate(-88.128 -136.271)" fill="#e27e5a"/>
      <path id="Path_239" data-name="Path 239" d="M129.462,124.537a7.762,7.762,0,0,1,.958,2.264c0,.464-.116.522-.116.987,0,.784.726.987.958,1.828,0,.2-.377.232-.609.261a.547.547,0,0,0-.232.058c-.2.174.029.522-.058.784-.116.319-.668.232-.842.551-.116.2,0,.435.116.638a.967.967,0,0,1,.261.609c-.029.29-.406.493-.377.813a1.083,1.083,0,0,1,.029.522.808.808,0,0,1-.551.406,3.117,3.117,0,0,1-2-.522c-1.509-1.248-2.351-2.351-2.293-2.612.058-.2.29-.348.232-.551-.058-.232-.377-.232-.58-.348a.966.966,0,0,1-.319-.551c-.058-.232-.145-.435-.2-.668a2.06,2.06,0,0,1-.145-.842.678.678,0,0,1,1.1-.551,2.522,2.522,0,0,1,.464.493l.871-1.045a.728.728,0,0,0,.116-.2.5.5,0,0,0-.029-.29,7.834,7.834,0,0,1-.232-1.132,1.644,1.644,0,0,1,.058-.842,1.456,1.456,0,0,1,1.538-.813,4.366,4.366,0,0,1,1.712.7C129.374,124.45,129.462,124.537,129.462,124.537Z" transform="translate(-92.302 -122.096)" fill="#f29d7e"/>
      <path id="Path_240" data-name="Path 240" d="M111.823,124.058a.623.623,0,0,1,.871.232c.058.087.145.174.232.174s.145-.087.2-.145c.261-.406.058-.609.319-1.016a2.541,2.541,0,0,1,.7-.551c2.612-.842,2.9-1.6,2.9-1.654a2.911,2.911,0,0,0-1.567-2.177,6.4,6.4,0,0,0-3.773-.842,8.86,8.86,0,0,0-2.032.7,1.952,1.952,0,0,0-1.219-.784,1.738,1.738,0,0,0-.987.319,3.637,3.637,0,0,0-1.654,1.712c-.464,1.248.261,2.641.116,3.976a2.4,2.4,0,0,0-.029,1.277c.145.348.493.551.638.9a4.5,4.5,0,0,1,.2,1.393,1.772,1.772,0,0,0,.958,1.219c.522.232,1.19.261,1.509.7a3.3,3.3,0,0,1,.29,1.306,1.687,1.687,0,0,0,.755,1.074,1.948,1.948,0,0,1,.406.261,1.887,1.887,0,0,1,.406.987,1.1,1.1,0,0,0,.609.842.746.746,0,0,0,.813-.464,12.424,12.424,0,0,0-.029-2.09c-.029-.7-1.045-2.815-1.1-3.425-.029-.377-.261-.784-.116-1.132a2.556,2.556,0,0,0,.174-.29,1.647,1.647,0,0,0-.029-.987A2.694,2.694,0,0,1,111.823,124.058Z" transform="translate(-79.51 -117.989)" fill="#1b4e61"/>
    </g>
    <g id="Group_68" data-name="Group 68" transform="translate(97.776 25.811)">
      <g id="Group_66" data-name="Group 66" transform="translate(1.702)">
        <g id="Group_65" data-name="Group 65">
          <g id="Group_62" data-name="Group 62" transform="translate(4.472 36.795)">
            <path id="Path_241" data-name="Path 241" d="M386.114,219.208c-1.48,4.5-1.8,9.258-2.09,13.989l-.174,2.96a4.293,4.293,0,0,0,.029,1.219c.087.406.261.784.377,1.161a12.493,12.493,0,0,1,.435,4.411,72.681,72.681,0,0,1-.551,8.707c-.116.842-.29,1.683-.464,2.525a.957.957,0,0,0,.029.7,1.1,1.1,0,0,0,.609.377c.726.232,1.48.464,2.206.667.668.2,1.538.348,1.944-.2.638-.9-.755-2.177-.261-3.163.116-.2.29-.377.406-.58a1.749,1.749,0,0,0,.174-.667c.232-1.944.435-3.889.668-5.833a22.791,22.791,0,0,0,.232-4.44c-.058-.871-.232-1.741-.261-2.612-.029-2.5,1.161-4.818,2.322-7.052a12.109,12.109,0,0,0,1.306-3.251,12.846,12.846,0,0,0-.058-3.8c-.2-1.77-.406-3.512-.638-5.282a4.392,4.392,0,0,0-.435-1.712c-.668-1.161-2.351-1.538-3.6-1.451C386.752,216.045,386.549,217.931,386.114,219.208Z" transform="translate(-376.239 -215.768)" fill="#b94a5b"/>
            <path id="Path_242" data-name="Path 242" d="M401.267,220.758c.464,1.538,1.277,2.989,1.886,4.469a50.039,50.039,0,0,1,2.351,8.765,21.677,21.677,0,0,0,.987,3.57c.406,1.074.987,2.119,1.335,3.221a14.675,14.675,0,0,1,.522,4.353,44.819,44.819,0,0,1-1.074,9.839l4.266,1.045a11.482,11.482,0,0,1,.145-4.76,82.821,82.821,0,0,0,.7-9.693,10.893,10.893,0,0,0-.058-1.944c-.2-1.1-.755-2.09-1.016-3.192a12.251,12.251,0,0,1-.145-3.57c.116-1.973.232-3.918.348-5.892a8.975,8.975,0,0,1,.261-1.973c.174-.609.464-1.19.668-1.8a11.008,11.008,0,0,0,.319-4.673,2.119,2.119,0,0,0-.319-1.1,2.079,2.079,0,0,0-1.219-.638,22.454,22.454,0,0,0-7.836-1.19c-1.161.116-1.944.116-2.322,1.248A6.679,6.679,0,0,0,401.267,220.758Z" transform="translate(-388.461 -215.548)" fill="#e8605c"/>
            <path id="Path_243" data-name="Path 243" d="M370.6,351.582a.827.827,0,0,1-.551.638,2.331,2.331,0,0,1-.9.116h-1.306c-1.132,0-2.235,0-3.367.058-2,.145-4.063.493-5.921-.2a.584.584,0,0,1-.232-.116.505.505,0,0,1-.145-.435,1.072,1.072,0,0,1,.2-.406,1.258,1.258,0,0,1,.2-.174,1.827,1.827,0,0,1,.7-.261,13.213,13.213,0,0,1,1.857-.406,1.032,1.032,0,0,0,.319-.087c.145-.058.232-.2.348-.29a4.83,4.83,0,0,1,.813-.522,12.635,12.635,0,0,0,2.177-1.77c.232-.2.755-.609.9-.145.058.174,0,.319.145.493a1.658,1.658,0,0,0,.609.377,8.725,8.725,0,0,0,2.525.755,10.7,10.7,0,0,0,1.364-.029,5.336,5.336,0,0,0,.116,1.8c.029.087.058.2.087.29A1.044,1.044,0,0,1,370.6,351.582Z" transform="translate(-358.175 -309.107)" fill="#f8f8dc"/>
            <path id="Path_244" data-name="Path 244" d="M370.6,361.048a.827.827,0,0,1-.551.638,2.33,2.33,0,0,1-.9.116h-1.306c-1.132,0-2.235,0-3.367.058-2,.145-4.063.493-5.921-.2a.584.584,0,0,1-.232-.116.505.505,0,0,1-.145-.435,1.072,1.072,0,0,1,.2-.406c.029.174-.058.377.2.522a1.416,1.416,0,0,0,.7.116l9.229-.087a4.346,4.346,0,0,0,1.219-.116,2.145,2.145,0,0,0,.813-.406.028.028,0,0,0,.029-.029C370.574,360.816,370.6,360.932,370.6,361.048Z" transform="translate(-358.175 -318.574)" fill="#65bda5"/>
            <path id="Path_245" data-name="Path 245" d="M418.57,353.57a.535.535,0,0,1-.116.377,1.607,1.607,0,0,1-.232.174c-.406.232-.813.435-1.219.668a9.744,9.744,0,0,1-1.248.58,4.78,4.78,0,0,1-.929.174,10.69,10.69,0,0,1-1.915.174,5.771,5.771,0,0,1-1.974-.348.419.419,0,0,1-.29-.2.492.492,0,0,1,0-.29,1.041,1.041,0,0,1,.116-.319,2.824,2.824,0,0,1,.638-.9,4.485,4.485,0,0,0,.784-.7c.116-.145.174-.319.29-.493a3.941,3.941,0,0,1,.348-.348,2.968,2.968,0,0,0,.871-1.48,1.237,1.237,0,0,1,1.1-.958,1.916,1.916,0,0,1,.7.087,2.632,2.632,0,0,1,1.132.58,3.308,3.308,0,0,0,.319.319,1.664,1.664,0,0,0,.842.232.419.419,0,0,1,.2.058.263.263,0,0,1,.087.2c.116.493.232.987.377,1.48a2.2,2.2,0,0,1,.087.464C418.541,353.28,418.57,353.425,418.57,353.57Z" transform="translate(-395.403 -310.747)" fill="#f8f8dc"/>
            <path id="Path_246" data-name="Path 246" d="M418.57,362.106a.535.535,0,0,1-.116.377,1.611,1.611,0,0,1-.232.174c-.406.232-.813.435-1.219.667a9.736,9.736,0,0,1-1.248.58,4.787,4.787,0,0,1-.929.174,10.69,10.69,0,0,1-1.915.174,5.773,5.773,0,0,1-1.974-.348.419.419,0,0,1-.29-.2.492.492,0,0,1,0-.29,1.041,1.041,0,0,1,.116-.319c.058.029.087.029.145.058a4.465,4.465,0,0,0,1.074.261,16.1,16.1,0,0,0,2.641.116,4.813,4.813,0,0,0,2.5-.813,9.373,9.373,0,0,1,1.451-1.016A1.894,1.894,0,0,0,418.57,362.106Z" transform="translate(-395.403 -319.283)" fill="#65bda5"/>
          </g>
          <g id="Group_63" data-name="Group 63" transform="translate(0 10.27)">
            <path id="Path_247" data-name="Path 247" d="M354.79,161.812c-.638.319-1.277.638-1.886.987-1.77,1.045-3.367,2.525-5.369,2.931a2.85,2.85,0,0,1-1.77-.145,4.692,4.692,0,0,0-1.074-.551c-1.016-.174-.493.755-.639,1.161-.2.638-.929.842-1.19,1.422-.319.7.2,1.509.755,1.973a1.942,1.942,0,0,0,1.567.406c1.1-.261,2.032-1.161,3.163-1.509,1.219-.348,2.467-.493,3.686-.784,2.061-.493,4.15-.987,6.182-1.654a8.455,8.455,0,0,0,2.322-1.074,8.739,8.739,0,0,0,1.19-1.132c.377-.406.755-.813,1.132-1.19a.391.391,0,0,0,.145-.261.334.334,0,0,0-.174-.261,29.46,29.46,0,0,0-2.583-2.032c-.958-.668-1.509-.871-2.438-.2A22.3,22.3,0,0,1,354.79,161.812Z" transform="translate(-342.765 -149.232)" fill="#f29d7e"/>
            <path id="Path_248" data-name="Path 248" d="M364.354,126.518a4.592,4.592,0,0,0-2.525-2.322c-.319-.087-.784-.058-.9.261a.624.624,0,0,0,.29.668,3.478,3.478,0,0,1,.609.493.22.22,0,0,1,.058.116c0,.087-.058.145-.145.2a3.316,3.316,0,0,0-.958,1.161c-.319.9.29,1.828.842,2.583a2.43,2.43,0,0,0,.929.871c.319.145.7.116,1.016.261a1.931,1.931,0,0,1,.755.7c.609.842,1.045,1.77,1.6,2.641a14.172,14.172,0,0,0,2.931,3.105,10.991,10.991,0,0,0,6.414,2.931c2.206.087,4.3-.9,6.269-1.828a1.8,1.8,0,0,0,.493-.319.9.9,0,0,0,.174-.377,5.4,5.4,0,0,0,.116-3.105,3.268,3.268,0,0,0-2.09-2.177c-1.393-.377-2.815.406-4.179.871a7.635,7.635,0,0,1-3.221.377,8.857,8.857,0,0,1-4.063-1.712,11.033,11.033,0,0,1-3.192-3.047C365.109,128.143,364.789,127.3,364.354,126.518Z" transform="translate(-355.492 -124.154)" fill="#ffbda9"/>
            <path id="Path_249" data-name="Path 249" d="M393.809,140.314a12.11,12.11,0,0,1,2.612,1.277.954.954,0,0,0,.464.2,1.046,1.046,0,0,0,.58-.174c1.161-.58,2.322-1.19,3.483-1.77a1.275,1.275,0,0,1,.638-.2,1.011,1.011,0,0,1,.493.174,4.936,4.936,0,0,1,2.409,4.5.876.876,0,0,1-.145.551,1.338,1.338,0,0,1-.755.435l-4.7,1.306a3.378,3.378,0,0,1-1.509.174,5.193,5.193,0,0,0-1.48-.319,30.654,30.654,0,0,0-.987,3.163,2.745,2.745,0,0,0-.145.958c0,.319.087.668.116.987.2,2.409-2.612,4.208-2.583,6.617,3.628.58,7.343.435,10.97.987a8.417,8.417,0,0,1,3.831,1.335,7.063,7.063,0,0,1-.058-3.4,53.869,53.869,0,0,1,1.886-9.345c.551-1.683,1.219-3.28,1.654-4.992a9.3,9.3,0,0,0,0-5.195,5.053,5.053,0,0,0-3.657-3.454c-2.119-.377-3.889.9-5.8,1.48a9.956,9.956,0,0,0-2.9,1.074,15.187,15.187,0,0,0-2,1.857C395.84,138.95,394.418,140.517,393.809,140.314Z" transform="translate(-377.923 -131.188)" fill="#e4f3f7"/>
          </g>
          <g id="Group_64" data-name="Group 64" transform="translate(17.798)">
            <path id="Path_250" data-name="Path 250" d="M424.121,124.575c-.116.348-.29.7-.406,1.045-.058.174-.058.377.116.435.116.029.2-.058.29-.116a20.009,20.009,0,0,1,6.182-2.989,2.251,2.251,0,0,1-.958-1.625,8.324,8.324,0,0,1-.319-1.654,3.31,3.31,0,0,0-.058-.755,3.272,3.272,0,0,0-.232-.7.522.522,0,0,0-.174-.261.39.39,0,0,0-.261-.058,2.389,2.389,0,0,0-1.219.435,16.7,16.7,0,0,0-1.857,1.335c-.609.522-1.248,1.19-1.074,2.032A4.423,4.423,0,0,1,424.121,124.575Z" transform="translate(-417.995 -109.445)" fill="#f29d7e"/>
            <path id="Path_251" data-name="Path 251" d="M410.637,104.134c-.087.522-.464,1.016-.319,1.538h.551c.2.319.377.668.58.987.174.319.551.668.813.406a.945.945,0,0,0,.522,1.248,3.281,3.281,0,0,0,1.509.145.76.76,0,0,0,.493-.145,1.139,1.139,0,0,0,.232-.406,5.906,5.906,0,0,1,3.657-3.454c.116-.029.232-.087.261-.174a.328.328,0,0,0-.029-.232c-.174-.406-.348-.842-.522-1.248-.2-.493-.522-1.074-1.045-1.132a1.08,1.08,0,0,0-.668-1.161c-.435-.232-.929-.29-1.364-.493a5.814,5.814,0,0,1-1.393-1.132,2.07,2.07,0,0,0-3.454.813,4.38,4.38,0,0,0-.174,1.625C410.231,102.276,410.753,103.234,410.637,104.134Z" transform="translate(-408.486 -95.505)" fill="#ffbda9"/>
            <path id="Path_252" data-name="Path 252" d="M404.092,92.288a1.424,1.424,0,0,0,1.161,1.335c.9.116,1.625-.784,2.525-.929a.494.494,0,0,1,.406.058.58.58,0,0,1,.232.29c.29.609.145,1.393.522,1.974a7.062,7.062,0,0,1,.58.726c.145.261.145.609.29.871s.551.435.726.2a3.186,3.186,0,0,1-.058-1.277,1.411,1.411,0,0,1,.725-1.016.973.973,0,0,1,1.161.261c.261.406.116.987.377,1.422.174.261.464.406.638.638s.261.522.435.755a.993.993,0,0,0,1.161.29,10.5,10.5,0,0,1-.029-1.654,21.562,21.562,0,0,1,.464-2.38,4.242,4.242,0,0,0-.116-2.409,2.7,2.7,0,0,0-2.7-1.6.865.865,0,0,0-.493-.755,1.91,1.91,0,0,0-.9-.261,7.886,7.886,0,0,0-4.382.7C405.717,89.967,404.005,90.9,404.092,92.288Z" transform="translate(-404.089 -88.767)" fill="#1b4e61"/>
          </g>
        </g>
      </g>
      <g id="Group_67" data-name="Group 67" transform="translate(0 27.29)">
        <rect id="Rectangle_36" data-name="Rectangle 36" width="40.863" height="7.11" transform="translate(0.016 45.057) rotate(-90)" fill="#ec7772"/>
        <path id="Path_253" data-name="Path 253" d="M344.039,187.008v-.638a3.567,3.567,0,0,0-3.57-3.57h0a3.567,3.567,0,0,0-3.57,3.57v.638Z" transform="translate(-336.9 -182.8)" fill="#b94a5b"/>
        <rect id="Rectangle_37" data-name="Rectangle 37" width="40.863" height="2.38" transform="translate(0.035 45.075) rotate(-90)" fill="#dd5858"/>
        <rect id="Rectangle_38" data-name="Rectangle 38" width="40.863" height="2.322" transform="translate(2.425 45.057) rotate(-90)" fill="#f98a8a"/>
        <path id="Path_254" data-name="Path 254" d="M344.11,338.1H337l3.715,5.979Z" transform="translate(-336.971 -293.029)" fill="#ce422c"/>
        <rect id="Rectangle_39" data-name="Rectangle 39" width="0.987" height="7.11" transform="translate(0.015 5.211) rotate(-90)" fill="#fdd17a"/>
      </g>
    </g>
    <g id="Group_72" data-name="Group 72" transform="translate(36.636 60.908)">
      <g id="Group_69" data-name="Group 69" transform="translate(6.398 27.102)">
        <path id="Path_255" data-name="Path 255" d="M306.09,339.545a5.607,5.607,0,0,0,1.393-.058c.522-.058,1.016-.116,1.538-.174a1.66,1.66,0,0,1,.755.029.617.617,0,0,1,.464.522c.029.348-.319.58-.609.726a6.722,6.722,0,0,1-4.005.871,2.267,2.267,0,0,1-1.6-.871c-.261-.406-.319-1.335.232-1.567.29-.116.522.116.784.232A4.688,4.688,0,0,0,306.09,339.545Z" transform="translate(-258.692 -328.569)" fill="#0f0f23"/>
        <path id="Path_256" data-name="Path 256" d="M299.987,342.577a9.344,9.344,0,0,0,2.7-.2,7.59,7.59,0,0,1,1.1-.261,1.254,1.254,0,0,1,1.045.348,1.112,1.112,0,0,1,.087,1.161,2.684,2.684,0,0,1-.784.929,10.168,10.168,0,0,1-5.95,2.67,6.218,6.218,0,0,0-1.8.174c-.668.2-1.277.726-1.944.58a1.887,1.887,0,0,1-.638-.319.843.843,0,0,1-.319-.319.683.683,0,0,1,.145-.464,10.288,10.288,0,0,0,1.045-2.554,6.848,6.848,0,0,1,.609-1.509,2.1,2.1,0,0,1,.9-.842c.435-.174.668.116,1.074.261A9.514,9.514,0,0,0,299.987,342.577Z" transform="translate(-251.34 -330.644)" fill="#1c1c38"/>
        <path id="Path_257" data-name="Path 257" d="M243.147,309.7c.609.348,1.219.668,1.857.958,1.857.842,3.918,1.248,5.543,2.438-.261.522-.493,1.016-.755,1.538-.174.348-.377.726-.726.813a1.417,1.417,0,0,1-.9-.145c-2-.813-4.005-1.6-6.008-2.409-4.121-1.654-8.271-3.309-12.276-5.224a5.272,5.272,0,0,1-1.6-.987,1.913,1.913,0,0,1-.58-1.712c.232-.871,1.19-1.306,2.032-1.6a2.043,2.043,0,0,1,1.277-.261,6.874,6.874,0,0,1,1.335.58c.9.406,1.8.871,2.67,1.335,1.77.958,3.483,1.974,5.224,3.018C241.232,308.6,242.19,309.153,243.147,309.7Z" transform="translate(-204.629 -303.082)" fill="#165260"/>
        <path id="Path_258" data-name="Path 258" d="M190.8,323.342c-.29.464-1.625-.813-2.119-.987-1.393-.522-2.815-1.219-4.324-1.828-3.018-1.248-6.008-2.467-9.026-3.715a6.448,6.448,0,0,0-2.612-.667,6.322,6.322,0,0,0-2.815,1.074c-2.7,1.567-5.4,3.134-8.068,4.731a19.842,19.842,0,0,1-4.034,1.944,19.1,19.1,0,0,1-3.134.522,7.839,7.839,0,0,1-3.076-.145,8.066,8.066,0,0,1-2.873-2.061,1.13,1.13,0,0,1-.435-.726,1.02,1.02,0,0,1,.145-.58,21.854,21.854,0,0,1,1.944-3.4,4.76,4.76,0,0,1,.987-1.161,6.113,6.113,0,0,1,1.654-.9c2.032-.871,3.8-2.177,5.892-2.873,3.28-1.074,7.023-1.306,10.013-3.047,1.074-.609,2.177-1.393,3.4-1.335a5.275,5.275,0,0,1,2.322.871c2.7,1.538,5.4,3.047,8.1,4.586a16.568,16.568,0,0,0,5.224,2.206,42.568,42.568,0,0,1,4.789,1.625C194.141,317.886,191.529,322.21,190.8,323.342Z" transform="translate(-148.28 -306.707)" fill="#1a5a6b"/>
      </g>
      <g id="Group_70" data-name="Group 70" transform="translate(0 14.301)">
        <path id="Path_259" data-name="Path 259" d="M174.989,292.871a1.749,1.749,0,0,0,.232.842,1.41,1.41,0,0,0,1.1.493,9.431,9.431,0,0,0,2.206-.174,2.494,2.494,0,0,1-.987,1.132,5.741,5.741,0,0,1-1.944.929,1.791,1.791,0,0,1-1.625-.261,1.838,1.838,0,0,1-.464-.755,10.827,10.827,0,0,1-.958-5.95,2.87,2.87,0,0,1,.726-1.654c.435-.406,1.741-.755,1.77.145a15.85,15.85,0,0,1-.116,1.625c-.029.551-.029,1.132-.029,1.683C174.9,291.594,174.96,292.232,174.989,292.871Z" transform="translate(-159.037 -278.904)" fill="#f39e81"/>
        <path id="Path_260" data-name="Path 260" d="M201.055,306.64a2.074,2.074,0,0,1,1.045-.435c.493-.058,1.016.174,1.509.029a3.168,3.168,0,0,1,.493-.145,1.61,1.61,0,0,1,.813.2.29.29,0,0,1,.145.116c.029.116-.058.2-.174.261a15.261,15.261,0,0,1-3.8,1.654.744.744,0,0,1-.987-.58C200.069,307.279,200.736,306.873,201.055,306.64Z" transform="translate(-178.66 -292.413)" fill="#f39e81"/>
        <path id="Path_261" data-name="Path 261" d="M139.41,325.918a32.948,32.948,0,0,1-2.119,3.134,6.108,6.108,0,0,0-.987,1.451c-.145.377-.29.813-.668.929a1.009,1.009,0,0,1-.638-.116,3.987,3.987,0,0,1-1.306-.987c-.261-.29-.464-.609-.726-.9-.261-.319-.58-.609-.813-.929a3.633,3.633,0,0,1-.522-1.19,13.355,13.355,0,0,1-.609-5.021.329.329,0,0,1,.087-.232.419.419,0,0,1,.2-.058,6,6,0,0,1,1.016.087,15.017,15.017,0,0,1,4.15,1.306c.784.377,1.509.813,2.264,1.248a9.1,9.1,0,0,1,.9.522C139.845,325.425,139.613,325.57,139.41,325.918Z" transform="translate(-129.61 -303.709)" fill="#fdd17a"/>
        <path id="Path_262" data-name="Path 262" d="M128.107,300.628a4.4,4.4,0,0,0,1.248,3.018,4.61,4.61,0,0,0,2.67.609,16.4,16.4,0,0,0,2.931-.145,12.5,12.5,0,0,0,2.7-.784c2.757-1.1,5.282-2.67,7.981-3.889a37.18,37.18,0,0,0,5.195-2.5.275.275,0,0,0-.116-.493l-1.741-.174a4.666,4.666,0,0,0-.9-.029,4.552,4.552,0,0,0-1.364.377c-.609.232-1.219.464-1.8.755a10.179,10.179,0,0,1-1.6.784,5.1,5.1,0,0,1-1.306.2q-3.221.3-6.443.348a2.635,2.635,0,0,1-.958-.116,2.1,2.1,0,0,1-1.016-1.974c-.058-.929.029-1.857-.058-2.757a3.453,3.453,0,0,0-1.132-2.438,2.976,2.976,0,0,0-2.206-.58,3.556,3.556,0,0,0-2.525,1.045c-.58.7-.232.958-.261,1.944,0,1.045.2,2.293.29,3.338C127.817,298.277,127.962,299.438,128.107,300.628Z" transform="translate(-127.014 -281.582)" fill="#f5b7a0"/>
        <path id="Path_263" data-name="Path 263" d="M139.865,261.014a4.17,4.17,0,0,1,1.219.784,3.8,3.8,0,0,1,.842,1.712,16.228,16.228,0,0,1,.609,4.092c-.435.087-.871.145-1.306.232-.087.029-.174.029-.232.116a.313.313,0,0,0-.058.232,16.279,16.279,0,0,0,.464,5.166,8.951,8.951,0,0,1,.377,1.915.477.477,0,0,1-.058.29c-.116.232-.435.232-.7.232a17.551,17.551,0,0,0-3.773.813,9.944,9.944,0,0,1-4.034.058,1.25,1.25,0,0,1-.638-.261,1.468,1.468,0,0,1-.348-.871c-.261-1.886-.435-3.773-.551-5.688a.585.585,0,0,0-.087-.319.463.463,0,0,0-.348-.116,7.99,7.99,0,0,0-2.5.029,2.76,2.76,0,0,0-1.974,1.393c-.058.145-.2.348-.348.261a.315.315,0,0,1-.116-.261c-.029-.755-.029-1.538-.058-2.293a15.375,15.375,0,0,1,.029-2,7.735,7.735,0,0,1,2.322-4.818c.551-.522,1.161-.958,1.683-1.509a3.873,3.873,0,0,1,1.422-1.161,2.846,2.846,0,0,1,1.306.029c1.277.232,2.583.58,3.86.784A8.78,8.78,0,0,1,139.865,261.014Z" transform="translate(-126.234 -258.976)" fill="#fdd17a"/>
      </g>
      <g id="Group_71" data-name="Group 71" transform="translate(0.048)">
        <path id="Path_264" data-name="Path 264" d="M150.076,222.318c.087.145.116.29.2.435a1.6,1.6,0,0,0,.726.726,4.034,4.034,0,0,1,.609.319.584.584,0,0,1,.232.609c-.087.261-.464.435-.348.7a.39.39,0,0,0,.174.2,1.4,1.4,0,0,1,.464,1.045.793.793,0,0,0,.058.464l.174.174a.886.886,0,0,1-.029,1.277,1.387,1.387,0,0,1-.813.29,15.47,15.47,0,0,0-3.454.668,1.7,1.7,0,0,1-.9.2c-.638-.145-.9-1.074-1.567-1.045-.232,0-.406.145-.638.174a1.178,1.178,0,0,1-.958-.319,2.124,2.124,0,0,1-.551-.871,2.573,2.573,0,0,1-.29-1.393,1.388,1.388,0,0,1,.755-1.132,4.639,4.639,0,0,1,.609-.145,3.662,3.662,0,0,0,1.886-1.683c.435-.638,1.016-1.509,1.828-1.654A2.059,2.059,0,0,1,150.076,222.318Z" transform="translate(-138.293 -217.965)" fill="#f5b7a0"/>
        <path id="Path_265" data-name="Path 265" d="M150.881,245.177a5.926,5.926,0,0,0-.638,1.683,16.759,16.759,0,0,0-.551,2.612,1.458,1.458,0,0,1-.174.7.807.807,0,0,1-.842.174,3.386,3.386,0,0,1-.755-.493,15.1,15.1,0,0,0-3.889-1.712c-.116-.029-.232-.116-.232-.232.638-.174,1.335-.406,1.567-1.016a2.564,2.564,0,0,0,.058-.813c-.058-.668-.116-1.364-.145-2.032a.988.988,0,0,1,.029-.29c.058-.174.261-.232.435-.261a12.847,12.847,0,0,1,2.786.174,19.834,19.834,0,0,1,3.221.087c.116.029.522.116.551.261,0,.174-.348.232-.464.29A2.02,2.02,0,0,0,150.881,245.177Z" transform="translate(-138.75 -233.656)" fill="#f39e81"/>
        <path id="Path_266" data-name="Path 266" d="M136.268,210.745a1.434,1.434,0,0,1,1.6.9,4.11,4.11,0,0,1,.116.58,2.659,2.659,0,0,1-.029.958,1.061,1.061,0,0,1-.58.726c-.2.058-.435.058-.58.2a1.066,1.066,0,0,0-.261.58,1.291,1.291,0,0,1-1.074.871c-.145.029-.319.029-.406.145a.853.853,0,0,0-.087.29,1,1,0,0,1-.638.755,3.509,3.509,0,0,0-.522.145.509.509,0,0,0-.348.377c-.029.232.2.406.377.551.174.174.29.464.116.609a.4.4,0,0,1-.493-.058c-.145-.087-.29-.232-.464-.232a.536.536,0,0,0-.435.348,1.183,1.183,0,0,0,.116,1.161,2.216,2.216,0,0,1,.232.319c.116.29-.029.668.174.929.087.087.232.145.29.261.058.145-.029.319.029.464.029.116.145.2.232.29a.906.906,0,0,1-.2,1.306.769.769,0,0,0-.406.377,1.289,1.289,0,0,1-1.161.464c-.493.58-1.509.29-2-.319a2.109,2.109,0,0,0-.232-.261,1.993,1.993,0,0,0-.232-.087,1.439,1.439,0,0,1-.929-1.77,2.343,2.343,0,0,1-1.393-1.683,1.767,1.767,0,0,1,0-.871.538.538,0,0,0,.058-.2.522.522,0,0,0-.116-.261,3.211,3.211,0,0,1-.609-1.828,1.523,1.523,0,0,1,.174-.813.781.781,0,0,1,.7-.406,8.755,8.755,0,0,1-.058-1.509,1.243,1.243,0,0,1,1.625-.871,1.365,1.365,0,0,1,.319-1.306,1.31,1.31,0,0,1,1.277-.348.68.68,0,0,1,.493-.638,2.07,2.07,0,0,1,.842-.058,1.209,1.209,0,0,1,.668-.987,1.174,1.174,0,0,1,1.19.116,2.96,2.96,0,0,1,.726-.261,3.347,3.347,0,0,1,.755.087C135.687,209.845,135.977,210.222,136.268,210.745Z" transform="translate(-126.4 -209.7)" fill="#e8605c"/>
      </g>
      <path id="Path_267" data-name="Path 267" d="M228.928,261.5l-6.124.929L217,274.56l6.559-1.857Z" transform="translate(-190.658 -246.467)" fill="#0b3a47"/>
      <path id="Path_268" data-name="Path 268" d="M199.214,300.1l.058.987L183.4,308.168l-.7-1.074,9.926-4.76.029-.377Z" transform="translate(-166.312 -273.864)" fill="#547989"/>
    </g>
  </g>
</svg>
