<svg xmlns="http://www.w3.org/2000/svg" xmlns:xlink="http://www.w3.org/1999/xlink" width="188.909" height="119.3" viewBox="0 0 188.909 119.3">
  <defs>
    <linearGradient id="linear-gradient" x1="0.613" y1="1.666" x2="0.438" y2="-0.18" gradientUnits="objectBoundingBox">
      <stop offset="0" stop-color="#f20000"/>
      <stop offset="1" stop-color="#ff9100"/>
    </linearGradient>
    <linearGradient id="linear-gradient-2" x1="0.211" y1="-0.093" x2="0.94" y2="1.405" gradientUnits="objectBoundingBox">
      <stop offset="0" stop-color="#d3414a"/>
      <stop offset="1" stop-color="#ac4492"/>
    </linearGradient>
    <linearGradient id="linear-gradient-3" x1="0.001" y1="0.5" x2="1" y2="0.5" gradientUnits="objectBoundingBox">
      <stop offset="0" stop-color="#93006d"/>
      <stop offset="0.726" stop-color="#40006b"/>
      <stop offset="1" stop-color="#0f1369"/>
    </linearGradient>
  </defs>
  <g id="Group_32" data-name="Group 32" transform="translate(-0.01)">
    <ellipse id="Ellipse_1" data-name="Ellipse 1" cx="91.701" cy="4.331" rx="91.701" ry="4.331" transform="translate(5.519 109.614)" fill="#66a3b1"/>
    <g id="Group_31" data-name="Group 31" transform="translate(0.01)">
      <g id="Group_1" data-name="Group 1" transform="translate(130.779 57.995)">
        <rect id="Rectangle_6" data-name="Rectangle 6" width="3.66" height="17.974" transform="translate(17.444 19.31)"/>
        <rect id="Rectangle_7" data-name="Rectangle 7" width="2.806" height="12.505" transform="translate(17.871 37.284)" fill="#414c6d"/>
        <path id="Path_2" data-name="Path 2" d="M676.041,292.727a6.76,6.76,0,0,0,.752-2.054,2.292,2.292,0,0,0-.488-1.789,8.962,8.962,0,0,0-5.714-3.009,70.029,70.029,0,0,0-9.007-.569c-5-.163-11.142-.346-15.229,2.765-1.993,1.5-1.525,2.7-.447,4.88-3.314.671-3.477,1.464-1.057,2.115a2.155,2.155,0,0,1,1.667,2.054v.264c0,5.591,4.941,10.105,11.061,10.105h7.2c6.1,0,11.061-4.534,11.061-10.105a2.219,2.219,0,0,1,1.83-2.094c1.627-.346,2.542-.732,2.542-1.159C680.209,293.622,678.644,293.134,676.041,292.727ZM661.707,303c-5.043,0-9.129-2.379-9.17-5.327h18.34C670.836,300.6,666.749,303,661.707,303Z" transform="translate(-643.205 -285.23)" fill="#0089a9"/>
        <path id="Path_3" data-name="Path 3" d="M694.211,528.544a.954.954,0,0,0-1-.895l-12.159-3.68V523.4h-3.477v.508L665.2,527.873a.955.955,0,0,0-1,.895v.468h4.087V528.2l9.658-2.5h.63l.244,2.4h-.712a.914.914,0,0,0-.956.874v.285h4.494v-.285a.914.914,0,0,0-.956-.874h-.732l.244-2.4h.264l9.617,2.318.02,1.057,4.087-.061Z" transform="translate(-659.931 -474.974)"/>
        <path id="Path_4" data-name="Path 4" d="M682.722,292.853c-3.5-1.342-7.5-1.22-11.224-1.2-1,0-1.993.02-2.989.02-4.371.061-12.688.752-12.118,6.323v.081a12.62,12.62,0,0,1,3.843,2.216c1.667,1.484,2.318,5.49,2.318,5.551a2.7,2.7,0,0,0,.813,1.22c1.993,1.83,5.327,2.379,8.092,2.379a20.376,20.376,0,0,0,5.9-.691c5.51-1.85,3.762-6.954,5.429-8.458a18.451,18.451,0,0,1,3.741-2.481S687.2,294.581,682.722,292.853ZM672.19,308.1c-5.042,0-9.129-2.379-9.17-5.327h18.34C681.319,305.7,677.232,308.1,672.19,308.1Z" transform="translate(-653.688 -290.338)" fill="#00657d"/>
      </g>
      <g id="Group_6" data-name="Group 6" transform="translate(63.68 44.671)">
        <g id="Group_5" data-name="Group 5">
          <path id="Path_5" data-name="Path 5" d="M489.9,399.95a2.868,2.868,0,0,0,2.094.712,2.786,2.786,0,0,0,2.033-.854,2.868,2.868,0,0,0-2.094-.712A2.823,2.823,0,0,0,489.9,399.95Z" transform="translate(-453.972 -362.619)" fill="#f66d75"/>
          <path id="Path_6" data-name="Path 6" d="M417.127,307a75.936,75.936,0,0,0,.793-12.139c-.02-2.033-.122-4.046-.285-6.079-.163-2.013-.407-4.026-.691-6.039a108.055,108.055,0,0,0-2.4-11.895c-.508-1.952-1.057-3.9-1.667-5.835s-1.261-3.843-2.033-5.714l-.244.1c.732,1.871,1.362,3.8,1.952,5.714.59,1.932,1.118,3.884,1.586,5.835a113.03,113.03,0,0,1,2.237,11.874c.264,1.993.468,4.006.61,6,.142,2.013.224,4.026.2,6.018a73.984,73.984,0,0,1-.935,12Z" transform="translate(-390.796 -251.248)" fill="#ac4492"/>
          <path id="Path_7" data-name="Path 7" d="M401.431,219.7a6.026,6.026,0,0,1,1.2,8.377,5.539,5.539,0,0,1-2.318-3.945A5.409,5.409,0,0,1,401.431,219.7Z" transform="translate(-382.542 -219.7)" fill="#ac4492"/>
          <path id="Path_8" data-name="Path 8" d="M421.512,249.981a4.292,4.292,0,0,1-1.261,3.335A4.2,4.2,0,0,1,417,254.8a4.292,4.292,0,0,1,1.261-3.335A4.339,4.339,0,0,1,421.512,249.981Z" transform="translate(-395.873 -243.821)" fill="#ac4492"/>
          <path id="Path_9" data-name="Path 9" d="M391.483,263.263a4.219,4.219,0,0,1-3.558.264,4.316,4.316,0,0,1-2.725-2.3,4.72,4.72,0,0,1,6.283,2.033Z" transform="translate(-370.56 -252.364)" fill="#ac4492"/>
          <path id="Path_10" data-name="Path 10" d="M397.983,285.263a4.219,4.219,0,0,1-3.558.264,4.316,4.316,0,0,1-2.725-2.3,4.72,4.72,0,0,1,6.283,2.033Z" transform="translate(-375.739 -269.891)" fill="#ac4492"/>
          <path id="Path_11" data-name="Path 11" d="M404.683,307.663a4.219,4.219,0,0,1-3.558.264,4.316,4.316,0,0,1-2.725-2.3,4.72,4.72,0,0,1,6.283,2.033Z" transform="translate(-381.076 -287.736)" fill="#ac4492"/>
          <path id="Path_12" data-name="Path 12" d="M409.183,328.463a4.219,4.219,0,0,1-3.558.264,4.316,4.316,0,0,1-2.725-2.3,4.72,4.72,0,0,1,6.283,2.033Z" transform="translate(-384.662 -304.307)" fill="#ac4492"/>
          <path id="Path_13" data-name="Path 13" d="M431.9,324.263a4.219,4.219,0,0,0,3.558.264,4.316,4.316,0,0,0,2.725-2.3,4.72,4.72,0,0,0-6.283,2.033Z" transform="translate(-407.765 -300.961)" fill="#ac4492"/>
          <path id="Path_14" data-name="Path 14" d="M427.512,269.868a4.292,4.292,0,0,1-1.261,3.335A4.2,4.2,0,0,1,423,274.687a4.688,4.688,0,0,1,4.514-4.819Z" transform="translate(-400.653 -259.661)" fill="#ac4492"/>
          <path id="Path_15" data-name="Path 15" d="M434.512,292.368a4.292,4.292,0,0,1-1.261,3.335A4.2,4.2,0,0,1,430,297.187a4.292,4.292,0,0,1,1.261-3.335A4.2,4.2,0,0,1,434.512,292.368Z" transform="translate(-406.229 -277.586)" fill="#ac4492"/>
          <g id="Group_2" data-name="Group 2" transform="translate(0 23.688)">
            <path id="Path_16" data-name="Path 16" d="M335.641,355.9a31.723,31.723,0,0,1,3.558,2.359,38.307,38.307,0,0,1,3.253,2.765,42.346,42.346,0,0,1,2.948,3.091,41.422,41.422,0,0,1,2.6,3.375,38.774,38.774,0,0,1,4.067,7.5,42.633,42.633,0,0,1,2.359,8.214l-.61.1a40.068,40.068,0,0,0-2.2-8.133,39.66,39.66,0,0,0-3.9-7.482,40.982,40.982,0,0,0-2.542-3.4c-.915-1.078-1.871-2.115-2.887-3.111A37.705,37.705,0,0,0,339.1,358.4a31.316,31.316,0,0,0-3.5-2.4Z" transform="translate(-331.045 -351.894)" fill="#ac4492"/>
            <path id="Path_17" data-name="Path 17" d="M313.2,339.729a3.8,3.8,0,0,0,1.749,2.725,3.9,3.9,0,0,0,3.172.712,3.8,3.8,0,0,0-1.749-2.725A3.974,3.974,0,0,0,313.2,339.729Z" transform="translate(-313.2 -338.936)" fill="#ac4492"/>
            <path id="Path_18" data-name="Path 18" d="M343.72,336.2a4.278,4.278,0,0,0,.346,6,3.91,3.91,0,0,0,1.057-3.07A3.825,3.825,0,0,0,343.72,336.2Z" transform="translate(-336.665 -336.2)" fill="#ac4492"/>
            <path id="Path_19" data-name="Path 19" d="M360.914,346.5a3.833,3.833,0,0,0-1.83,2.684,3.9,3.9,0,0,0,.569,3.192,3.833,3.833,0,0,0,1.83-2.684A3.9,3.9,0,0,0,360.914,346.5Z" transform="translate(-349.67 -344.406)" fill="#ac4492"/>
            <path id="Path_20" data-name="Path 20" d="M374.714,359.2a3.833,3.833,0,0,0-1.83,2.684,3.9,3.9,0,0,0,.569,3.192,3.833,3.833,0,0,0,1.83-2.684A3.9,3.9,0,0,0,374.714,359.2Z" transform="translate(-360.664 -354.523)" fill="#ac4492"/>
            <path id="Path_21" data-name="Path 21" d="M386.568,372.3a3.907,3.907,0,0,0-2.46,2.115,3.844,3.844,0,0,0-.264,3.233,3.907,3.907,0,0,0,2.46-2.115A3.848,3.848,0,0,0,386.568,372.3Z" transform="translate(-369.286 -364.96)" fill="#ac4492"/>
            <path id="Path_22" data-name="Path 22" d="M395.335,388.69a3.826,3.826,0,1,0-.956,2.745A3.449,3.449,0,0,0,395.335,388.69Z" transform="translate(-375.775 -378.016)" fill="#ac4492"/>
            <path id="Path_23" data-name="Path 23" d="M403.535,398.99a3.826,3.826,0,1,0-.956,2.745A3.6,3.6,0,0,0,403.535,398.99Z" transform="translate(-382.308 -386.221)" fill="#ac4492"/>
            <path id="Path_24" data-name="Path 24" d="M410.142,414.089a3.267,3.267,0,1,0-.813,2.338A2.9,2.9,0,0,0,410.142,414.089Z" transform="translate(-387.979 -398.25)" fill="#ac4492"/>
            <path id="Path_25" data-name="Path 25" d="M412.6,429.052a2.513,2.513,0,0,0-2.074-.041A2.586,2.586,0,0,0,409,430.434a2.768,2.768,0,0,0,3.6-1.383Z" transform="translate(-389.521 -409.98)" fill="#ac4492"/>
            <path id="Path_26" data-name="Path 26" d="M416.391,440.764a2.211,2.211,0,1,0-1.525.691A1.975,1.975,0,0,0,416.391,440.764Z" transform="translate(-392.947 -419.049)" fill="#ac4492"/>
            <path id="Path_27" data-name="Path 27" d="M321.8,365.308a3.816,3.816,0,0,0,3.233.183,3.9,3.9,0,0,0,2.44-2.155,3.817,3.817,0,0,0-3.233-.183A3.9,3.9,0,0,0,321.8,365.308Z" transform="translate(-320.051 -357.459)" fill="#ac4492"/>
            <path id="Path_28" data-name="Path 28" d="M334.4,375.708a3.817,3.817,0,0,0,3.233.183,3.9,3.9,0,0,0,2.44-2.155,3.817,3.817,0,0,0-3.233-.183A3.9,3.9,0,0,0,334.4,375.708Z" transform="translate(-330.089 -365.745)" fill="#ac4492"/>
            <path id="Path_29" data-name="Path 29" d="M347.8,388.408a3.817,3.817,0,0,0,3.233.183,3.9,3.9,0,0,0,2.44-2.155,3.817,3.817,0,0,0-3.233-.183A4.015,4.015,0,0,0,347.8,388.408Z" transform="translate(-340.765 -375.863)" fill="#ac4492"/>
            <path id="Path_30" data-name="Path 30" d="M362.9,398.7a3.158,3.158,0,0,0,2.643.142,3.116,3.116,0,0,0,1.972-1.749,3.158,3.158,0,0,0-2.643-.142A3.225,3.225,0,0,0,362.9,398.7Z" transform="translate(-352.795 -384.424)" fill="#ac4492"/>
            <path id="Path_31" data-name="Path 31" d="M374.3,408.267a2.469,2.469,0,0,0,2.135.142,2.512,2.512,0,0,0,1.586-1.444,2.734,2.734,0,0,0-3.721,1.3Z" transform="translate(-361.877 -392.327)" fill="#ac4492"/>
            <path id="Path_32" data-name="Path 32" d="M381.1,418.667a2.469,2.469,0,0,0,2.135.142,2.512,2.512,0,0,0,1.586-1.444,2.469,2.469,0,0,0-2.135-.142A2.512,2.512,0,0,0,381.1,418.667Z" transform="translate(-367.294 -400.612)" fill="#ac4492"/>
            <path id="Path_33" data-name="Path 33" d="M388.5,430.269a2.482,2.482,0,0,0,1.952.427,2.424,2.424,0,0,0,1.708-1.017,2.482,2.482,0,0,0-1.952-.427A2.54,2.54,0,0,0,388.5,430.269Z" transform="translate(-373.189 -410.302)" fill="#ac4492"/>
            <path id="Path_34" data-name="Path 34" d="M395.7,438.827a2.059,2.059,0,0,0,1.708-.386,2.116,2.116,0,0,0,.976-1.464,2.059,2.059,0,0,0-1.708.386A2.2,2.2,0,0,0,395.7,438.827Z" transform="translate(-378.926 -416.44)" fill="#ac4492"/>
            <path id="Path_35" data-name="Path 35" d="M403.678,446.447a1.806,1.806,0,1,0,.529-1.24A1.6,1.6,0,0,0,403.678,446.447Z" transform="translate(-385.277 -422.617)" fill="#ac4492"/>
            <path id="Path_36" data-name="Path 36" d="M408.966,451.043a.97.97,0,0,0,.793-.285.949.949,0,0,0,.285-.793.97.97,0,0,0-.793.285A.992.992,0,0,0,408.966,451.043Z" transform="translate(-389.487 -426.827)" fill="#ac4492"/>
            <path id="Path_37" data-name="Path 37" d="M410.666,454.543a.97.97,0,0,0,.793-.285.949.949,0,0,0,.285-.793.97.97,0,0,0-.793.285A.992.992,0,0,0,410.666,454.543Z" transform="translate(-390.841 -429.615)" fill="#ac4492"/>
          </g>
          <g id="Group_3" data-name="Group 3" transform="translate(22.651 9.394)">
            <path id="Path_38" data-name="Path 38" d="M459.006,294.9a37.422,37.422,0,0,0-3.4,4.412,54,54,0,0,0-2.867,4.778c-.874,1.647-1.647,3.335-2.359,5.043a55.533,55.533,0,0,0-1.81,5.266,51.7,51.7,0,0,0-1.891,11,55.463,55.463,0,0,0,.529,11.163l.793-.122a52.4,52.4,0,0,1-.691-11,50.71,50.71,0,0,1,1.708-10.9c.488-1.789,1.057-3.538,1.708-5.266q1.006-2.592,2.257-5.063a53.369,53.369,0,0,1,2.765-4.8,39.3,39.3,0,0,1,3.314-4.433Z" transform="translate(-442.13 -289.004)" fill="#f66d75"/>
            <path id="Path_39" data-name="Path 39" d="M510.371,265.9a4.985,4.985,0,0,1-1.017,4.107,5.054,5.054,0,0,1-3.619,2.216,4.985,4.985,0,0,1,1.017-4.107A5.054,5.054,0,0,1,510.371,265.9Z" transform="translate(-489.144 -265.9)" fill="#f66d75"/>
            <path id="Path_40" data-name="Path 40" d="M481.507,275.6a5.58,5.58,0,0,1,2.094,7.564,5.58,5.58,0,0,1-2.094-7.564Z" transform="translate(-469.348 -273.628)" fill="#f66d75"/>
            <path id="Path_41" data-name="Path 41" d="M462.453,297a5.582,5.582,0,0,1,4.026,6.73,5.582,5.582,0,0,1-4.026-6.73Z" transform="translate(-454.584 -290.677)" fill="#f66d75"/>
            <path id="Path_42" data-name="Path 42" d="M450.688,318.5a5.582,5.582,0,0,1,4.026,6.73,5.082,5.082,0,0,1-3.4-2.542A5.143,5.143,0,0,1,450.688,318.5Z" transform="translate(-445.219 -307.805)" fill="#f66d75"/>
            <path id="Path_43" data-name="Path 43" d="M437.256,341.314a5.017,5.017,0,0,1,3.924,1.586,5.135,5.135,0,0,1,1.688,3.884,5.017,5.017,0,0,1-3.924-1.586A5.077,5.077,0,0,1,437.256,341.314Z" transform="translate(-434.674 -325.962)" fill="#f66d75"/>
            <path id="Path_44" data-name="Path 44" d="M430.3,365.527A5,5,0,0,1,436.4,369a4.483,4.483,0,0,1-3.762-.488A4.613,4.613,0,0,1,430.3,365.527Z" transform="translate(-429.141 -345.092)" fill="#f66d75"/>
            <path id="Path_45" data-name="Path 45" d="M424.6,381.627a5,5,0,0,1,6.1,3.477,5,5,0,0,1-6.1-3.477Z" transform="translate(-424.6 -357.919)" fill="#f66d75"/>
            <path id="Path_46" data-name="Path 46" d="M425.2,402.557a3.873,3.873,0,0,1,3.213.407,3.823,3.823,0,0,1,1.993,2.562,3.873,3.873,0,0,1-3.213-.407A3.994,3.994,0,0,1,425.2,402.557Z" transform="translate(-425.078 -374.62)" fill="#f66d75"/>
            <path id="Path_47" data-name="Path 47" d="M426.3,421.2a3.638,3.638,0,0,1,5.043.2,3.3,3.3,0,0,1-2.562.915A3.257,3.257,0,0,1,426.3,421.2Z" transform="translate(-425.954 -388.894)" fill="#f66d75"/>
            <path id="Path_48" data-name="Path 48" d="M429.5,435.841a2.89,2.89,0,1,1,2.176.224A2.6,2.6,0,0,1,429.5,435.841Z" transform="translate(-428.504 -400.096)" fill="#f66d75"/>
            <path id="Path_49" data-name="Path 49" d="M502.328,306.025a5.572,5.572,0,0,1-7.828-.041,5.572,5.572,0,0,1,7.828.041Z" transform="translate(-480.287 -296.57)" fill="#f66d75"/>
            <path id="Path_50" data-name="Path 50" d="M491.028,324.125a5.572,5.572,0,0,1-7.828-.041,5.572,5.572,0,0,1,7.828.041Z" transform="translate(-471.285 -310.99)" fill="#f66d75"/>
            <path id="Path_51" data-name="Path 51" d="M479.828,345.625a5.572,5.572,0,0,1-7.828-.041A5.049,5.049,0,0,1,475.924,344,4.994,4.994,0,0,1,479.828,345.625Z" transform="translate(-462.362 -328.118)" fill="#f66d75"/>
            <path id="Path_52" data-name="Path 52" d="M470.284,363.719A4.1,4.1,0,0,1,467.092,365a4.2,4.2,0,0,1-3.192-1.322,4.566,4.566,0,0,1,6.384.041Z" transform="translate(-455.909 -342.777)" fill="#f66d75"/>
            <path id="Path_53" data-name="Path 53" d="M464.544,379.316a3.255,3.255,0,0,1-2.582,1.078,3.206,3.206,0,0,1-2.562-1.118,3.256,3.256,0,0,1,2.582-1.078A3.206,3.206,0,0,1,464.544,379.316Z" transform="translate(-452.324 -355.364)" fill="#f66d75"/>
            <path id="Path_54" data-name="Path 54" d="M460.544,395.016a3.562,3.562,0,0,1-5.144-.041,3.226,3.226,0,0,1,2.582-1.078A3.337,3.337,0,0,1,460.544,395.016Z" transform="translate(-449.138 -367.871)" fill="#f66d75"/>
            <path id="Path_55" data-name="Path 55" d="M456.778,411.922a3.2,3.2,0,0,1-2.237,1.342,3.281,3.281,0,0,1-2.542-.529,3.2,3.2,0,0,1,2.237-1.342A3.3,3.3,0,0,1,456.778,411.922Z" transform="translate(-446.429 -381.768)" fill="#f66d75"/>
            <path id="Path_56" data-name="Path 56" d="M455.507,425.986a2.751,2.751,0,0,1-2.277.244,2.836,2.836,0,0,1-1.83-1.4,2.751,2.751,0,0,1,2.277-.244A2.836,2.836,0,0,1,455.507,425.986Z" transform="translate(-445.951 -392.213)" fill="#f66d75"/>
            <path id="Path_57" data-name="Path 57" d="M453.228,437.927a2.08,2.08,0,0,1-1.749-.142,2.137,2.137,0,0,1-1.179-1.3,2.08,2.08,0,0,1,1.749.142A2.137,2.137,0,0,1,453.228,437.927Z" transform="translate(-445.075 -401.694)" fill="#f66d75"/>
            <path id="Path_58" data-name="Path 58" d="M451.889,444.735a1.173,1.173,0,0,1-1.1-.041,1.2,1.2,0,0,1-.691-.854,1.173,1.173,0,0,1,1.1.041A1.247,1.247,0,0,1,451.889,444.735Z" transform="translate(-444.915 -407.567)" fill="#f66d75"/>
            <path id="Path_59" data-name="Path 59" d="M451.189,449.735a1.173,1.173,0,0,1-1.1-.041,1.2,1.2,0,0,1-.691-.854,1.173,1.173,0,0,1,1.1.041A1.276,1.276,0,0,1,451.189,449.735Z" transform="translate(-444.358 -411.55)" fill="#f66d75"/>
          </g>
          <g id="Group_4" data-name="Group 4" transform="translate(7.218 4.636)">
            <path id="Path_60" data-name="Path 60" d="M376.661,274.9a41.015,41.015,0,0,1,3.436,4.921,57.274,57.274,0,0,1,2.826,5.287c.854,1.81,1.606,3.68,2.277,5.571.651,1.891,1.2,3.823,1.667,5.775a57.382,57.382,0,0,1,1.464,11.935,59.387,59.387,0,0,1-1.159,12l-.834-.183a56.244,56.244,0,0,0,1.322-11.813,55.2,55.2,0,0,0-1.261-11.834,57.343,57.343,0,0,0-1.566-5.754c-.63-1.891-1.362-3.741-2.176-5.571a56.738,56.738,0,0,0-2.725-5.307,42.9,42.9,0,0,0-3.335-4.941Z" transform="translate(-370.927 -268.312)" fill="#f14e76"/>
            <path id="Path_61" data-name="Path 61" d="M354.7,242.5a6.025,6.025,0,0,0,4.656,7.076,5.467,5.467,0,0,0-.874-4.494A5.386,5.386,0,0,0,354.7,242.5Z" transform="translate(-353.337 -242.5)" fill="#f14e76"/>
            <path id="Path_62" data-name="Path 62" d="M390.027,255.3a6.024,6.024,0,0,0-2.643,8.031,5.457,5.457,0,0,0,2.969-3.477A5.4,5.4,0,0,0,390.027,255.3Z" transform="translate(-378.987 -252.697)" fill="#f14e76"/>
            <path id="Path_63" data-name="Path 63" d="M405.592,279.4a6.018,6.018,0,0,0-4.677,7.035,5.457,5.457,0,0,0,3.782-2.562A5.515,5.515,0,0,0,405.592,279.4Z" transform="translate(-390.159 -271.897)" fill="#f14e76"/>
            <path id="Path_64" data-name="Path 64" d="M417.092,303.2a6.018,6.018,0,0,0-4.677,7.035,6.018,6.018,0,0,0,4.677-7.035Z" transform="translate(-399.321 -290.858)" fill="#f14e76"/>
            <path id="Path_65" data-name="Path 65" d="M425.409,328.4a6.015,6.015,0,0,0-6.323,5.612,6.015,6.015,0,0,0,6.323-5.612Z" transform="translate(-404.772 -310.897)" fill="#f14e76"/>
            <path id="Path_66" data-name="Path 66" d="M430.03,354.595a5.368,5.368,0,0,0-6.73,3.416,5.368,5.368,0,0,0,6.73-3.416Z" transform="translate(-408.132 -331.558)" fill="#f14e76"/>
            <path id="Path_67" data-name="Path 67" d="M435.43,372.295a5.368,5.368,0,0,0-6.73,3.416,4.863,4.863,0,0,0,4.067-.325A4.937,4.937,0,0,0,435.43,372.295Z" transform="translate(-412.434 -345.659)" fill="#f14e76"/>
            <path id="Path_68" data-name="Path 68" d="M437.374,394.791a4.232,4.232,0,0,0-3.5.285,4.126,4.126,0,0,0-2.277,2.643,4.232,4.232,0,0,0,3.5-.285A4.091,4.091,0,0,0,437.374,394.791Z" transform="translate(-414.744 -363.621)" fill="#f14e76"/>
            <path id="Path_69" data-name="Path 69" d="M437.429,415.718a3.456,3.456,0,0,0-2.7-1.118A3.583,3.583,0,0,0,432,415.678a3.456,3.456,0,0,0,2.7,1.118A3.512,3.512,0,0,0,437.429,415.718Z" transform="translate(-415.063 -379.607)" fill="#f14e76"/>
            <path id="Path_70" data-name="Path 70" d="M437.228,430.205a2.836,2.836,0,0,0-1.769-1.545,2.907,2.907,0,0,0-2.359.122,2.836,2.836,0,0,0,1.769,1.545A2.9,2.9,0,0,0,437.228,430.205Z" transform="translate(-415.939 -390.658)" fill="#f14e76"/>
            <path id="Path_71" data-name="Path 71" d="M348.7,286.3a6.02,6.02,0,0,0,8.438.366,5.443,5.443,0,0,0-4.148-1.911A5.342,5.342,0,0,0,348.7,286.3Z" transform="translate(-348.7 -276.157)" fill="#f14e76"/>
            <path id="Path_72" data-name="Path 72" d="M359.9,306.318a6.02,6.02,0,0,0,8.438.366,6.02,6.02,0,0,0-8.438-.366Z" transform="translate(-357.623 -292.105)" fill="#f14e76"/>
            <path id="Path_73" data-name="Path 73" d="M370.9,330.018a6.02,6.02,0,0,0,8.438.366,6.02,6.02,0,0,0-8.438-.366Z" transform="translate(-366.386 -310.986)" fill="#f14e76"/>
            <path id="Path_74" data-name="Path 74" d="M386.3,350.141a4.889,4.889,0,0,0,6.872.305,4.889,4.889,0,0,0-6.872-.305Z" transform="translate(-378.655 -327.247)" fill="#f14e76"/>
            <path id="Path_75" data-name="Path 75" d="M397,367.435a3.515,3.515,0,0,0,2.725,1.3,3.622,3.622,0,0,0,2.826-1.057,3.859,3.859,0,0,0-5.551-.244Z" transform="translate(-387.179 -341.185)" fill="#f14e76"/>
            <path id="Path_76" data-name="Path 76" d="M400.5,384.635a3.515,3.515,0,0,0,2.725,1.3,3.553,3.553,0,0,0,2.826-1.057,3.859,3.859,0,0,0-5.551-.244Z" transform="translate(-389.968 -354.888)" fill="#f14e76"/>
            <path id="Path_77" data-name="Path 77" d="M405.3,402.877a3.487,3.487,0,0,0,2.338,1.566A3.4,3.4,0,0,0,410.4,404a3.831,3.831,0,0,0-5.1-1.118Z" transform="translate(-393.792 -369.836)" fill="#f14e76"/>
            <path id="Path_78" data-name="Path 78" d="M408.6,418.427a3.006,3.006,0,0,0,2.44.386,3.046,3.046,0,0,0,2.033-1.4,3.006,3.006,0,0,0-2.44-.386A3.046,3.046,0,0,0,408.6,418.427Z" transform="translate(-396.421 -381.462)" fill="#f14e76"/>
            <path id="Path_79" data-name="Path 79" d="M415.4,431.613a2.287,2.287,0,0,0,1.891-.061,2.342,2.342,0,0,0,1.342-1.342,2.576,2.576,0,0,0-3.233,1.4Z" transform="translate(-401.838 -391.904)" fill="#f14e76"/>
            <path id="Path_80" data-name="Path 80" d="M421.4,439.075a1.429,1.429,0,1,0,.793-.874A1.254,1.254,0,0,0,421.4,439.075Z" transform="translate(-406.618 -398.308)" fill="#f14e76"/>
            <path id="Path_81" data-name="Path 81" d="M421.8,444.475a1.429,1.429,0,1,0,.793-.874A1.323,1.323,0,0,0,421.8,444.475Z" transform="translate(-406.937 -402.61)" fill="#f14e76"/>
          </g>
          <path id="Path_82" data-name="Path 82" d="M441.691,401.592c1.891-2.765,3.884-5.47,6-8.072l-.041-.02c-2.176,2.562-4.229,5.225-6.161,7.95a92.57,92.57,0,0,0-5.429,8.5c-.407.712-.793,1.423-1.159,2.155.142.081.285.163.447.244.366-.732.732-1.464,1.118-2.176A87.769,87.769,0,0,1,441.691,401.592Z" transform="translate(-410.155 -358.162)" fill="#f66d75"/>
          <path id="Path_83" data-name="Path 83" d="M499.045,376.4a2.543,2.543,0,0,0-1.871,1.281,2.6,2.6,0,0,0-.264,2.257,2.543,2.543,0,0,0,1.871-1.281A2.481,2.481,0,0,0,499.045,376.4Z" transform="translate(-459.437 -344.539)" fill="#f66d75"/>
          <path id="Path_84" data-name="Path 84" d="M481.744,384.2a2.786,2.786,0,0,0,.02,2.216,2.839,2.839,0,0,0,1.464,1.647,2.786,2.786,0,0,0-.02-2.216A2.9,2.9,0,0,0,481.744,384.2Z" transform="translate(-447.3 -350.753)" fill="#f66d75"/>
          <path id="Path_85" data-name="Path 85" d="M481.7,409.92a2.78,2.78,0,0,0,2.155.488,2.833,2.833,0,0,0,1.952-1.057,3.148,3.148,0,0,0-4.107.569Z" transform="translate(-447.439 -370.372)" fill="#f66d75"/>
          <path id="Path_86" data-name="Path 86" d="M471.4,423.12a2.78,2.78,0,0,0,2.155.488,2.833,2.833,0,0,0,1.952-1.057,2.78,2.78,0,0,0-2.155-.488A2.865,2.865,0,0,0,471.4,423.12Z" transform="translate(-439.234 -380.888)" fill="#f66d75"/>
          <path id="Path_87" data-name="Path 87" d="M464.5,433.72a2.78,2.78,0,0,0,2.155.488,2.834,2.834,0,0,0,1.952-1.057,2.78,2.78,0,0,0-2.155-.488A2.747,2.747,0,0,0,464.5,433.72Z" transform="translate(-433.737 -389.333)" fill="#f66d75"/>
          <path id="Path_88" data-name="Path 88" d="M456.7,445.42a2.78,2.78,0,0,0,2.155.488,2.833,2.833,0,0,0,1.952-1.057,3.147,3.147,0,0,0-4.107.569Z" transform="translate(-427.523 -398.654)" fill="#f66d75"/>
          <path id="Path_89" data-name="Path 89" d="M472.744,395.6a2.786,2.786,0,0,0,.02,2.216,2.839,2.839,0,0,0,1.464,1.647,3.147,3.147,0,0,0-1.484-3.863Z" transform="translate(-440.13 -359.835)" fill="#f66d75"/>
          <path id="Path_90" data-name="Path 90" d="M464.244,407.3a2.786,2.786,0,0,0,.02,2.216,2.839,2.839,0,0,0,1.464,1.647,2.786,2.786,0,0,0-.02-2.216A2.837,2.837,0,0,0,464.244,407.3Z" transform="translate(-433.358 -369.156)" fill="#f66d75"/>
          <path id="Path_91" data-name="Path 91" d="M456.144,419.1a2.786,2.786,0,0,0,.02,2.216,2.839,2.839,0,0,0,1.464,1.647,2.786,2.786,0,0,0-.02-2.216A2.9,2.9,0,0,0,456.144,419.1Z" transform="translate(-426.905 -378.557)" fill="#f66d75"/>
          <path id="Path_92" data-name="Path 92" d="M448.244,430.7a2.786,2.786,0,0,0,.02,2.216,2.839,2.839,0,0,0,1.464,1.647,2.786,2.786,0,0,0-.02-2.216A2.839,2.839,0,0,0,448.244,430.7Z" transform="translate(-420.611 -387.798)" fill="#f66d75"/>
        </g>
        <path id="Path_93" data-name="Path 93" d="M400.226,483.6h10.329a7.259,7.259,0,0,1-.366,11.732h-9.617a7.244,7.244,0,0,1-.346-11.732Z" transform="translate(-380.28 -429.942)" fill="url(#linear-gradient)"/>
        <path id="Path_94" data-name="Path 94" d="M405.14,489.829c-1.017-.183-2.379,1.017-2.745,3.457-.488,4.8,2.562,6.2,4.229,4.982a4.261,4.261,0,0,1-3.091-3.985,6.856,6.856,0,0,1,.386-2.46,6.773,6.773,0,0,1,.447-.915A7.3,7.3,0,0,1,405.14,489.829Z" transform="translate(-384.218 -434.89)" fill="#f8e000" opacity="0.47"/>
        <rect id="Rectangle_8" data-name="Rectangle 8" width="11.407" height="1.118" transform="translate(30.876 54.086) rotate(180)" fill="#0072c5"/>
      </g>
      <g id="Group_8" data-name="Group 8" transform="translate(88.12 14.457)">
        <g id="Group_7" data-name="Group 7" transform="translate(0.976 3.352)">
          <path id="Path_95" data-name="Path 95" d="M452.352,124.594a.59.59,0,0,0,.59-.59v-6.73L439.989,97l20.455-8.275a.593.593,0,0,0-.447-1.1l-21.8,8.8,13.542,21.187v6.364A.625.625,0,0,0,452.352,124.594Z" transform="translate(-438.2 -87.586)" fill="#603e6b"/>
        </g>
        <circle id="Ellipse_2" data-name="Ellipse 2" cx="2.013" cy="2.013" r="2.013" transform="translate(14.721 4.615)" fill="#603e6b"/>
        <circle id="Ellipse_3" data-name="Ellipse 3" cx="1.301" cy="1.301" r="1.301" transform="translate(15.433 5.327)" fill="#f78500"/>
        <ellipse id="Ellipse_4" data-name="Ellipse 4" cx="2.257" cy="2.257" rx="2.257" ry="2.257" transform="translate(0 9.902)" fill="#603e6b"/>
        <circle id="Ellipse_5" data-name="Ellipse 5" cx="1.545" cy="1.545" r="1.545" transform="translate(0.712 10.614)" fill="#f78500"/>
        <circle id="Ellipse_6" data-name="Ellipse 6" cx="2.481" cy="2.481" r="2.481" transform="translate(12.647 30.255)" fill="#603e6b"/>
        <circle id="Ellipse_7" data-name="Ellipse 7" cx="1.769" cy="1.769" r="1.769" transform="translate(13.359 30.967)" fill="#f78500"/>
        <path id="Path_96" data-name="Path 96" d="M481.4,264.711h14.233v-.163a2.95,2.95,0,0,0-2.948-2.948h-8.336a2.95,2.95,0,0,0-2.948,2.948Z" transform="translate(-471.64 -222.866)" fill="#f78500"/>
        <path id="Path_97" data-name="Path 97" d="M538.871,83.646l5.307-4.677L538.3,72.3a3.559,3.559,0,0,0-5-.325h0a3.56,3.56,0,0,0-.325,5Z" transform="translate(-512.032 -71.101)" fill="#f78500"/>
        <path id="Path_98" data-name="Path 98" d="M538.124,73.968a3.514,3.514,0,0,0-3.924-.956,3.726,3.726,0,0,1,.793-1,3.525,3.525,0,0,1,5,.325l5.876,6.669L544,80.657Z" transform="translate(-513.705 -71.121)" fill="#fb9900"/>
      </g>
      <rect id="Rectangle_9" data-name="Rectangle 9" width="1.728" height="55.427" transform="translate(168.658 56.586)" fill="#542360"/>
      <rect id="Rectangle_10" data-name="Rectangle 10" width="26.799" height="44.427" transform="translate(93.671 65.614)" fill="url(#linear-gradient-2)"/>
      <path id="Path_99" data-name="Path 99" d="M592.4,367.127h5.185V322.7H592.4Z" transform="translate(-471.951 -257.086)" fill="url(#linear-gradient-3)"/>
      <path id="Path_100" data-name="Path 100" d="M479.2,346.2h21.776V333.8l-.59,11.834Z" transform="translate(-381.768 -265.929)" fill="#c10008"/>
      <path id="Path_101" data-name="Path 101" d="M477,423.383h21.776V411l-.59,11.834Z" transform="translate(-380.015 -327.432)" fill="#c10008"/>
      <ellipse id="Ellipse_8" data-name="Ellipse 8" cx="1.789" cy="1.098" rx="1.789" ry="1.098" transform="translate(105.667 69.985)" fill="#c10008"/>
      <ellipse id="Ellipse_9" data-name="Ellipse 9" cx="2.013" cy="1.179" rx="2.013" ry="1.179" transform="translate(105.789 88.081)" fill="#c10008"/>
      <rect id="Rectangle_11" data-name="Rectangle 11" width="26.799" height="2.664" transform="translate(93.671 65.614)" fill="#c10008"/>
      <rect id="Rectangle_12" data-name="Rectangle 12" width="5.165" height="2.664" transform="translate(120.469 65.614)" fill="#350042"/>
      <g id="Group_9" data-name="Group 9" transform="translate(104.244 36.03)">
        <rect id="Rectangle_13" data-name="Rectangle 13" width="22.264" height="1.769" transform="translate(2.379 17.649)" fill="#474159"/>
        <path id="Path_102" data-name="Path 102" d="M512.7,178.318l3.416,16.531h21.227L532.707,177.2Z" transform="translate(-512.7 -177.2)" fill="#5e5676"/>
        <path id="Path_103" data-name="Path 103" d="M518.9,188.725l4.229-7.625-1.139.081-3.4,6.1Z" transform="translate(-517.4 -180.307)" fill="#5e5676" opacity="0.36"/>
        <path id="Path_104" data-name="Path 104" d="M522.929,192.706l6.994-12.606-1.993.122-5.531,9.963Z" transform="translate(-520.428 -179.51)" fill="#5e5676" opacity="0.36"/>
        <path id="Path_105" data-name="Path 105" d="M644.6,265.22H633.9V264Z" transform="translate(-609.257 -246.351)" fill="#474159"/>
        <path id="Path_106" data-name="Path 106" d="M611.1,177.2l4.636,17.649,10.7,1.22-10.451-1.4Z" transform="translate(-591.093 -177.2)" fill="#2f2d4d"/>
      </g>
      <rect id="Rectangle_14" data-name="Rectangle 14" width="2.867" height="8.052" transform="translate(105.016 57.562)" fill="#542360"/>
      <rect id="Rectangle_15" data-name="Rectangle 15" width="86.455" height="1.932" transform="translate(88.14 55.63)" fill="#f13f00"/>
      <rect id="Rectangle_16" data-name="Rectangle 16" width="86.455" height="1.22" transform="translate(88.14 54.898)" fill="#ffe000"/>
      <path id="Path_107" data-name="Path 107" d="M585,284.1a.356.356,0,0,0,.02-.1A.272.272,0,0,1,585,284.1Z" transform="translate(-466.056 -226.255)" fill="#e6000e"/>
      <path id="Path_108" data-name="Path 108" d="M583.968,265a10.422,10.422,0,0,1-1.81,1.322s-2.074,1.383-2.074,2.013-.651,2.745-.264,2.745c.346,0,.834-1.688.956-2.115a.356.356,0,0,0,.02-.1.356.356,0,0,1-.02.1c-.122.407-.549,2.054-.264,2.318.3.305.915-2.521.915-2.521s-.346,2.3,0,2.3.468-2.359.854-2.745c.366-.366-.02,1.83.468,1.83s.163-1.749.488-2.074a7.209,7.209,0,0,1,2.155-1.545C585.147,265.651,584.944,265.508,583.968,265Z" transform="translate(-461.831 -211.118)" fill="#fd5e5a"/>
      <path id="Path_109" data-name="Path 109" d="M617.615,119.789c-5.9.834-4.29,20.048-8.56,22.244-2.989,1.545-7.2,5.124-9.455,7.137a3.242,3.242,0,0,1,1.749,2.135c3.843-1.789,11.3-5.246,12.078-6.547,1.017-1.749,5.632-22.325,5.632-22.325S618.347,119.688,617.615,119.789Z" transform="translate(-477.687 -95.431)" fill="#860068"/>
      <g id="Group_10" data-name="Group 10" transform="translate(77.203 11.161)">
        <path id="Path_110" data-name="Path 110" d="M379.973,63.292a9.145,9.145,0,0,1,0-4.189c.061-.285.732-1.057.956-.834s-.346.59-.224,1.342.447.549.63.386c.183-.183.224-5.022.691-5.1.447-.081.285,3.579.346,4.209.081.63.651.427.895.671s.122.407.386.651c.264.264.325.834.183,1.688-.122.834-1.281,2.257-1.281,2.887,0,.122.041,1.139.081,2.115-.63.061-1.3.325-1.891-.081A13.49,13.49,0,0,0,379.973,63.292Z" transform="translate(-379.711 -54.893)" fill="#fd5e5a"/>
        <path id="Path_111" data-name="Path 111" d="M389.148,78.314s-2.155,2.094-1.749,2.521c.407.407,2.135-1.83,2.135-1.83s-1.911,1.952-1.586,2.3c.346.346,1.993-1.322,1.993-1.322s-1.749,1.5-1.444,1.667c.3.183,1.444-1.037,1.444-1.037a1.66,1.66,0,0,0,.1-.712c-.061-.264.041-.386-.02-.549a1.364,1.364,0,0,0-.366-.508C389.6,78.761,389.555,78.171,389.148,78.314Z" transform="translate(-385.796 -73.534)" fill="#fc7575"/>
      </g>
      <path id="Path_112" data-name="Path 112" d="M331.322,91.556c1,.427,3.8,5.409,4.839,8.967a12.441,12.441,0,0,0,2.42,4.758h0c.447.244.956.3,1.139-.549a35.522,35.522,0,0,0,.712-8.784,4.6,4.6,0,0,0,2.867,0c.163,4.27.081,14.68-2.318,14.985-.915.122-2.847-.874-4.29-2.582a37.8,37.8,0,0,1-3.375-4.9L330,93.041S330.325,91.129,331.322,91.556Z" transform="translate(-262.904 -72.891)" fill="#bd3550"/>
      <path id="Path_113" data-name="Path 113" d="M310.587,24.135c.163.2,2.176,4.88,1.728,6.425-.468,1.545-2.094,1.3-3.457,1.3a10.952,10.952,0,0,1-2.359-.244S309.367,22.63,310.587,24.135Z" transform="translate(-244.182 -19.092)" fill="#142060"/>
      <path id="Path_114" data-name="Path 114" d="M285.73,57.442a2.12,2.12,0,0,0-1.1,2.542c.386,1.932-1.2,2.5-1.972,1.728a.917.917,0,0,1,0-1.4s-1.525.834-1,1.993,2.155,1.1,2.155,1.1-2.094-.183-1.81,1.688a2.033,2.033,0,0,0,2.155,1.728s-.935-.834-.346-1.423c.569-.569,1.891,1.423,1.891,1.423s.264,1.139,1.322-.549,3.233-.346,3.233.224,1.789-1.383,1.362-2.359.834-1.179.834-.447c0,0,1.261-1.728-.2-2.257s-1.24-.3-1.24-1.118a5.276,5.276,0,0,0-2.216-3.253C287.824,56.527,285.73,57.442,285.73,57.442Z" transform="translate(-224.307 -45.324)" fill="#0e1640"/>
      <g id="Group_16" data-name="Group 16" transform="translate(0 1.992)">
        <path id="Path_115" data-name="Path 115" d="M70.794,543.488a2.163,2.163,0,0,1-.285-1.4l-2.318-.285-.407,1.627-.285,1.3,7.543.468S71.262,543.976,70.794,543.488Z" transform="translate(-53.778 -433.63)" fill="#003c55"/>
        <path id="Path_116" data-name="Path 116" d="M79.683,324.76c0-.488-3.172-28.913-3.172-28.913L67.3,294.2l5.409,30.316-5,20.028,3.375.427C72.424,340.742,79.683,325.207,79.683,324.76Z" transform="translate(-53.618 -236.373)" fill="#a7876d"/>
        <path id="Path_117" data-name="Path 117" d="M48.9,545.146h9.455s-6.14-1.85-6.628-3.558a2.232,2.232,0,0,1-.041-.488,14.68,14.68,0,0,1-1.871.122l.081.63Z" transform="translate(-38.959 -433.072)" fill="#155671"/>
        <path id="Path_118" data-name="Path 118" d="M36.207,272.286,25.288,267l-.488,8.336,3.9,47.945c.63,0,3.375-.468,4.006-.569C32.608,317.3,36.207,272.286,36.207,272.286Z" transform="translate(-19.76 -214.704)" fill="#dfb391"/>
        <path id="Path_119" data-name="Path 119" d="M34.182,101.874a26.036,26.036,0,0,1,4.9,10.715c.488,2.765-.752,9.617-.569,16.348a111.5,111.5,0,0,0,1.81,16.246s-8.377.264-13.46-4.819c-5.1-5.1-5.409,3.253-5.409,3.253a49.5,49.5,0,0,1-.854-8.336c0-4.046.366-31.556,8.479-33.244C32.678,101.3,34.182,101.874,34.182,101.874Z" transform="translate(-16.414 -82.984)" fill="#a066ac"/>
        <path id="Path_120" data-name="Path 120" d="M39.606,297.224l.285,3.884L36.8,300.4s1.281-2.725.407-3.6c-.02-.02,2.379.366,2.379.366A.157.157,0,0,1,39.606,297.224Z" transform="translate(-29.32 -238.442)" fill="#fc7575"/>
        <g id="Group_11" data-name="Group 11" transform="translate(6.354 61.523)">
          <path id="Path_121" data-name="Path 121" d="M37.55,315.109c.183-.244-.264-.386-.569-.671-2.033-1.566-3.843-1.566-5.49-2.054a.187.187,0,0,0-.224.142c-.081.325.407.2,2.42.752a8.706,8.706,0,0,1,3.6,1.85A.217.217,0,0,0,37.55,315.109Z" transform="translate(-31.259 -312.381)" fill="#a7876d"/>
        </g>
        <path id="Path_122" data-name="Path 122" d="M12.31,105.64c2.3,2.3,2.135,9.536-.529,14.233s-4.29,6.486-4.29,9.556c0,2.969,3.4,14.518,3.6,15.209h-3.4c-.915-1.1-6.1-12.322-7.543-16.47C-1.313,123.981,9.1,102.448,12.31,105.64Z" transform="translate(-0.01 -85.897)" fill="#b385bd"/>
        <path id="Path_123" data-name="Path 123" d="M41.6,106.9c2.237,2.6,1.484,8.763.142,12.179-1.606,4.168-5.1,7.442-4.961,11.61.407-5.754,6.567-8.621,6.608-17.75C43.412,110.967,43.026,108.222,41.6,106.9Z" transform="translate(-29.303 -87.157)" fill="#e684fa"/>
        <g id="Group_15" data-name="Group 15" transform="translate(10.447)">
          <path id="Path_124" data-name="Path 124" d="M62.689,64.2a45.763,45.763,0,0,0-.142,8.153,2.588,2.588,0,0,0,1.24,1.932c1.4.834,3.823,2.074,4.738,1.139l-1.159-7.686Z" transform="translate(-60.166 -53.139)" fill="#ff8585"/>
          <path id="Path_125" data-name="Path 125" d="M63.641,64.2l4.677,3.538.59,3.9c-4.006-.264-5.124-6.527-5.307-6.994C63.62,64.363,63.641,64.2,63.641,64.2Z" transform="translate(-61.117 -53.139)" fill="#fd5e5a"/>
          <path id="Path_126" data-name="Path 126" d="M63.66,28.881a1.431,1.431,0,0,1,.244.3,7.625,7.625,0,0,1,.793,4.189c-.163,2.359-.285,7.32-2.013,7.625s-4.453-1.647-5.144-4.433-2.135-3.985-1.484-6.323C56.706,27.885,63.66,28.881,63.66,28.881Z" transform="translate(-54.976 -24.835)" fill="#ff8585"/>
          <g id="Group_12" data-name="Group 12" transform="translate(0.915 3.836)">
            <path id="Path_127" data-name="Path 127" d="M63.66,28.874s-6.954-1-7.6,1.342.793,3.538,1.484,6.323c.488-.488.976-.895.956-3.477.529-1.81,1.688-1.749,1.871-2.542A2.436,2.436,0,0,1,62.277,31.8a6.705,6.705,0,0,0,2.359,2.623c.02-.386.041-.752.061-1.057C64.839,31.334,64.189,29.28,63.66,28.874Z" transform="translate(-55.891 -28.663)" fill="#fd5e5a"/>
            <path id="Path_128" data-name="Path 128" d="M63.843,67.117c-.122-.264.081.3,0,0Z" transform="translate(-62.194 -59.241)" fill="#fd5e5a"/>
          </g>
          <g id="Group_13" data-name="Group 13" transform="translate(7.83 9.714)">
            <path id="Path_129" data-name="Path 129" d="M90,60.406l.976-.183-.447-2.562c0-.061-.061-.1-.1-.081-.061,0-.081.061-.081.122l.427,2.379-.793.142c-.061,0-.081.061-.081.122A.078.078,0,0,0,90,60.406Z" transform="translate(-89.9 -57.574)" fill="#2b3278"/>
          </g>
          <ellipse id="Ellipse_10" data-name="Ellipse 10" cx="0.407" cy="0.529" rx="0.407" ry="0.529" transform="translate(6.648 9.25) rotate(-10.043)" fill="#2b3278"/>
          <ellipse id="Ellipse_11" data-name="Ellipse 11" cx="0.346" cy="0.488" rx="0.346" ry="0.488" transform="translate(8.768 9.236) rotate(-10.056)" fill="#2b3278"/>
          <g id="Group_14" data-name="Group 14" transform="translate(5.977 13.837)">
            <path id="Path_130" data-name="Path 130" d="M82.414,78.592a1.415,1.415,0,0,0,.325-.1.091.091,0,0,0-.081-.163,1.487,1.487,0,0,1-1.728-.447c-.041-.041-.1-.041-.122,0-.041.041-.02.1,0,.142A1.827,1.827,0,0,0,82.414,78.592Z" transform="translate(-80.785 -77.85)" fill="#2b3278"/>
          </g>
          <path id="Path_131" data-name="Path 131" d="M81.093,49.064a1.625,1.625,0,0,0-1.118-.325c-.569.1-.874.874-.874.874s.325-.651.813-.63a3.611,3.611,0,0,1,1.22.407Z" transform="translate(-73.466 -40.809)" fill="#2b3278"/>
          <path id="Path_132" data-name="Path 132" d="M54.91,18.034a8.857,8.857,0,0,1,.874-2.176,1.3,1.3,0,0,0,.2-1.281s2.257.02,3.172,1.5c.915,1.5,2.094,3.721,4.311,2.237s1.2-4.778.63-4.677a1.813,1.813,0,0,1-1.159-.3s-2.562-2.7-3.64-2.521-.325-1.037-2.2-1.017S54.1,11.832,54.1,11.832s-.956-.813-2.2.386.081,4.8.793,6.018a12.76,12.76,0,0,1,1.139,3.355S55.561,21.694,54.91,18.034Z" transform="translate(-51.391 -9.799)" fill="#710066"/>
          <path id="Path_133" data-name="Path 133" d="M63.4,45.384A.724.724,0,0,1,64.722,45a1.364,1.364,0,0,1,.264,1.627C64.274,47.723,63.4,46.584,63.4,45.384Z" transform="translate(-60.958 -37.597)" fill="#ff8585"/>
          <path id="Path_134" data-name="Path 134" d="M67.068,47.692c-.061-.264-.488-1.037-.854-.671-.366.346-.508,1.4.2,1.484C67.108,48.567,67.129,47.957,67.068,47.692Z" transform="translate(-62.959 -39.376)" fill="#fd5e5a"/>
        </g>
      </g>
      <path id="Path_135" data-name="Path 135" d="M373.663,511.851c-.61-1.606-.956-4.026-1.728-7.279-.081-.386-.305-1.322-.447-1.972a19.361,19.361,0,0,0-2.887.732,21.318,21.318,0,0,1,.915,2.765c.061.915-.224,1.017-.224,1.017a7.148,7.148,0,0,0,.834,3.619c.427.427.895,2.521,1.3,2.521s3.8.366,3.8.366C375.31,512.827,374.273,513.458,373.663,511.851Z" transform="translate(-293.656 -400.408)" fill="#fd5e5a"/>
      <path id="Path_136" data-name="Path 136" d="M292.751,517.623a50.923,50.923,0,0,1-.569-6.628,13.064,13.064,0,0,0-2.745.366c.081.427.244,1.179.244,1.3,0,1.139-.569.712-.773,1.545a3.147,3.147,0,0,0,.407,1.586c.793,0,1.118,2.786,1.5,3.6.224.468,1.22.691,2.379.691.895,0,.732-.224.081-1.383A4.432,4.432,0,0,1,292.751,517.623Z" transform="translate(-230.148 -407.094)" fill="#fc7575"/>
      <g id="Group_17" data-name="Group 17" transform="translate(55.794 39.832)">
        <path id="Path_137" data-name="Path 137" d="M313.893,233.7c-.122-.488-3.233-26.921-4.412-36.68l-6.3-.224L300.9,209.2l7.076,28.14a20,20,0,0,0,.59,7.665c.63,2.725,3.213,11.813,4.758,15.982.834-.447,3.6-1.342,4.493-1.647C314.34,237.526,315.092,238.807,313.893,233.7Z" transform="translate(-295.515 -196.617)" fill="#6a0352"/>
        <path id="Path_138" data-name="Path 138" d="M281.631,235.691l5.266-29.645-.63-10.146H281.1s-5.165,5.591-6.344,12.667c-1.159,7.076,1,27.246,1,27.246A37.226,37.226,0,0,1,275,240.53c-.549,2.277.407,16.51,1.037,20.272a39.192,39.192,0,0,1,4.839-.325c-.346-7.564-.63-19.438-.122-20.658A20.6,20.6,0,0,0,281.631,235.691Z" transform="translate(-274.416 -195.9)" fill="#8a6666"/>
        <path id="Path_139" data-name="Path 139" d="M310.64,197.364l-8.54-.183,1.057-1.281h7.482Z" transform="translate(-296.471 -195.9)" fill="#8a6666"/>
      </g>
      <path id="Path_140" data-name="Path 140" d="M301.768,89.6s-1.891-1.464-8.275-.122c-.3.061-.793,7.4-.793,7.4s2.135,11.488,1.525,14.518c0,0,4.493,3.721,9.821,1.139,0,0-.651-9.577-.163-11.712s1.464-4.067.1-6.283A24.9,24.9,0,0,1,301.768,89.6Z" transform="translate(-233.188 -70.836)" fill="#fc466a"/>
      <path id="Path_141" data-name="Path 141" d="M337.3,92.3a22.861,22.861,0,0,0,2.155,5.51c.854,1.911.061,3.579-.407,5.531-.529,2.481.122,9.231.529,11.895.081-5.388-.163-9.983.244-11.712.2-.935.549-1.891.691-2.908C340.9,97.729,339.659,97.892,337.3,92.3Z" transform="translate(-268.72 -73.533)" fill="#fd90a6"/>
      <path id="Path_142" data-name="Path 142" d="M288.433,522c.346,2.094,1.688,5.795,2.521,6.283,1.525.183,1.159-.061,1.139-.793.671,1.139,1.423,1.728.529,1.728-1.139,0-2.928.061-3.152-.407-.386-.813-.59-3.884-1.383-3.884l.244,3.782-.407.02s-.61-5.205-.488-5.734A1.613,1.613,0,0,1,288.433,522Z" transform="translate(-228.982 -415.863)" fill="#393644"/>
      <path id="Path_143" data-name="Path 143" d="M374.675,530.269c.793.752,2.013.59,1.932,1.22,0,0-4.392-.183-4.8-.183s-.752-2.481-1.159-2.887c-.427-.427-.163,2.887-.163,2.887h-.427a34.5,34.5,0,0,0-.691-4.737,1.434,1.434,0,0,1,.468-1.769C371.158,527.321,371.361,530.859,374.675,530.269Z" transform="translate(-294.18 -418.094)" fill="#393644"/>
      <path id="Path_144" data-name="Path 144" d="M309.857,60.332c.142.142-.447,4.392.142,5.571,0,0,1.545,6.079.488,6.2-.915.1-4.229-4.9-4.412-5.734a61.7,61.7,0,0,1,0-6.771Z" transform="translate(-243.757 -47.482)" fill="#fc7575"/>
      <path id="Path_145" data-name="Path 145" d="M310.141,61.9c-1.4,1.261-3.294.671-3.741-1.545.02-.793.02-.712.02-.752l3.782.732A7.689,7.689,0,0,1,310.141,61.9Z" transform="translate(-244.103 -47.482)" fill="#fd5e5a"/>
      <path id="Path_146" data-name="Path 146" d="M304.973,16s1.769.346,1.972,1.85a13.438,13.438,0,0,1,.2,4.555c-.285,1.769-1.342,4.128-3.07,4.514s-3.538-2.481-3.538-4.046-.63-4.168.549-5.774S304.973,16,304.973,16Z" transform="translate(-239.301 -12.687)" fill="#fc7575"/>
      <g id="Group_18" data-name="Group 18" transform="translate(63.66 11.468)">
        <path id="Path_147" data-name="Path 147" d="M313.1,56.4a7.01,7.01,0,0,0,2.318.407,3.113,3.113,0,0,1-.264.386,7.386,7.386,0,0,1-1.85-.325A4.988,4.988,0,0,1,313.1,56.4Z" transform="translate(-313.1 -56.4)" fill="#fff"/>
        <path id="Path_148" data-name="Path 148" d="M314.1,58.7a7.386,7.386,0,0,0,1.85.325C315.279,59.818,314.588,59.635,314.1,58.7Z" transform="translate(-313.897 -58.232)" fill="#2e0a29"/>
      </g>
      <path id="Path_149" data-name="Path 149" d="M313.741,14.45s1.769.346,1.972,1.85A15.674,15.674,0,0,1,316,20.367a3.21,3.21,0,0,0-1.24-.569c-1.688-.366-2.969-2.847-3.375-4.7a1.31,1.31,0,0,1,.264-.956A2.017,2.017,0,0,1,313.741,14.45Z" transform="translate(-248.068 -11.136)" fill="#fd5e5a"/>
      <g id="Group_19" data-name="Group 19" transform="translate(64.798 8.987)">
        <path id="Path_150" data-name="Path 150" d="M319.574,45.664c-.041-.488-.081-.976-.081-1.464a11.873,11.873,0,0,1,.163,1.525,1.358,1.358,0,0,1-.956.061A1.765,1.765,0,0,0,319.574,45.664Z" transform="translate(-318.7 -44.2)" fill="#172866"/>
      </g>
      <path id="Path_151" data-name="Path 151" d="M310.572,41.465a.925.925,0,0,0-.651-.63c-.569-.142-.935.671-1.322.671.285.142.732-.346,1.057-.468a.6.6,0,0,1,.488.061A1.211,1.211,0,0,1,310.572,41.465Z" transform="translate(-245.855 -32.518)" fill="#172866"/>
      <ellipse id="Ellipse_12" data-name="Ellipse 12" cx="0.285" cy="0.325" rx="0.285" ry="0.325" transform="translate(63.68 8.357)" fill="#172866"/>
      <path id="Path_152" data-name="Path 152" d="M324.6,42.463a.967.967,0,0,1,.671-.61c.59-.122.895.732,1.3.732-.285.142-.732-.366-1.037-.508a.523.523,0,0,0-.488.041A1.33,1.33,0,0,0,324.6,42.463Z" transform="translate(-258.602 -33.334)" fill="#172866"/>
      <ellipse id="Ellipse_13" data-name="Ellipse 13" cx="0.325" cy="0.285" rx="0.325" ry="0.285" transform="translate(66.482 9.207) rotate(-87.414)" fill="#172866"/>
      <path id="Path_153" data-name="Path 153" d="M310.3,34.895a1.423,1.423,0,0,0-1.037-.61,1.95,1.95,0,0,0-1.261.61s.895-.529,1.261-.366C309.647,34.712,309.952,35.139,310.3,34.895Z" transform="translate(-245.377 -27.311)" fill="#172866"/>
      <path id="Path_154" data-name="Path 154" d="M292.754,9.847c-1.281.142-3.335-.163-4.29,1.932-.569,1.2-1.464.346-1.464,4.453,0,6.1,3.945,4.433,3.945,4.433s-.386-.285-.63-3.579l.02.02s-.02-.488-.02-1.118h0a2.66,2.66,0,0,0,0-.569,12.171,12.171,0,0,1,.122-1.647,2.328,2.328,0,0,1,1.5-1.993c.935-.427,4.25.813,4.25.813A3.186,3.186,0,0,0,292.754,9.847Z" transform="translate(-228.647 -7.834)" fill="#1b2b80"/>
      <path id="Path_155" data-name="Path 155" d="M313.982,11.438c1.627.366,2.115,2.847,3.436,4.168s1,3.233.366,4.514a1.026,1.026,0,0,1-1.647.447s.529.285.874-.752c.346-1.057-.244-1.871-2.033-2.46s-3.5-4.311-3.5-4.311A1.886,1.886,0,0,1,313.982,11.438Z" transform="translate(-248.147 -9.059)" fill="#2f499f"/>
      <path id="Path_156" data-name="Path 156" d="M315.977,26.943c.61.366,1.484-1.139.854-2.135a4.649,4.649,0,0,0-2.277-1.423c-1.281-.732-2.5-2.765-3.253-3.985.549,1.484,1.688,3.518,3.07,4.331l.325.142a3.91,3.91,0,0,1,1.871,1.1,1.634,1.634,0,0,1-.061,1.749A.432.432,0,0,1,315.977,26.943Z" transform="translate(-248.006 -15.455)" fill="#023135"/>
      <path id="Path_157" data-name="Path 157" d="M299.221,40.5s-.447-1.952-1.2-1.484.061,2.643.752,2.643C299.485,41.66,299.221,40.5,299.221,40.5Z" transform="translate(-237.188 -31.026)" fill="#fc7575"/>
      <path id="Path_158" data-name="Path 158" d="M300,41.139s1.1,1.769.346,1.586C299.573,42.522,299.289,40.814,300,41.139Z" transform="translate(-238.679 -32.742)" fill="#fd5e5a"/>
      <ellipse id="Ellipse_14" data-name="Ellipse 14" cx="0.447" cy="0.854" rx="0.447" ry="0.854" transform="translate(62.349 9.954) rotate(-71.518)" fill="#fd5e5a"/>
      <ellipse id="Ellipse_15" data-name="Ellipse 15" cx="0.712" cy="0.407" rx="0.712" ry="0.407" transform="translate(66.23 9.771) rotate(-8.667)" fill="#fd5e5a"/>
      <g id="Group_22" data-name="Group 22" transform="translate(27.518)">
        <path id="Path_159" data-name="Path 159" d="M178.483,292.783s3.8,38.775,4.738,42.922v2.623H190.5a1.618,1.618,0,0,0-1.261-.874,7.006,7.006,0,0,1-3.477-1.606c-.569-.651.366-54.248.366-54.248H177.1Z" transform="translate(-168.611 -224.343)" fill="#49255d"/>
        <path id="Path_160" data-name="Path 160" d="M156.9,284.855l-2.4,4.026s-8.987,35.908-8.54,47.68c0,0,.854,1.4,3.863,2.216.163.041.325.59.325.59H142.3l.447-2.379s.244-40.076.244-44.752a64.123,64.123,0,0,1,1.261-10.736h13.155Z" transform="translate(-140.887 -224.263)" fill="#6d517d"/>
        <path id="Path_161" data-name="Path 161" d="M137.86,104.191A3.565,3.565,0,0,0,135.6,107.2c-.691,3.579-.081,17.872,3.172,21.126,2.176,2.176,3.172-7.543,3.172-7.543l2.135-2.725S138.511,103.988,137.86,104.191Z" transform="translate(-135.349 -83.005)" fill="#692204"/>
        <path id="Path_162" data-name="Path 162" d="M223.337,110.1s1.179.752,2.074,4.392a99.744,99.744,0,0,1,1.667,13.46c.041,1.1-3.5,2.847-3.5,2.847L222.3,113.577Z" transform="translate(-204.62 -87.714)" fill="#692204"/>
        <path id="Path_163" data-name="Path 163" d="M145.194,107.877s2.318,10.512,1.789,13.237S143.1,139.6,143.1,139.6h18.076s.63-17.323,0-21.329c-.63-3.985-.3-12.606-.834-14.4s-14.924-2.176-16.287-1.362Z" transform="translate(-141.524 -81.343)" fill="#b73e6b"/>
        <path id="Path_164" data-name="Path 164" d="M169.9,203.036a40.735,40.735,0,0,0-4.677.224s-10-.407-10.065-.122c-.224,1.139-.61,2.908-1.362,6.466a.7.7,0,0,0,.468.2c.915,0,7.421-4.128,7.421-4.128a66.693,66.693,0,0,0,8.255,1.2C169.965,205.11,169.944,204.479,169.9,203.036Z" transform="translate(-150.048 -161.74)" fill="#ad306f" opacity="0.36"/>
        <path id="Path_165" data-name="Path 165" d="M205.588,183.646l2.216.061s.529-.732.834-.854a1.574,1.574,0,0,1,1.586.671,8.03,8.03,0,0,1,.61,2.013c.1.386-.895.2-1.5.2s-4.229.427-4.229.427Z" transform="translate(-190.918 -145.644)" fill="#fc7575"/>
        <path id="Path_166" data-name="Path 166" d="M149.3,176.163a1.228,1.228,0,0,1-.163-.142c-.366-.325-1.362-1.2-2.155-1.993-1.017-1.017-2.42-2.176-2.42-1.647s2.643,2.5,2.42,2.745c-.224.224-3.03-1.5-2.826-.915.183.59,3.009,1.667,2.562,1.85s-2.013-.732-2.013-.264,3.091,1.525,4.026,1.525C149.649,177.322,149.3,176.163,149.3,176.163Z" transform="translate(-142.359 -137.226)" fill="#fc7575"/>
        <path id="Path_167" data-name="Path 167" d="M192.6,197.716c.325,0,9.821,1.688,10.553.569a14.718,14.718,0,0,0,.244-2.847c-.061-.935-7.747-.549-7.747-.549Z" transform="translate(-180.959 -155.201)" fill="#692204"/>
        <path id="Path_168" data-name="Path 168" d="M148.357,187.241a4.318,4.318,0,0,1,2.887-2.664c2.277-.447,9.516-1.078,9.516-1.078v3.294s-9.414,5.144-10.959,5.144S147.889,188.034,148.357,187.241Z" transform="translate(-145.561 -146.189)" fill="#ed4298"/>
        <path id="Path_169" data-name="Path 169" d="M184.731,67.315l-.569,5.734a2.011,2.011,0,0,1-1.952,1.993c-.244-.02-.508-.041-.773-.081a2.543,2.543,0,0,1-2.277-2.867,53.274,53.274,0,0,0,1.1-7.116C180.278,62.11,184.731,65.851,184.731,67.315Z" transform="translate(-170.223 -50.927)" fill="#fc7575"/>
        <path id="Path_170" data-name="Path 170" d="M183.785,65.03c-.02-2.887,4.433.854,4.433,2.338l-.325,3.355a11.469,11.469,0,0,1-2.3-.63c-1.2-.488-2.054-2.46-2.094-2.5A17.181,17.181,0,0,0,183.785,65.03Z" transform="translate(-173.71 -50.96)" fill="#fd5e5a"/>
        <path id="Path_171" data-name="Path 171" d="M216.178,33.9c-1.3.813-3.823,1.993-4.778.793.834,1.362,3.64.468,5.1-.2Z" transform="translate(-195.937 -27.007)" fill="#0f1d5b"/>
        <path id="Path_172" data-name="Path 172" d="M213.264,49.571s1.586-1.179,1.322-.142-1.057,3.233-1.911,2.379C211.84,50.933,213.264,49.571,213.264,49.571Z" transform="translate(-196.743 -39.038)" fill="#fd5e5a"/>
        <path id="Path_173" data-name="Path 173" d="M178.984,27.2c.224.2,2.582.041,3.355,2.46s-.122,7.97-1.627,9.455-3.213.549-4.555-1.952c-1.322-2.5-3.924-5.734-2.013-8.133C175.161,27.79,178.984,27.2,178.984,27.2Z" transform="translate(-165.716 -21.67)" fill="#fc7575"/>
        <path id="Path_174" data-name="Path 174" d="M178.375,14.017c.224,1.281,1.484,3.03,4.534,1.118s2.44-4.331,2.44-4.331S183.8,12.8,182.869,12.37s-.264-2.806-.264-2.806-3.436-.264-4.087-.264-1.3,1.993-1.3,1.993.447-.895-2.948-1.2-1.4,4.738-1.789,6.486,1.911,4.839,1.911,5.856a2.764,2.764,0,0,1-.549,1.667s.732.163,1.383-1.627-.529-4.433-.529-5.774a2.975,2.975,0,0,1,1.484-2.765C176.688,13.57,178.172,12.736,178.375,14.017Z" transform="translate(-164.742 -7.409)" fill="#0f1d5b"/>
        <path id="Path_175" data-name="Path 175" d="M179.161,50.259s1.037,2.013.3,1.871a2.451,2.451,0,0,1-1.85-2.643C177.921,48.043,179.161,50.259,179.161,50.259Z" transform="translate(-168.984 -39.035)" fill="#fc7575"/>
        <path id="Path_176" data-name="Path 176" d="M180.682,53.969c-.163-.244-.773-.732-1.017-.468-.59.59,1.362,2.277,1.362,1.83A2.753,2.753,0,0,0,180.682,53.969Z" transform="translate(-170.566 -42.562)" fill="#fd5e5a"/>
        <ellipse id="Ellipse_16" data-name="Ellipse 16" cx="0.468" cy="0.63" rx="0.468" ry="0.63" transform="translate(13.145 9.841)" fill="#2f499f"/>
        <ellipse id="Ellipse_17" data-name="Ellipse 17" cx="0.468" cy="0.63" rx="0.468" ry="0.63" transform="translate(15.85 9.841)" fill="#2f499f"/>
        <g id="Group_20" data-name="Group 20" transform="translate(12.557 14.361)">
          <path id="Path_177" data-name="Path 177" d="M198.163,71.5a2.33,2.33,0,0,1-.834-.813.119.119,0,0,0-.2.122,2.351,2.351,0,0,0,2.216,1.017.02.02,0,0,0-.02-.02A2.512,2.512,0,0,1,198.163,71.5Z" transform="translate(-197.107 -70.632)" fill="#2f499f"/>
        </g>
        <path id="Path_178" data-name="Path 178" d="M198.317,40.866l.142.407a1.132,1.132,0,0,0-1.159.325S197.747,40.765,198.317,40.866Z" transform="translate(-184.704 -32.55)" fill="#2f499f"/>
        <path id="Path_179" data-name="Path 179" d="M214.534,42.73a2,2,0,0,0-.834-.325l.183-.3S214.534,42.385,214.534,42.73Z" transform="translate(-197.769 -33.54)" fill="#2f499f"/>
        <g id="Group_21" data-name="Group 21" transform="translate(14.443 9.475)">
          <path id="Path_180" data-name="Path 180" d="M207.5,51.217a8.009,8.009,0,0,0-.163-4.534.116.116,0,0,0-.224.061,10.137,10.137,0,0,1,.224,4.229c-.671-.1-.915-.264-.956-.081S206.629,50.993,207.5,51.217Z" transform="translate(-206.382 -46.602)" fill="#2f499f"/>
        </g>
        <path id="Path_181" data-name="Path 181" d="M198.47,0a2.934,2.934,0,0,0-2.521,1.3,3.327,3.327,0,0,0-.325,1.972l.122.63.224-.041a5.841,5.841,0,0,1,0-1.22,2.137,2.137,0,0,1,2.5-1.891Z" transform="translate(-183.352)" fill="#0f1d5b"/>
      </g>
      <path id="Path_182" data-name="Path 182" d="M275.038,223.85c-.122-.122-1.261-1.789-1.5-1.545s1,1.769,1,1.769-1.444-1.464-1.728-1.179,1.932,2.257,2.155,2.257C275.2,225.151,275.038,223.85,275.038,223.85Z" transform="translate(-217.315 -177.085)" fill="#fd5e5a"/>
      <path id="Path_183" data-name="Path 183" d="M278.284,212.1s.61.935.163,1.383-.2.915-.508,1.22-1.667.346-1.667.346a9.508,9.508,0,0,0-.773-2.826,9.646,9.646,0,0,0-1.1-1.545,17.409,17.409,0,0,1,1.891-1.078C277.409,211.064,278.263,212.06,278.284,212.1Z" transform="translate(-218.609 -166.983)" fill="#fc7575"/>
      <path id="Path_184" data-name="Path 184" d="M246,91.688s0,5.673-.793,7.4c-.773,1.688-6.689,2.033-7.462,5.449-.569,2.542,3.172,7.93,5.632,11.122a18.055,18.055,0,0,1-2.216,2.013c-2.5-3.172-7.93-10.634-8.072-12.383C232.884,103.135,242.644,91.464,246,91.688Z" transform="translate(-185.694 -73.042)" fill="#f85c73"/>
      <g id="Group_30" data-name="Group 30" transform="translate(129.456 3.872)">
        <path id="Path_185" data-name="Path 185" d="M701.564,548.286l.366,1.972a13.035,13.035,0,0,1-2.318,4.412c-1.4,1.4-4.412,1.484-4.412.3,0-1.2,3.151-4.9,3.151-6.323C698.331,547.208,701.564,548.286,701.564,548.286Z" transform="translate(-683.305 -440.368)" fill="#223b7c"/>
        <path id="Path_186" data-name="Path 186" d="M645.423,543.772l.529,3.639H636.7s.305-.895,2.989-1.423,2.806-1.545,2.806-1.545l-.183-2.277,2.44-.366Z" transform="translate(-636.7 -435.509)" fill="#223b7c"/>
        <path id="Path_187" data-name="Path 187" d="M655.118,293.1l-8.174,30.072,1.993,23.139h-3.518L640.6,321.83l4.819-28Z" transform="translate(-639.807 -237.376)" fill="#1b2e96"/>
        <path id="Path_188" data-name="Path 188" d="M677,284.928V292.8s5.653,19.6,6.445,29.035a83.054,83.054,0,0,1,0,15.88l4.453.712s2.562-19.58,1.606-26.128c-.956-6.567.2-22.549.2-22.549l-1.586-6.547Z" transform="translate(-668.806 -229.489)" fill="#7c8bde"/>
        <g id="Group_26" data-name="Group 26" transform="translate(4.586)">
          <path id="Path_189" data-name="Path 189" d="M673.76,113.819a11.185,11.185,0,0,0-8.621.813c-4.128,2.135-6.039,26.86-5.876,35.887,6.486,1.362,17.466,2.5,17.466,2.5L675.1,135.961l1.057-8.438C676.159,127.544,678.456,115.649,673.76,113.819Z" transform="translate(-659.253 -94.145)" fill="#c20095"/>
          <path id="Path_190" data-name="Path 190" d="M690.631,80.124a30.575,30.575,0,0,0,.183,4.819c.285.956,3.009,1.749,4.27.468s.651-10.41.651-10.41Z" transform="translate(-684.237 -63.622)" fill="#fc7575"/>
          <path id="Path_191" data-name="Path 191" d="M695.826,77.3c-.041-1.281-.1-2.2-.1-2.2l-5.1,5.124s-.02.813-.02,1.769a3.8,3.8,0,0,0,2.46-.61C694.341,80.671,695.256,78.862,695.826,77.3Z" transform="translate(-684.226 -63.702)" fill="#fd5e5a"/>
          <path id="Path_192" data-name="Path 192" d="M680.2,40.611a4.615,4.615,0,0,0-2.338,2.582,13.618,13.618,0,0,0-.508,8.255c.427,1.179,1.606,1.647,3.68.915,2.074-.752,3.8-3.823,4.412-5.144C686.072,45.9,685.584,40.184,680.2,40.611Z" transform="translate(-673.334 -36.207)" fill="#fc7575"/>
          <path id="Path_193" data-name="Path 193" d="M668.125,26.637a2.31,2.31,0,0,1-2.237,1.037c-1.362-.3-.854-1.484-1.2-2.481s-3.05-4.351,1.139-5.876c4.209-1.525,4.819,3.762,6.181,3.721s4.005-.915,4.351,1.159-.915,2.176-.224,3.213c.691,1.057-1.179,2.4-1.545,2.948s-1.789.163-1.078-1.362c.712-1.5-.508-2.928-.834-2.216-.142.325-1.4,1.179-1.972.366-.569-.834-1.322.041-1.952.081A.588.588,0,0,1,668.125,26.637Z" transform="translate(-662.646 -19.041)" fill="#5c2c55"/>
          <path id="Path_194" data-name="Path 194" d="M713.9,71.921c.1-.244.02-2.481,1.261-1.993s.61,2.664-.447,2.725S713.9,71.921,713.9,71.921Z" transform="translate(-702.773 -59.526)" fill="#fc7575"/>
          <path id="Path_195" data-name="Path 195" d="M715.413,73.662s.325-.956.793-.59c.468.346-.041,1.627-.59,1.667C715.027,74.8,715.413,73.662,715.413,73.662Z" transform="translate(-703.895 -62.02)" fill="#fd5e5a"/>
          <g id="Group_25" data-name="Group 25" transform="translate(4.094 8.629)">
            <ellipse id="Ellipse_18" data-name="Ellipse 18" cx="0.549" cy="0.366" rx="0.549" ry="0.366" transform="translate(2.172 2.391) rotate(-87.94)" fill="#2f499f"/>
            <ellipse id="Ellipse_19" data-name="Ellipse 19" cx="0.549" cy="0.366" rx="0.549" ry="0.366" transform="translate(0 2.319) rotate(-87.94)" fill="#2f499f"/>
            <g id="Group_23" data-name="Group 23" transform="translate(1.425 5.248)">
              <path id="Path_196" data-name="Path 196" d="M687.376,88.006a1.743,1.743,0,0,0,.691-.671c.061-.1.224,0,.163.1a1.862,1.862,0,0,1-.813.671,1.774,1.774,0,0,1-1.017.142.02.02,0,0,1,.02-.02A1.911,1.911,0,0,0,687.376,88.006Z" transform="translate(-686.4 -87.293)" fill="#2f499f"/>
            </g>
            <path id="Path_197" data-name="Path 197" d="M691.822,61.485l-.122.346a.828.828,0,0,1,.915.325C692.635,62.136,692.29,61.424,691.822,61.485Z" transform="translate(-689.197 -61.482)" fill="#2f499f"/>
            <path id="Path_198" data-name="Path 198" d="M679.6,62.8a1.485,1.485,0,0,1,.691-.244l-.142-.264C680.149,62.275,679.6,62.5,679.6,62.8Z" transform="translate(-679.557 -62.129)" fill="#2f499f"/>
            <g id="Group_24" data-name="Group 24" transform="translate(0.738 0.954)">
              <path id="Path_199" data-name="Path 199" d="M683.156,70.143a7.476,7.476,0,0,1,.264-3.9c.041-.122.2-.061.183.061a8.967,8.967,0,0,0-.3,3.64c.549-.061.752-.2.773-.041C684.092,70.042,683.848,69.981,683.156,70.143Z" transform="translate(-683.018 -66.173)" fill="#2f499f"/>
            </g>
          </g>
        </g>
        <g id="Group_29" data-name="Group 29" transform="translate(16.205 60.278)">
          <g id="Group_27" data-name="Group 27">
            <path id="Path_200" data-name="Path 200" d="M718.738,359.866h0c-.122-.02-.2-.1-.183-.2l.264-2.6a.182.182,0,0,1,.2-.163.216.216,0,0,1,.183.2l-.264,2.6A.214.214,0,0,1,718.738,359.866Zm.529-5.185h0c-.122-.02-.2-.1-.183-.2l.264-2.6a.184.184,0,1,1,.366.041l-.264,2.6A.179.179,0,0,1,719.267,354.681Zm.529-5.185h0a.192.192,0,0,1-.183-.224l.2-1.993c.02-.2.041-.407.061-.59a.193.193,0,0,1,.386.02l-.061.61-.2,1.993A.216.216,0,0,1,719.8,349.5Zm.386-5.205h0a.2.2,0,0,1-.2-.2v-.081c0-.793-.02-1.647-.081-2.5a.193.193,0,0,1,.386-.02c.061.874.081,1.728.081,2.521v.081A.188.188,0,0,1,720.182,344.291Zm-.325-5.205a.179.179,0,0,1-.183-.163c-.1-.813-.2-1.688-.346-2.582a.2.2,0,1,1,.386-.061c.142.895.264,1.769.346,2.582a.2.2,0,0,1-.163.224Zm-.793-5.144a.178.178,0,0,1-.183-.163c-.142-.793-.3-1.647-.508-2.562a.187.187,0,1,1,.366-.081c.183.915.366,1.749.508,2.562a.187.187,0,0,1-.163.224C719.1,333.942,719.084,333.942,719.064,333.942Zm-1.037-5.124a.2.2,0,0,1-.183-.142l-.081-.386c-.142-.671-.285-1.4-.407-2.176a.2.2,0,0,1,.386-.061c.122.773.264,1.5.407,2.155l.081.386a.187.187,0,0,1-.142.224Zm-.874-5.124a.179.179,0,0,1-.183-.163c-.1-.813-.183-1.688-.264-2.6a.187.187,0,0,1,.183-.2.176.176,0,0,1,.2.183c.081.895.163,1.769.264,2.582a.2.2,0,0,1-.163.224C717.173,323.694,717.173,323.694,717.152,323.694Zm-.447-5.205a.182.182,0,0,1-.183-.183c-.061-.854-.1-1.728-.122-2.6a.193.193,0,1,1,.386-.02c.041.874.081,1.749.122,2.6a.2.2,0,0,1-.2.2Z" transform="translate(-716.4 -315.5)" fill="#12289e"/>
          </g>
          <g id="Group_28" data-name="Group 28" transform="translate(1.745 46.582)">
            <path id="Path_201" data-name="Path 201" d="M725.171,546.328h0c-.122-.02-.2-.1-.183-.2l.142-1.342a.193.193,0,0,1,.386.02l-.142,1.342A.216.216,0,0,1,725.171,546.328Z" transform="translate(-724.985 -544.6)" fill="#12289e"/>
          </g>
        </g>
      </g>
      <path id="Path_202" data-name="Path 202" d="M715.616,307.6l-2.216,2.2,2.562,1.81.732-2.582Z" transform="translate(-568.349 -245.057)" fill="#fc7575"/>
      <path id="Path_203" data-name="Path 203" d="M708.3,314.3v1.362l4.92,3.294.346-1.118Z" transform="translate(-564.285 -250.394)" fill="#1b2e96"/>
      <path id="Path_204" data-name="Path 204" d="M721.607,117s-2.582,4.555-1.911,8.621,4.717,11.427,5.591,13.745-6.588,16.9-6.588,16.9l2.318,2.582s11.285-16.287,11.285-20.17C732.323,134.791,725.186,117.793,721.607,117Z" transform="translate(-572.571 -93.211)" fill="#db00ab"/>
    </g>
  </g>
</svg>
