<svg id="Group_73" data-name="Group 73" xmlns="http://www.w3.org/2000/svg" width="208.886" height="164.017" viewBox="0 0 208.886 164.017">
  <ellipse id="Ellipse_20" data-name="Ellipse 20" cx="104.443" cy="33.321" rx="104.443" ry="33.321" transform="translate(0 97.375)" fill="#ffe1e5"/>
  <g id="Group_35" data-name="Group 35" transform="translate(160.644 33.973)">
    <g id="Group_33" data-name="Group 33" transform="translate(9.397 52.202)">
      <path id="Path_205" data-name="Path 205" d="M438.176,218.22a53.117,53.117,0,0,1,7.12-.4,45.486,45.486,0,0,0,12.64-2.32c-.88,3.12-1.76,6.2-2.6,9.32a38.662,38.662,0,0,1-2.48,7.04,20.482,20.482,0,0,1-4.24,5.68c-3.64,3.36-8.72,5.32-13.6,4.44-4.24-.76-8.24-3.76-9.48-8C423.136,225.94,430.936,219.46,438.176,218.22Z" transform="translate(-425.093 -215.5)" fill="#b4dfd5"/>
      <path id="Path_206" data-name="Path 206" d="M461.682,221.945c-3.28,1.48-6.6,2.96-9.76,4.6a15.575,15.575,0,0,1,1.92-3.12c.28-.36-.24-.88-.56-.48a19.872,19.872,0,0,0-2.4,4.08v.08c-1.44.76-2.84,1.56-4.2,2.44a41.524,41.524,0,0,0-5.76,4.2,75.222,75.222,0,0,1,2.64-8.2c.16-.44-.48-.8-.64-.36q-1.74,4.68-3,9.48a17.18,17.18,0,0,0-3.96,5.84c-.16.44.48.8.64.36a15,15,0,0,1,1.44-2.76h.04c4.08.04,8.36-.24,12.4.44.48.08.64-.64.16-.72-3.96-.64-8.08-.4-12.08-.44,2.28-3.08,5.6-5.4,8.84-7.4h0c3.8.2,7.72.12,11.44.92.48.12.6-.6.16-.72a61.121,61.121,0,0,0-10.48-.92,127.023,127.023,0,0,1,13.44-6.64C462.322,222.425,462.122,221.745,461.682,221.945Z" transform="translate(-431.599 -219.345)" fill="#42b093"/>
    </g>
    <g id="Group_34" data-name="Group 34" transform="translate(1.669 23.798)">
      <path id="Path_207" data-name="Path 207" d="M408.7,163.216a17.594,17.594,0,0,1,10.2-7.16c2.76-.68,5.72-.76,8.24-2.12,2.56-1.44,4.2-4.04,6.32-6.08a11.234,11.234,0,0,1,7.2-3.36,7.026,7.026,0,0,1,6.64,3.84c1.4,3.24-.6,7.12-3.6,8.96-1.52.92-3.4,1.6-4.2,3.16a7.041,7.041,0,0,0-.56,2.72,45.647,45.647,0,0,1-1.12,8.72,19.147,19.147,0,0,1-6.12,9.88,15.415,15.415,0,0,1-10.92,3.64,21.794,21.794,0,0,1-5.92-1.48C405.583,180.576,403.183,171.416,408.7,163.216Z" transform="translate(-405.772 -144.492)" fill="#42b093"/>
      <path id="Path_208" data-name="Path 208" d="M454,154.63a43.96,43.96,0,0,1-5.12.8c1.12-.92,2.2-1.84,3.36-2.72.36-.28-.12-.76-.48-.52-1.28.96-2.48,1.96-3.72,3a18.693,18.693,0,0,1,.36-2.96c.08-.44-.56-.64-.64-.2a19.7,19.7,0,0,0-.44,3.76c-2.4,2.08-4.72,4.24-6.96,6.52.12-1.36.2-2.68.2-4.04,0-.44-.68-.48-.68-.04a48.362,48.362,0,0,1-.28,4.84c-3.8,3.88-7.36,7.96-10.84,12.12.4-4.24.88-8.44,1.44-12.64a.341.341,0,0,0-.68-.04c-.6,4.52-1.12,9.04-1.56,13.6h0c-1.6,1.92-3.2,3.88-4.76,5.8a2.01,2.01,0,0,1-.36-.88q-.36-1.62-.6-3.24a66.972,66.972,0,0,1-.76-7.44c-.04-.44-.72-.48-.68-.04a68.491,68.491,0,0,0,1.72,12.44c-.36.48-.76.92-1.12,1.4-.28.36.32.72.56.36.4-.48.8-1,1.2-1.48,4.8-.36,9.4-2.24,14.24-2.2.44,0,.48-.68.04-.68-4.08-.04-7.92,1.32-11.92,1.96a6.189,6.189,0,0,1-1.76.2c1.6-1.96,3.2-3.92,4.84-5.88l14.48-3.16c.44-.08.28-.76-.16-.68-4.52,1-9.08,2-13.6,2.96,3.44-4.08,6.96-8.12,10.72-11.92a41.177,41.177,0,0,0,6.28-.56c.44-.08.28-.76-.16-.68a35.288,35.288,0,0,1-5.44.52c2.32-2.32,4.72-4.6,7.2-6.72a53.877,53.877,0,0,0,6.2-.92A.326.326,0,1,0,454,154.63Z" transform="translate(-414.786 -148.867)" fill="#2e9376"/>
    </g>
    <path id="Path_209" data-name="Path 209" d="M441.161,103.079c-5.48.24-11.16,1.44-15.08,5.16,1.68-3.32,3.32-6.68,4.92-10.04a3.322,3.322,0,0,0,1.76.24c2.76-.36,3.68-2.8,3.84-5.24a32.05,32.05,0,0,0,0-3.92c-.04-.92.6-5.44-1.56-4a20.346,20.346,0,0,0-2.76,2.48,9.844,9.844,0,0,0-2.92,4.56,6.54,6.54,0,0,0,.2,4.08,3.347,3.347,0,0,0,.88,1.44l.04.04c-1.84,3.92-3.8,7.8-5.76,11.68v-.08a14.526,14.526,0,0,0,.12-4.92,10.366,10.366,0,0,0-4.4-6.8.3.3,0,0,0-.48.16c0,.08-1.72,6.92-.56,10a8.6,8.6,0,0,0,2.04,3.16c.44.44,1.2,1.12,1.88,1.08-2.08,4.04-4.12,8.08-6.16,12.12a12.544,12.544,0,0,0-.04-2.16,9.489,9.489,0,0,0-3.12-6.2,6.136,6.136,0,0,0-2.48-1.4,9.844,9.844,0,0,0-1,5.76,7.509,7.509,0,0,0,.8,3.12,5.067,5.067,0,0,0,2.2,2c.68.32,1.96.88,2.76.6-2.44,4.96-4.76,9.96-6.88,15.04a5.931,5.931,0,0,0-2.16-3.24,12.641,12.641,0,0,0-3.44-1.92,4.739,4.739,0,0,1-2.2-1.4,12.69,12.69,0,0,1,.48,3,8.7,8.7,0,0,0,1.48,3.8,5.1,5.1,0,0,0,2,1.8,3.893,3.893,0,0,0,2.88.28c-.76,1.88-1.48,3.76-2.12,5.68a120.17,120.17,0,0,0-4.52,16.32.306.306,0,0,0,.6.12,124.482,124.482,0,0,1,7.36-23.721,2.928,2.928,0,0,0,1.76,2.56,5,5,0,0,0,1.72.48,7.416,7.416,0,0,0,5.16-1.48,7.332,7.332,0,0,0,2.72-4.6.5.5,0,0,0-.16-.56.467.467,0,0,0-.4,0,12.206,12.206,0,0,1-4,.04,11.188,11.188,0,0,0-4,.12,4.04,4.04,0,0,0-1.8,1.04c1.88-4.4,3.92-8.76,6.04-13.08a3.343,3.343,0,0,0,1.64,1.24,10.382,10.382,0,0,0,8.32.12,10.49,10.49,0,0,0,5.76-6,14.092,14.092,0,0,0-8.6-.6,14.372,14.372,0,0,0-5.2,2.56c-.24.2-.64.48-1,.76,2.12-4.24,4.28-8.4,6.4-12.6,1.84,3.76,7.64,3.2,11,1.8,4.08-1.72,7.08-5.72,6.2-10.32C441.441,103.159,441.281,103.079,441.161,103.079Z" transform="translate(-401.6 -84.998)" fill="#fdd17a"/>
  </g>
  <g id="Group_38" data-name="Group 38" transform="translate(0.64 39.439)">
    <g id="Group_36" data-name="Group 36" transform="translate(0 37.696)">
      <path id="Path_210" data-name="Path 210" d="M21.441,195.14a47.059,47.059,0,0,0-7.12-.2A44.28,44.28,0,0,1,1.6,192.9c.96,3.08,1.88,6.16,2.84,9.24a38.775,38.775,0,0,0,2.64,7,19.912,19.912,0,0,0,4.4,5.6c3.72,3.28,8.84,5.12,13.72,4.12,4.24-.88,8.16-3.96,9.28-8.2C36.641,202.5,28.721,196.22,21.441,195.14Z" transform="translate(-1.6 -192.9)" fill="#61bda6"/>
      <path id="Path_211" data-name="Path 211" d="M8,199.164c3.32,1.4,6.64,2.8,9.88,4.36a16.91,16.91,0,0,0-2-3.08c-.28-.36.24-.88.52-.52a17.407,17.407,0,0,1,2.48,4.04v.08c1.44.72,2.88,1.48,4.24,2.32a44.2,44.2,0,0,1,5.88,4.08,72.262,72.262,0,0,0-2.84-8.12c-.16-.44.48-.8.64-.36A84.493,84.493,0,0,1,30,211.4a17.147,17.147,0,0,1,4.12,5.72c.2.44-.48.8-.64.36a13.926,13.926,0,0,0-1.52-2.72h-.04c-4.08.16-8.36-.04-12.4.72-.48.08-.64-.64-.16-.72,3.92-.72,8.08-.6,12.08-.72a31.493,31.493,0,0,0-9-7.2h0c-3.8.28-7.72.28-11.44,1.2a.369.369,0,0,1-.16-.72,60.886,60.886,0,0,1,10.44-1.16,130.374,130.374,0,0,0-13.56-6.32C7.361,199.684,7.561,199,8,199.164Z" transform="translate(-5.161 -196.644)" fill="#40967d"/>
    </g>
    <g id="Group_37" data-name="Group 37" transform="translate(6.448 11.409)">
      <path id="Path_212" data-name="Path 212" d="M65.074,150.032a21.515,21.515,0,0,0-12.36-8.76c-3.36-.84-6.96-.92-9.96-2.6-3.12-1.72-5.08-4.92-7.68-7.4a13.422,13.422,0,0,0-8.76-4.08,8.491,8.491,0,0,0-8.04,4.64c-1.68,3.92.68,8.64,4.32,10.88,1.84,1.12,4.12,1.92,5.08,3.88a7.627,7.627,0,0,1,.64,3.28,51.9,51.9,0,0,0,1.32,10.56,23.274,23.274,0,0,0,7.4,12.04,18.779,18.779,0,0,0,13.28,4.48,27.883,27.883,0,0,0,7.2-1.76C68.754,171.113,71.714,159.992,65.074,150.032Z" transform="translate(-17.72 -127.186)" fill="#b4dfd5"/>
      <path id="Path_213" data-name="Path 213" d="M25.244,139.645c2.04.44,4.12.76,6.2,1-1.32-1.12-2.68-2.24-4.08-3.28-.44-.32.16-.92.56-.6,1.52,1.16,3.04,2.4,4.48,3.64a22.123,22.123,0,0,0-.44-3.6c-.12-.52.68-.76.8-.24a24.887,24.887,0,0,1,.52,4.56c2.92,2.52,5.72,5.16,8.44,7.92q-.24-2.46-.24-4.92c0-.52.84-.56.84-.04a48.336,48.336,0,0,0,.36,5.88c4.6,4.72,8.92,9.68,13.12,14.72-.48-5.12-1.04-10.24-1.72-15.36-.08-.52.76-.56.84-.04.72,5.48,1.36,11,1.84,16.48h0c1.96,2.36,3.84,4.72,5.76,7.08a2.744,2.744,0,0,0,.44-1.08c.28-1.32.52-2.6.72-3.92a85.5,85.5,0,0,0,.96-9.04c.04-.52.84-.56.84-.04a87.2,87.2,0,0,1-2.12,15.08c.44.56.92,1.16,1.36,1.72.32.4-.36.88-.72.44-.48-.6-.96-1.2-1.48-1.8-5.84-.44-11.4-2.72-17.28-2.72-.52,0-.56-.84-.04-.84,4.96,0,9.6,1.6,14.44,2.4a7.563,7.563,0,0,0,2.12.24c-1.92-2.4-3.88-4.8-5.84-7.16l-17.56-3.88a.413.413,0,0,1,.2-.8c5.48,1.2,11,2.44,16.48,3.64-4.16-5-8.44-9.88-12.96-14.52a53.67,53.67,0,0,1-7.6-.68c-.52-.08-.32-.88.2-.8a45.525,45.525,0,0,0,6.6.64c-2.8-2.84-5.72-5.56-8.72-8.2a68.178,68.178,0,0,1-7.52-1.12C24.524,140.325,24.724,139.525,25.244,139.645Z" transform="translate(-21.932 -132.639)" fill="#61bda6"/>
    </g>
    <path id="Path_214" data-name="Path 214" d="M51.349,114.038c4.76.64,9.64,2.12,12.76,5.68-1.2-3.04-2.4-6.08-3.52-9.16a2.94,2.94,0,0,1-1.56.08c-2.36-.52-2.96-2.72-2.96-4.88a23.875,23.875,0,0,1,.32-3.4c.08-.8-.12-4.8,1.68-3.4a21.214,21.214,0,0,1,2.24,2.4,8.733,8.733,0,0,1,2.2,4.2,5.887,5.887,0,0,1-.48,3.56,3.222,3.222,0,0,1-.88,1.2l-.04.04c1.32,3.56,2.72,7.12,4.12,10.64v-.04a13.062,13.062,0,0,1,.28-4.32,9.14,9.14,0,0,1,4.36-5.6c.16-.08.4-.04.4.16,0,.08.96,6.16-.32,8.8a7.2,7.2,0,0,1-2.04,2.6c-.44.32-1.12.88-1.72.8,1.48,3.68,3,7.36,4.44,11.04a8.277,8.277,0,0,1,.24-1.88,8.425,8.425,0,0,1,3.2-5.16,5.922,5.922,0,0,1,2.28-1.04,8.574,8.574,0,0,1,.4,5.12,6.355,6.355,0,0,1-.96,2.68,4.5,4.5,0,0,1-2.08,1.56,4.062,4.062,0,0,1-2.48.32c1.76,4.52,3.4,9.04,4.84,13.64a5.28,5.28,0,0,1,2.12-2.64,11.208,11.208,0,0,1,3.16-1.4,4.365,4.365,0,0,0,2-1.04,11.242,11.242,0,0,0-.64,2.6,7.561,7.561,0,0,1-1.6,3.2,4.749,4.749,0,0,1-1.88,1.44,3.434,3.434,0,0,1-2.52.04c.52,1.68,1,3.4,1.44,5.12a100.772,100.772,0,0,1,2.68,14.6c.04.32-.48.4-.52.08a109.658,109.658,0,0,0-4.6-21.281,2.645,2.645,0,0,1-1.72,2.12,4.007,4.007,0,0,1-1.56.28,6.46,6.46,0,0,1-4.36-1.68,6.566,6.566,0,0,1-2.04-4.24c0-.16,0-.4.16-.48a.565.565,0,0,1,.36.04,11.332,11.332,0,0,0,3.48.36,10.252,10.252,0,0,1,3.48.4,3.669,3.669,0,0,1,1.48,1.04c-1.28-4-2.76-7.96-4.28-11.88a3.2,3.2,0,0,1-1.52.96,9.114,9.114,0,0,1-11.84-6.2,12.209,12.209,0,0,1,7.56.16,12.343,12.343,0,0,1,4.32,2.64c.2.2.52.44.8.76-1.52-3.84-3.08-7.68-4.6-11.48-1.92,3.16-6.92,2.2-9.76.72-3.44-1.84-5.72-5.56-4.6-9.48C51.109,114.078,51.229,114.038,51.349,114.038Z" transform="translate(-31.108 -98.663)" fill="#ec7772"/>
  </g>
  <g id="Group_40" data-name="Group 40" transform="translate(92.511 0)">
    <g id="Group_39" data-name="Group 39" transform="translate(10.486 16.453)">
      <path id="Path_215" data-name="Path 215" d="M271.252,42.84a52.868,52.868,0,0,1,7.12,0,44.362,44.362,0,0,0,12.76-1.64c-1.04,3.04-2.08,6.12-3.12,9.16a38.71,38.71,0,0,1-2.84,6.92,19.968,19.968,0,0,1-4.56,5.48c-3.8,3.16-9,4.84-13.8,3.72-4.2-1-8.04-4.16-9.04-8.48C255.851,49.76,263.972,43.72,271.252,42.84Z" transform="translate(-257.486 -41.2)" fill="#61bda6"/>
      <path id="Path_216" data-name="Path 216" d="M294.263,47.248c-3.36,1.28-6.72,2.6-10,4.08a17.438,17.438,0,0,1,2.08-3c.32-.36-.2-.88-.52-.52a17.372,17.372,0,0,0-2.6,3.96c0,.04,0,.04-.04.08-1.48.68-2.92,1.4-4.32,2.2a41.119,41.119,0,0,0-5.96,3.88,80.989,80.989,0,0,1,3.04-8.04c.2-.44-.44-.8-.64-.36a79.227,79.227,0,0,0-3.48,9.32,17.285,17.285,0,0,0-4.28,5.6c-.2.44.44.8.64.36a13.965,13.965,0,0,1,1.6-2.68h.04c4.08.28,8.36.2,12.36,1.08a.374.374,0,0,0,.2-.72c-3.92-.84-8.04-.84-12.04-1.08,2.44-2.96,5.88-5.08,9.2-6.92h0c3.76.4,7.72.52,11.4,1.52a.375.375,0,0,0,.2-.72,60.275,60.275,0,0,0-10.4-1.44,130.762,130.762,0,0,1,13.76-5.92C294.863,47.768,294.7,47.048,294.263,47.248Z" transform="translate(-263.497 -44.808)" fill="#40967d"/>
    </g>
    <path id="Path_217" data-name="Path 217" d="M265.564,6.521a.172.172,0,0,0-.16-.16c-3.68-.52-7.64-.44-10.72,1.56,1.92-2.48,3.8-4.96,5.6-7.52.16-.2-.16-.48-.32-.24-2.04,2.88-4.2,5.68-6.36,8.48V8.6a10.261,10.261,0,0,0,.72-3.28,6.945,6.945,0,0,0-2.08-5.08.209.209,0,0,0-.36.04c0,.04-2.04,4.4-1.64,6.64a6.133,6.133,0,0,0,.96,2.36c.24.36.64.92,1.12.96l-5.64,7.32a7.086,7.086,0,0,0-1.04-5.96,4.036,4.036,0,0,0-1.48-1.24,6.842,6.842,0,0,0-1.4,3.72,4.584,4.584,0,0,0,.16,2.2,3.691,3.691,0,0,0,1.2,1.6,2.925,2.925,0,0,0,1.76.76c-2.24,3-4.44,6.04-6.48,9.16a4.165,4.165,0,0,0-1.04-2.44,9.317,9.317,0,0,0-2.04-1.72,3.367,3.367,0,0,1-1.28-1.2,12.123,12.123,0,0,1-.04,2.08,5.8,5.8,0,0,0,.52,2.72,3.291,3.291,0,0,0,1.12,1.44,2.867,2.867,0,0,0,1.88.56c-.72,1.16-1.44,2.32-2.16,3.52a82.29,82.29,0,0,0-5.08,10.32c-.08.24.28.4.36.16a85.858,85.858,0,0,1,7.92-14.92,2.054,2.054,0,0,0,.84,1.96,3.84,3.84,0,0,0,1.08.52,5,5,0,0,0,3.64-.36,4.858,4.858,0,0,0,2.4-2.72c.04-.12.08-.32-.04-.4-.08-.08-.16-.04-.28-.04a7.733,7.733,0,0,1-2.68-.48,7.69,7.69,0,0,0-2.68-.44,2.516,2.516,0,0,0-1.32.48c1.8-2.72,3.72-5.36,5.68-7.96a2.329,2.329,0,0,0,.92,1.04,7.115,7.115,0,0,0,10.16-2.16,9.48,9.48,0,0,0-5.68-1.48,9.8,9.8,0,0,0-3.8,1.04,7.274,7.274,0,0,0-.76.4c1.92-2.56,3.92-5.08,5.84-7.6.76,2.76,4.68,3.12,7.12,2.6C263.084,12,265.564,9.682,265.564,6.521Z" transform="translate(-231.271 -0.069)" fill="#2a514a"/>
  </g>
  <g id="Group_56" data-name="Group 56" transform="translate(46.481 27.973)">
    <g id="Group_41" data-name="Group 41">
      <path id="Path_218" data-name="Path 218" d="M116.2,131.162V80.4A10.38,10.38,0,0,1,126.6,70H226a8.8,8.8,0,0,1,8.8,8.8v52.361a10.38,10.38,0,0,1-10.4,10.4H126.6A10.405,10.405,0,0,1,116.2,131.162Z" transform="translate(-116.2 -70)" fill="#76a9b7"/>
      <path id="Path_219" data-name="Path 219" d="M229.623,142.982H129.66a6.564,6.564,0,0,1-6.56-6.56V83.66a6.564,6.564,0,0,1,6.56-6.56h99.923a6.564,6.564,0,0,1,6.56,6.56v52.761A6.48,6.48,0,0,1,229.623,142.982Z" transform="translate(-120.34 -74.26)" fill="#e4f3f7"/>
    </g>
    <path id="Path_220" data-name="Path 220" d="M250.541,277.52H200.66a.973.973,0,0,1-.96-.96h0a.973.973,0,0,1,.96-.96h49.881a.973.973,0,0,1,.96.96h0A.973.973,0,0,1,250.541,277.52Z" transform="translate(-166.299 -193.358)" fill="#76a9b7"/>
    <path id="Path_221" data-name="Path 221" d="M251.841,259.58H201.4l4.32-10.68h41.8Z" transform="translate(-167.319 -177.338)" fill="#527480"/>
    <g id="Group_54" data-name="Group 54" transform="translate(7.76 7.88)">
      <rect id="Rectangle_17" data-name="Rectangle 17" width="103.123" height="49.401" transform="translate(0 7.28)" fill="#b4dfd5"/>
      <g id="Group_43" data-name="Group 43">
        <rect id="Rectangle_18" data-name="Rectangle 18" width="103.123" height="7.32" fill="#e6e6ce"/>
        <g id="Group_42" data-name="Group 42" transform="translate(1.92 2.28)">
          <ellipse id="Ellipse_21" data-name="Ellipse 21" cx="1.4" cy="1.4" rx="1.4" ry="1.4" fill="#ec7772"/>
          <ellipse id="Ellipse_22" data-name="Ellipse 22" cx="1.4" cy="1.4" rx="1.4" ry="1.4" transform="translate(5.2)" fill="#fdd17a"/>
          <ellipse id="Ellipse_23" data-name="Ellipse 23" cx="1.4" cy="1.4" rx="1.4" ry="1.4" transform="translate(10.44)" fill="#61bda6"/>
        </g>
      </g>
      <text id="BRAND" transform="translate(32.899 32.369)" fill="#fff" font-size="11" font-family="SegoeUI, Segoe UI"><tspan x="0" y="0">BRAND</tspan></text>
      <rect id="Rectangle_19" data-name="Rectangle 19" width="12.2" height="35.961" transform="translate(4.8 12.76)" fill="#61bda6"/>
      <g id="Group_44" data-name="Group 44" transform="translate(5.8 13.92)">
        <rect id="Rectangle_20" data-name="Rectangle 20" width="4.6" height="4.6" fill="#b4dfd5"/>
        <rect id="Rectangle_21" data-name="Rectangle 21" width="4.6" height="4.6" transform="translate(5.56)" fill="#b4dfd5"/>
      </g>
      <g id="Group_45" data-name="Group 45" transform="translate(5.8 19.841)">
        <rect id="Rectangle_22" data-name="Rectangle 22" width="4.6" height="4.6" fill="#b4dfd5"/>
        <rect id="Rectangle_23" data-name="Rectangle 23" width="4.6" height="4.6" transform="translate(5.56)" fill="#b4dfd5"/>
      </g>
      <g id="Group_46" data-name="Group 46" transform="translate(5.8 25.761)">
        <rect id="Rectangle_24" data-name="Rectangle 24" width="4.6" height="4.6" fill="#b4dfd5"/>
        <rect id="Rectangle_25" data-name="Rectangle 25" width="4.6" height="4.6" transform="translate(5.56)" fill="#b4dfd5"/>
      </g>
      <g id="Group_47" data-name="Group 47" transform="translate(5.8 31.681)">
        <rect id="Rectangle_26" data-name="Rectangle 26" width="4.6" height="4.6" fill="#b4dfd5"/>
        <rect id="Rectangle_27" data-name="Rectangle 27" width="4.6" height="4.6" transform="translate(5.56)" fill="#b4dfd5"/>
      </g>
      <g id="Group_48" data-name="Group 48" transform="translate(5.8 37.601)">
        <rect id="Rectangle_28" data-name="Rectangle 28" width="4.6" height="4.6" fill="#b4dfd5"/>
        <rect id="Rectangle_29" data-name="Rectangle 29" width="4.6" height="4.6" transform="translate(5.56)" fill="#b4dfd5"/>
      </g>
      <g id="Group_53" data-name="Group 53" transform="translate(18.961 17.2)">
        <g id="Group_50" data-name="Group 50" transform="translate(1.92 1.92)">
          <g id="Group_49" data-name="Group 49">
            <path id="Path_222" data-name="Path 222" d="M359.9,196.5v.6h-.6" transform="translate(-290.698 -172.899)" fill="none" stroke="#1c1c38" stroke-linecap="round" stroke-linejoin="round" stroke-width="1"/>
            <line id="Line_1" data-name="Line 1" x1="65.602" transform="translate(1.4 24.201)" stroke-dasharray="2.965 3.953" stroke="#1c1c38" stroke-linecap="round" stroke-linejoin="round" stroke-width="1" fill="none"/>
            <path id="Path_223" data-name="Path 223" d="M188.4,197.1h-.6v-.6" transform="translate(-187.8 -172.899)" fill="none" stroke="#1c1c38" stroke-linecap="round" stroke-linejoin="round" stroke-width="1"/>
            <line id="Line_2" data-name="Line 2" y1="20.721" transform="translate(0 1.36)" stroke-dasharray="2.875 3.833" stroke="#1c1c38" stroke-linecap="round" stroke-linejoin="round" stroke-width="1" fill="none"/>
            <path id="Path_224" data-name="Path 224" d="M187.8,138.1v-.6h.6" transform="translate(-187.8 -137.5)" fill="none" stroke="#1c1c38" stroke-linecap="round" stroke-linejoin="round" stroke-width="1"/>
            <line id="Line_3" data-name="Line 3" x2="65.642" transform="translate(2.16)" stroke-dasharray="2.965 3.953" stroke="#1c1c38" stroke-linecap="round" stroke-linejoin="round" stroke-width="1" fill="none"/>
            <path id="Path_225" data-name="Path 225" d="M359.3,137.5h.6v.6" transform="translate(-290.698 -137.5)" fill="none" stroke="#1c1c38" stroke-linecap="round" stroke-linejoin="round" stroke-width="1"/>
            <line id="Line_4" data-name="Line 4" y2="20.721" transform="translate(69.202 2.12)" stroke-dasharray="2.875 3.833" stroke="#1c1c38" stroke-linecap="round" stroke-linejoin="round" stroke-width="1" fill="none"/>
          </g>
        </g>
        <g id="Group_51" data-name="Group 51">
          <rect id="Rectangle_30" data-name="Rectangle 30" width="3.8" height="3.8" fill="#1c1c38"/>
          <rect id="Rectangle_31" data-name="Rectangle 31" width="3.8" height="3.8" transform="translate(69.202)" fill="#1c1c38"/>
        </g>
        <g id="Group_52" data-name="Group 52" transform="translate(0 24.201)">
          <rect id="Rectangle_32" data-name="Rectangle 32" width="3.8" height="3.8" fill="#1c1c38"/>
          <rect id="Rectangle_33" data-name="Rectangle 33" width="3.8" height="3.8" transform="translate(69.202)" fill="#1c1c38"/>
        </g>
      </g>
      <rect id="Rectangle_34" data-name="Rectangle 34" width="68.802" height="1.68" transform="translate(21.281 12.76)" fill="#61bda6"/>
      <rect id="Rectangle_35" data-name="Rectangle 35" width="68.802" height="1.68" transform="translate(21.281 47.921)" fill="#61bda6"/>
    </g>
    <g id="Group_55" data-name="Group 55" transform="translate(2.92 2.8)" opacity="0.4">
      <path id="Path_226" data-name="Path 226" d="M296.8,81a5.982,5.982,0,0,0-5.64-4h-.84L224.4,142.922h10.48Z" transform="translate(-184.039 -77)" fill="#faf9dd"/>
      <path id="Path_227" data-name="Path 227" d="M189.922,77,126.4,140.482a5.946,5.946,0,0,0,4.8,2.44h28.681L225.843,77Z" transform="translate(-125.24 -77)" fill="#faf9dd"/>
      <path id="Path_228" data-name="Path 228" d="M123.5,114.961v18.12L179.542,77H161.461Z" transform="translate(-123.5 -77)" fill="#faf9dd"/>
    </g>
  </g>
  <g id="Group_61" data-name="Group 61" transform="translate(6.225 47.169)">
    <path id="Path_229" data-name="Path 229" d="M140.516,178.621a19.829,19.829,0,0,0,2.92.8c1.76.4,3.48.8,5.24,1.2a2.8,2.8,0,0,0,1.4.08,5.79,5.79,0,0,0,1.96-.88c.6-.48.84-2.76,1.24-3.44.24-.4.76-.56.72-.32-.08.36.16,3.88.08,4.2a2.641,2.641,0,0,1-1.52,1.68,6.808,6.808,0,0,1-2.2.52,41.17,41.17,0,0,1-6.28.12,33.208,33.208,0,0,1-5.64-.48,20.6,20.6,0,0,1-5.12-1.6,6.848,6.848,0,0,1-1.72-1.68c-1.36-1.52.48-4.28,2.4-3.88,1.08.2,2.16,1.28,3.04,1.84A19.447,19.447,0,0,0,140.516,178.621Z" transform="translate(-84.899 -152.136)" fill="#e27e5a"/>
    <g id="Group_58" data-name="Group 58" transform="translate(23.286 40.455)">
      <g id="Group_57" data-name="Group 57" transform="translate(0.58 46.392)">
        <path id="Path_230" data-name="Path 230" d="M92.536,342.5a1.249,1.249,0,0,1-.84,1.08,3.5,3.5,0,0,1-1.44.2l-11.2.12a10.769,10.769,0,0,1-3.76-.4,3.424,3.424,0,0,1,.08-1.68c.24-.96.72-1.92.88-2.92a31.41,31.41,0,0,0,.08-3.36.381.381,0,0,1,.08-.28.3.3,0,0,1,.2-.04c1.16-.04,2.32-.08,3.52-.12.36,0,2.56,0,2.64.28a5.931,5.931,0,0,0,1.96,2.68c.88.72,1.8,1.32,2.64,2.08a4.366,4.366,0,0,0,1.16.92,6.443,6.443,0,0,0,2.32.16,2.058,2.058,0,0,1,1.44.6A1.009,1.009,0,0,1,92.536,342.5Z" transform="translate(-75.226 -335.1)" fill="#ce422c"/>
        <path id="Path_231" data-name="Path 231" d="M92.536,352.386a1.25,1.25,0,0,1-.84,1.08,3.5,3.5,0,0,1-1.44.2l-11.2.12a10.77,10.77,0,0,1-3.76-.4,3.424,3.424,0,0,1,.08-1.68c.12-.04.24-.08.4-.12a30.085,30.085,0,0,1,3.76.44c1.24.12,2.52.24,3.8.24,3,.16,6.12.32,8.96-.6A1.2,1.2,0,0,1,92.536,352.386Z" transform="translate(-75.226 -344.985)" fill="#7f1d13"/>
      </g>
      <path id="Path_232" data-name="Path 232" d="M83.666,241.515c.8,1.04,1.64,2.32,1.28,3.56a4.812,4.812,0,0,1-.92,1.48c-3.96,4.92-5.4,11.4-6.72,17.56-.04.28-.12.6.08.8a.794.794,0,0,0,.52.24c1.12.28,2.24.56,3.4.84a1.142,1.142,0,0,0,.64.04c.6-.12.72-.92.84-1.52a9.92,9.92,0,0,1,.92-2.44c1.52-3.16,3.04-6.28,4.56-9.44a18.7,18.7,0,0,1,3.84-5.88,4.1,4.1,0,0,0,1.08-1.28,2.782,2.782,0,0,0-.04-1.8,54.274,54.274,0,0,0-2.52-7.44c-2.04-5.24-4.12-10.52-6.16-15.76a2.372,2.372,0,0,0-.68-1.08,2.291,2.291,0,0,0-2.4.2,19.724,19.724,0,0,0-6.56,5.48c-.88,1.12-1.52,2.4-.6,3.64.96,1.28,2,2.56,2.92,3.88C79.306,235.674,81.466,238.634,83.666,241.515Z" transform="translate(-73.777 -219.123)" fill="#3b6472"/>
    </g>
    <g id="Group_60" data-name="Group 60" transform="translate(0 33.365)">
      <g id="Group_59" data-name="Group 59" transform="translate(0 46.261)">
        <path id="Path_233" data-name="Path 233" d="M25.118,320.269a5.241,5.241,0,0,1-.08,2.08,16.13,16.13,0,0,0,.12,4.6,9.123,9.123,0,0,0,.52,2.52c.24.56.6,1.12.8,1.68a2.786,2.786,0,0,1,.2,1,1.405,1.405,0,0,1-.2.8,1.88,1.88,0,0,1-1.68.92,3.536,3.536,0,0,1-1.88-.64,11.048,11.048,0,0,1-3.88-5.12,44.1,44.1,0,0,0-2.72-5.92,3.38,3.38,0,0,1-.64-1.32,1.053,1.053,0,0,1,.64-1.2,3.384,3.384,0,0,0,.68-.2,23.67,23.67,0,0,0,4.08-2.2c1.4-.84,2.56.92,3.36,1.92A3.083,3.083,0,0,1,25.118,320.269Z" transform="translate(-15.622 -317.049)" fill="#ce422c"/>
        <path id="Path_234" data-name="Path 234" d="M26.058,335.88a2.775,2.775,0,0,0,.52-.2,1.405,1.405,0,0,1-.2.8,1.88,1.88,0,0,1-1.68.92,3.536,3.536,0,0,1-1.88-.64,11.048,11.048,0,0,1-3.88-5.12,44.107,44.107,0,0,0-2.72-5.92,3.379,3.379,0,0,1-.64-1.32,1.053,1.053,0,0,1,.64-1.2,3.38,3.38,0,0,0,.68-.2c.16.36.2.8.32,1.16a24.93,24.93,0,0,0,2.4,5.84,16.6,16.6,0,0,0,3.36,4.88A3.477,3.477,0,0,0,26.058,335.88Z" transform="translate(-15.562 -320.619)" fill="#7f1d13"/>
      </g>
      <path id="Path_235" data-name="Path 235" d="M56.441,204.4a1.717,1.717,0,0,1-.12,1.52c-1.76,3.84-4.8,7.36-4.8,11.56a12.975,12.975,0,0,0,.44,3.04l.12.6c1.24,5.48,2.48,11.08,1.76,16.64a4.129,4.129,0,0,1-.44,1.56,3.563,3.563,0,0,1-1.24,1.2c-3.96,2.72-9.08,3.44-12.88,6.36-1.76,1.36-3.16,3.12-5,4.32a13.256,13.256,0,0,1-3.48-3.68c3.16-1.76,5.04-5.12,7.88-7.4a30.118,30.118,0,0,1,5.52-3.2,1.909,1.909,0,0,0,1.08-.92,1.8,1.8,0,0,0,.04-.92c-.52-4-2.08-7.72-3.56-11.48-.36-.88-.68-1.76-1.04-2.68A29.823,29.823,0,0,1,38.68,212a15.591,15.591,0,0,1,.68-5.28,11.323,11.323,0,0,1,2.28-4.2c1.08-1.24,1.88-1.2,3.44-1.04a45.041,45.041,0,0,1,10.52,2.36A1.739,1.739,0,0,1,56.441,204.4Z" transform="translate(-24.705 -201.398)" fill="#547989"/>
    </g>
    <path id="Path_236" data-name="Path 236" d="M121.173,187.087a10.743,10.743,0,0,0,2.64,1.28c2.08.6,4.28.12,6.36-.32,3-.64,6-1.2,9.04-1.68a8.249,8.249,0,0,1,2.8-.12c.68.12,1.52.4,1.96-.12.2-.24.4-.4.44-.68a45.706,45.706,0,0,0,0-7.76c-.4.16-.8,2.92-.88,3.36a2.632,2.632,0,0,1-.36,1.24,2.321,2.321,0,0,1-.48.4c-.24.24-.36.52-.6.76a2.469,2.469,0,0,1-1.32.56,22.543,22.543,0,0,1-6.56-.04c-2.24-.24-4.48-.52-6.72-.92a8.11,8.11,0,0,1-3.52-1.28c-1.12-.88-1.68-2.28-2.44-3.48a1.446,1.446,0,0,0-.6-.6,1.661,1.661,0,0,0-1-.12,6.638,6.638,0,0,0-3.32,1.16c-.68.48-1.6,1.4-1.52,2.28.04.8,1.4.88,1.88,1.44C118.373,184.007,119.413,185.967,121.173,187.087Z" transform="translate(-75.276 -153.722)" fill="#f29d7e"/>
    <path id="Path_237" data-name="Path 237" d="M73.847,157.043c-.72.96-1.48,1.96-2.2,2.92-.84,1.12-1.68,2.24-2.6,3.32a38.454,38.454,0,0,1-10.24,8.6c-.4.24-.84.48-.96.92a1.683,1.683,0,0,0,.32,1.28,34.026,34.026,0,0,0,11.16,11.48,2.252,2.252,0,0,0,1.2.48,2.057,2.057,0,0,0,1.12-.6,46.164,46.164,0,0,0,8.56-9.52c1.04-1.52,2-3.2,3.56-4.24.52-.36,1.16-.84,1-1.4a1.35,1.35,0,0,0-.28-.44c-.92-1.16-1.92-2.28-2.92-3.36,1.44-.36,2.16-2.12,3.56-2.64a2.467,2.467,0,0,1,2.8.92,4.917,4.917,0,0,1,2.36-2.4,35.723,35.723,0,0,0-1.92-3.08,17.323,17.323,0,0,0-2.84-3.32,13.452,13.452,0,0,0-7-2.88C76.127,152.883,75.087,155.363,73.847,157.043Z" transform="translate(-40.911 -139.038)" fill="#e289a9"/>
    <path id="Path_238" data-name="Path 238" d="M119.72,146.208a13.923,13.923,0,0,1-1.92,2.12,4.236,4.236,0,0,1,1.72,1.16c1,1.24.56,3.24,1.64,4.4a1.5,1.5,0,0,1,.52-1.16c.56-.6,1.12-1.24,1.68-1.84a2.9,2.9,0,0,1,1.24-.96,3.478,3.478,0,0,1,1.44-.04,20.142,20.142,0,0,0-3.44-5.24c-.4-.4-1.28-1.28-1.84-.72-.24.24-.28.8-.4,1.12A5.4,5.4,0,0,1,119.72,146.208Z" transform="translate(-76.904 -133.443)" fill="#e27e5a"/>
    <path id="Path_239" data-name="Path 239" d="M131.648,124.825a10.7,10.7,0,0,1,1.32,3.12c0,.64-.16.72-.16,1.36,0,1.08,1,1.36,1.32,2.52,0,.28-.52.32-.84.36a.754.754,0,0,0-.32.08c-.28.24.04.72-.08,1.08-.16.44-.92.32-1.16.76-.16.28,0,.6.16.88a1.333,1.333,0,0,1,.36.84c-.04.4-.56.68-.52,1.12a1.493,1.493,0,0,1,.04.72,1.114,1.114,0,0,1-.76.56,4.3,4.3,0,0,1-2.76-.72c-2.08-1.72-3.24-3.24-3.16-3.6.08-.28.4-.48.32-.76-.08-.32-.52-.32-.8-.48a1.331,1.331,0,0,1-.44-.76c-.08-.32-.2-.6-.28-.92a2.839,2.839,0,0,1-.2-1.16.934.934,0,0,1,1.52-.76,3.476,3.476,0,0,1,.64.68l1.2-1.44a1,1,0,0,0,.16-.28.692.692,0,0,0-.04-.4,10.8,10.8,0,0,1-.32-1.56,2.265,2.265,0,0,1,.08-1.16,2.007,2.007,0,0,1,2.12-1.12,6.017,6.017,0,0,1,2.36.96C131.528,124.7,131.648,124.825,131.648,124.825Z" transform="translate(-80.432 -121.46)" fill="#f29d7e"/>
    <path id="Path_240" data-name="Path 240" d="M114.155,126.354a.858.858,0,0,1,1.2.32c.08.12.2.24.32.24s.2-.12.28-.2c.36-.56.08-.84.44-1.4a3.5,3.5,0,0,1,.96-.76c3.6-1.16,4-2.2,4-2.28a4.013,4.013,0,0,0-2.16-3,8.817,8.817,0,0,0-5.2-1.16,12.212,12.212,0,0,0-2.8.96,2.691,2.691,0,0,0-1.68-1.08,2.4,2.4,0,0,0-1.36.44,5.013,5.013,0,0,0-2.28,2.36c-.64,1.72.36,3.64.16,5.48a3.3,3.3,0,0,0-.04,1.76c.2.48.68.76.88,1.24a6.2,6.2,0,0,1,.28,1.92,2.443,2.443,0,0,0,1.32,1.68c.72.32,1.64.36,2.08.96a4.551,4.551,0,0,1,.4,1.8,2.325,2.325,0,0,0,1.04,1.48,2.683,2.683,0,0,1,.56.36,2.6,2.6,0,0,1,.56,1.36,1.516,1.516,0,0,0,.84,1.16,1.029,1.029,0,0,0,1.12-.64,17.125,17.125,0,0,0-.04-2.88c-.04-.96-1.44-3.88-1.52-4.72-.04-.52-.36-1.08-.16-1.56a3.523,3.523,0,0,0,.24-.4,2.271,2.271,0,0,0-.04-1.36A3.713,3.713,0,0,1,114.155,126.354Z" transform="translate(-69.619 -117.989)" fill="#1b4e61"/>
  </g>
  <g id="Group_68" data-name="Group 68" transform="translate(134.764 35.48)">
    <g id="Group_66" data-name="Group 66" transform="translate(2.346)">
      <g id="Group_65" data-name="Group 65">
        <g id="Group_62" data-name="Group 62" transform="translate(6.164 50.714)">
          <path id="Path_241" data-name="Path 241" d="M387.055,220.475c-2.04,6.2-2.48,12.76-2.88,19.281l-.24,4.08a5.916,5.916,0,0,0,.04,1.68c.12.56.36,1.08.52,1.6a17.22,17.22,0,0,1,.6,6.08,100.187,100.187,0,0,1-.76,12c-.16,1.16-.4,2.32-.64,3.48a1.319,1.319,0,0,0,.04.96,1.516,1.516,0,0,0,.84.52c1,.32,2.04.64,3.04.92.92.28,2.12.48,2.68-.28.88-1.24-1.04-3-.36-4.36.16-.28.4-.52.56-.8a2.411,2.411,0,0,0,.24-.92c.32-2.68.6-5.36.92-8.04a31.415,31.415,0,0,0,.32-6.12c-.08-1.2-.32-2.4-.36-3.6-.04-3.44,1.6-6.64,3.2-9.72a16.691,16.691,0,0,0,1.8-4.48,17.706,17.706,0,0,0-.08-5.24c-.28-2.44-.56-4.84-.88-7.28a6.053,6.053,0,0,0-.6-2.36c-.92-1.6-3.24-2.12-4.96-2C387.935,216.115,387.655,218.715,387.055,220.475Z" transform="translate(-373.445 -215.734)" fill="#b94a5b"/>
          <path id="Path_242" data-name="Path 242" d="M401.427,222.729c.64,2.12,1.76,4.12,2.6,6.16,1.6,3.84,2.36,8,3.24,12.08a29.879,29.879,0,0,0,1.36,4.92c.56,1.48,1.36,2.92,1.84,4.44a20.226,20.226,0,0,1,.72,6,61.773,61.773,0,0,1-1.48,13.56l5.88,1.44c-.6-2.12-.12-4.36.2-6.56a114.136,114.136,0,0,0,.96-13.36,15.011,15.011,0,0,0-.08-2.68c-.28-1.52-1.04-2.88-1.4-4.4a16.886,16.886,0,0,1-.2-4.92c.16-2.72.32-5.4.48-8.12a12.368,12.368,0,0,1,.36-2.72c.24-.84.64-1.64.92-2.48a15.173,15.173,0,0,0,.44-6.44,2.921,2.921,0,0,0-.44-1.52,2.866,2.866,0,0,0-1.68-.88c-3.48-.96-7.12-1.96-10.8-1.64-1.6.16-2.68.16-3.2,1.72A9.2,9.2,0,0,0,401.427,222.729Z" transform="translate(-383.776 -215.548)" fill="#e8605c"/>
          <path id="Path_243" data-name="Path 243" d="M375.305,353.178a1.14,1.14,0,0,1-.76.88,3.213,3.213,0,0,1-1.24.16h-1.8c-1.56,0-3.08,0-4.64.08-2.76.2-5.6.68-8.16-.28a.806.806,0,0,1-.32-.16.7.7,0,0,1-.2-.6,1.477,1.477,0,0,1,.28-.56,1.732,1.732,0,0,1,.28-.24,2.518,2.518,0,0,1,.96-.36,18.2,18.2,0,0,1,2.56-.56,1.423,1.423,0,0,0,.44-.12c.2-.08.32-.28.48-.4a6.655,6.655,0,0,1,1.12-.72,17.419,17.419,0,0,0,3-2.44c.32-.28,1.04-.84,1.24-.2.08.24,0,.44.2.68a2.286,2.286,0,0,0,.84.52,12.026,12.026,0,0,0,3.48,1.04,14.744,14.744,0,0,0,1.88-.04,7.355,7.355,0,0,0,.16,2.48c.04.12.08.28.12.4A1.44,1.44,0,0,1,375.305,353.178Z" transform="translate(-358.174 -294.635)" fill="#f8f8dc"/>
          <path id="Path_244" data-name="Path 244" d="M375.305,361.18a1.14,1.14,0,0,1-.76.88,3.211,3.211,0,0,1-1.24.16h-1.8c-1.56,0-3.08,0-4.64.08-2.76.2-5.6.68-8.16-.28a.805.805,0,0,1-.32-.16.7.7,0,0,1-.2-.6,1.477,1.477,0,0,1,.28-.56c.04.24-.08.52.28.72a1.951,1.951,0,0,0,.96.16l12.72-.12a5.991,5.991,0,0,0,1.68-.16,2.957,2.957,0,0,0,1.12-.56.039.039,0,0,0,.04-.04C375.265,360.86,375.305,361.02,375.305,361.18Z" transform="translate(-358.174 -302.638)" fill="#65bda5"/>
          <path id="Path_245" data-name="Path 245" d="M421.575,355.044a.737.737,0,0,1-.16.52,2.213,2.213,0,0,1-.32.24c-.56.32-1.12.6-1.68.92a13.426,13.426,0,0,1-1.72.8,6.585,6.585,0,0,1-1.28.24,14.735,14.735,0,0,1-2.64.24,7.954,7.954,0,0,1-2.72-.48.578.578,0,0,1-.4-.28.679.679,0,0,1,0-.4,1.435,1.435,0,0,1,.16-.44,3.891,3.891,0,0,1,.88-1.24,6.182,6.182,0,0,0,1.08-.96c.16-.2.24-.44.4-.68a5.43,5.43,0,0,1,.48-.48,4.09,4.09,0,0,0,1.2-2.04,1.705,1.705,0,0,1,1.52-1.32,2.641,2.641,0,0,1,.96.12,3.629,3.629,0,0,1,1.56.8,4.563,4.563,0,0,0,.44.44,2.293,2.293,0,0,0,1.16.32.579.579,0,0,1,.28.08.363.363,0,0,1,.12.28c.16.68.32,1.36.52,2.04a3.03,3.03,0,0,1,.12.64C421.535,354.644,421.575,354.844,421.575,355.044Z" transform="translate(-389.644 -296.022)" fill="#f8f8dc"/>
          <path id="Path_246" data-name="Path 246" d="M421.575,362.26a.737.737,0,0,1-.16.52,2.222,2.222,0,0,1-.32.24c-.56.32-1.12.6-1.68.92a13.41,13.41,0,0,1-1.72.8,6.594,6.594,0,0,1-1.28.24,14.727,14.727,0,0,1-2.64.24,7.956,7.956,0,0,1-2.72-.48.578.578,0,0,1-.4-.28.679.679,0,0,1,0-.4,1.435,1.435,0,0,1,.16-.44c.08.04.12.04.2.08a6.158,6.158,0,0,0,1.48.36,22.188,22.188,0,0,0,3.64.16,6.634,6.634,0,0,0,3.44-1.12,12.914,12.914,0,0,1,2-1.4A2.61,2.61,0,0,0,421.575,362.26Z" transform="translate(-389.644 -303.238)" fill="#65bda5"/>
        </g>
        <g id="Group_63" data-name="Group 63" transform="translate(0 14.155)">
          <path id="Path_247" data-name="Path 247" d="M359.339,162.692c-.88.44-1.76.88-2.6,1.36-2.44,1.44-4.64,3.48-7.4,4.04a3.928,3.928,0,0,1-2.44-.2,6.466,6.466,0,0,0-1.48-.76c-1.4-.24-.68,1.04-.88,1.6-.28.88-1.28,1.16-1.64,1.96-.44.96.28,2.08,1.04,2.72a2.676,2.676,0,0,0,2.16.56c1.52-.36,2.8-1.6,4.36-2.08,1.68-.48,3.4-.68,5.08-1.08,2.84-.68,5.72-1.36,8.52-2.28a11.652,11.652,0,0,0,3.2-1.48,12.044,12.044,0,0,0,1.64-1.56c.52-.56,1.04-1.12,1.56-1.64a.539.539,0,0,0,.2-.36.46.46,0,0,0-.24-.36,40.61,40.61,0,0,0-3.56-2.8c-1.32-.92-2.08-1.2-3.36-.28A30.726,30.726,0,0,1,359.339,162.692Z" transform="translate(-342.765 -145.353)" fill="#f29d7e"/>
          <path id="Path_248" data-name="Path 248" d="M365.738,127.413a6.329,6.329,0,0,0-3.48-3.2c-.44-.12-1.08-.08-1.24.36a.86.86,0,0,0,.4.92,4.792,4.792,0,0,1,.84.68.3.3,0,0,1,.08.16c0,.12-.08.2-.2.28a4.57,4.57,0,0,0-1.32,1.6c-.44,1.24.4,2.52,1.16,3.56a3.349,3.349,0,0,0,1.28,1.2c.44.2.96.16,1.4.36a2.661,2.661,0,0,1,1.04.96c.84,1.16,1.44,2.44,2.2,3.64a19.534,19.534,0,0,0,4.04,4.28c2.56,2.12,5.52,3.92,8.84,4.04,3.04.12,5.92-1.24,8.64-2.52a2.475,2.475,0,0,0,.68-.44,1.239,1.239,0,0,0,.24-.52,7.442,7.442,0,0,0,.16-4.28,4.5,4.5,0,0,0-2.88-3c-1.92-.52-3.88.56-5.76,1.2a10.524,10.524,0,0,1-4.44.52,12.208,12.208,0,0,1-5.6-2.36,15.2,15.2,0,0,1-4.4-4.2C366.778,129.653,366.338,128.493,365.738,127.413Z" transform="translate(-353.523 -124.154)" fill="#ffbda9"/>
          <path id="Path_249" data-name="Path 249" d="M394.38,142.679a16.69,16.69,0,0,1,3.6,1.76,1.315,1.315,0,0,0,.64.28,1.442,1.442,0,0,0,.8-.24c1.6-.8,3.2-1.64,4.8-2.44a1.758,1.758,0,0,1,.88-.28,1.394,1.394,0,0,1,.68.24,6.8,6.8,0,0,1,3.32,6.2,1.207,1.207,0,0,1-.2.76,1.844,1.844,0,0,1-1.04.6l-6.48,1.8a4.656,4.656,0,0,1-2.08.24,7.157,7.157,0,0,0-2.04-.44,42.247,42.247,0,0,0-1.36,4.36,3.785,3.785,0,0,0-.2,1.32c0,.44.12.92.16,1.36.28,3.32-3.6,5.8-3.56,9.12,5,.8,10.12.6,15.12,1.36a11.6,11.6,0,0,1,5.28,1.84,9.735,9.735,0,0,1-.08-4.68,74.247,74.247,0,0,1,2.6-12.88c.76-2.32,1.68-4.52,2.28-6.88a12.82,12.82,0,0,0,0-7.16,6.964,6.964,0,0,0-5.04-4.76c-2.92-.52-5.36,1.24-8,2.04a13.722,13.722,0,0,0-4,1.48,20.929,20.929,0,0,0-2.76,2.56C397.18,140.8,395.22,142.959,394.38,142.679Z" transform="translate(-372.485 -130.1)" fill="#e4f3f7"/>
        </g>
        <g id="Group_64" data-name="Group 64" transform="translate(24.53)">
          <path id="Path_250" data-name="Path 250" d="M424.288,127.1c-.16.48-.4.96-.56,1.44-.08.24-.08.52.16.6.16.04.28-.08.4-.16,2.48-2,5.52-3.08,8.52-4.12a3.1,3.1,0,0,1-1.32-2.24,11.472,11.472,0,0,1-.44-2.28,4.561,4.561,0,0,0-.08-1.04,4.508,4.508,0,0,0-.32-.96.719.719,0,0,0-.24-.36.538.538,0,0,0-.36-.08,3.293,3.293,0,0,0-1.68.6,23.012,23.012,0,0,0-2.56,1.84c-.84.72-1.72,1.64-1.48,2.8A6.1,6.1,0,0,1,424.288,127.1Z" transform="translate(-415.844 -106.246)" fill="#f29d7e"/>
          <path id="Path_251" data-name="Path 251" d="M410.771,106.356c-.12.72-.64,1.4-.44,2.12h.76c.28.44.52.92.8,1.36.24.44.76.92,1.12.56a1.3,1.3,0,0,0,.72,1.72,4.522,4.522,0,0,0,2.08.2,1.047,1.047,0,0,0,.68-.2,1.569,1.569,0,0,0,.32-.56,8.14,8.14,0,0,1,5.04-4.76c.16-.04.32-.12.36-.24a.451.451,0,0,0-.04-.32c-.24-.56-.48-1.16-.72-1.72-.28-.68-.72-1.48-1.44-1.56a1.489,1.489,0,0,0-.92-1.6c-.6-.32-1.28-.4-1.88-.68a8.013,8.013,0,0,1-1.92-1.56,2.853,2.853,0,0,0-4.76,1.12,6.038,6.038,0,0,0-.24,2.24C410.211,103.8,410.931,105.116,410.771,106.356Z" transform="translate(-407.806 -94.462)" fill="#ffbda9"/>
          <path id="Path_252" data-name="Path 252" d="M404.093,93.62a1.962,1.962,0,0,0,1.6,1.84c1.24.16,2.24-1.08,3.48-1.28a.681.681,0,0,1,.56.08.8.8,0,0,1,.32.4c.4.84.2,1.92.72,2.72a9.729,9.729,0,0,1,.8,1c.2.36.2.84.4,1.2s.76.6,1,.28a4.39,4.39,0,0,1-.08-1.76,1.944,1.944,0,0,1,1-1.4,1.341,1.341,0,0,1,1.6.36c.36.56.16,1.36.52,1.96.24.36.64.56.88.88s.36.72.6,1.04a1.368,1.368,0,0,0,1.6.4,14.474,14.474,0,0,1-.04-2.28,29.722,29.722,0,0,1,.64-3.28,5.846,5.846,0,0,0-.16-3.32,3.72,3.72,0,0,0-3.72-2.2,1.192,1.192,0,0,0-.68-1.04,2.633,2.633,0,0,0-1.24-.36,10.869,10.869,0,0,0-6.04.96C406.333,90.42,403.973,91.7,404.093,93.62Z" transform="translate(-404.089 -88.767)" fill="#1b4e61"/>
        </g>
      </g>
    </g>
    <g id="Group_67" data-name="Group 67" transform="translate(0 37.614)">
      <rect id="Rectangle_36" data-name="Rectangle 36" width="56.322" height="9.8" transform="translate(0.022 62.102) rotate(-90)" fill="#ec7772"/>
      <path id="Path_253" data-name="Path 253" d="M346.74,188.6v-.88a4.917,4.917,0,0,0-4.92-4.92h0a4.917,4.917,0,0,0-4.92,4.92v.88Z" transform="translate(-336.9 -182.8)" fill="#b94a5b"/>
      <rect id="Rectangle_37" data-name="Rectangle 37" width="56.322" height="3.28" transform="translate(0.048 62.127) rotate(-90)" fill="#dd5858"/>
      <rect id="Rectangle_38" data-name="Rectangle 38" width="56.322" height="3.2" transform="translate(3.342 62.102) rotate(-90)" fill="#f98a8a"/>
      <path id="Path_254" data-name="Path 254" d="M346.8,338.1H337l5.12,8.24Z" transform="translate(-336.96 -275.978)" fill="#ce422c"/>
      <rect id="Rectangle_39" data-name="Rectangle 39" width="1.36" height="9.8" transform="translate(0.021 7.182) rotate(-90)" fill="#fdd17a"/>
    </g>
  </g>
  <g id="Group_72" data-name="Group 72" transform="translate(50.495 83.855)">
    <g id="Group_69" data-name="Group 69" transform="translate(8.819 37.354)">
      <path id="Path_255" data-name="Path 255" d="M306.943,339.755a7.73,7.73,0,0,0,1.92-.08c.72-.08,1.4-.16,2.12-.24a2.289,2.289,0,0,1,1.04.04.85.85,0,0,1,.64.72c.04.48-.44.8-.84,1a9.266,9.266,0,0,1-5.52,1.2,3.125,3.125,0,0,1-2.2-1.2c-.36-.56-.44-1.84.32-2.16.4-.16.72.16,1.08.32A6.46,6.46,0,0,0,306.943,339.755Z" transform="translate(-241.613 -324.627)" fill="#0f0f23"/>
      <path id="Path_256" data-name="Path 256" d="M302.448,342.828a12.88,12.88,0,0,0,3.72-.28,10.452,10.452,0,0,1,1.52-.36,1.728,1.728,0,0,1,1.44.48,1.533,1.533,0,0,1,.12,1.6,3.7,3.7,0,0,1-1.08,1.28,14.014,14.014,0,0,1-8.2,3.68,8.571,8.571,0,0,0-2.48.24c-.92.28-1.76,1-2.68.8a2.6,2.6,0,0,1-.88-.44,1.162,1.162,0,0,1-.44-.44.941.941,0,0,1,.2-.64,14.181,14.181,0,0,0,1.44-3.52,9.437,9.437,0,0,1,.84-2.08,2.9,2.9,0,0,1,1.24-1.16c.6-.24.92.16,1.48.36A13.112,13.112,0,0,0,302.448,342.828Z" transform="translate(-235.399 -326.381)" fill="#1c1c38"/>
      <path id="Path_257" data-name="Path 257" d="M249,312.21c.84.48,1.68.92,2.56,1.32,2.56,1.16,5.4,1.72,7.64,3.36-.36.72-.68,1.4-1.04,2.12-.24.48-.52,1-1,1.12a1.953,1.953,0,0,1-1.24-.2c-2.76-1.12-5.52-2.2-8.28-3.32-5.68-2.28-11.4-4.56-16.92-7.2a7.267,7.267,0,0,1-2.2-1.36,2.636,2.636,0,0,1-.8-2.36c.32-1.2,1.64-1.8,2.8-2.2a2.815,2.815,0,0,1,1.76-.36,9.476,9.476,0,0,1,1.84.8c1.24.56,2.48,1.2,3.68,1.84,2.44,1.32,4.8,2.72,7.2,4.16C246.362,310.69,247.682,311.45,249,312.21Z" transform="translate(-195.913 -303.082)" fill="#165260"/>
      <path id="Path_258" data-name="Path 258" d="M206.89,329.074c-.4.64-2.24-1.12-2.92-1.36-1.92-.72-3.88-1.68-5.96-2.52-4.16-1.72-8.28-3.4-12.44-5.12a8.886,8.886,0,0,0-3.6-.92,8.715,8.715,0,0,0-3.88,1.48c-3.72,2.16-7.44,4.32-11.12,6.52a27.348,27.348,0,0,1-5.56,2.68,26.323,26.323,0,0,1-4.32.72,10.8,10.8,0,0,1-4.24-.2,11.116,11.116,0,0,1-3.96-2.84,1.558,1.558,0,0,1-.6-1,1.405,1.405,0,0,1,.2-.8,30.119,30.119,0,0,1,2.68-4.68,6.562,6.562,0,0,1,1.36-1.6,8.426,8.426,0,0,1,2.28-1.24c2.8-1.2,5.24-3,8.12-3.96,4.52-1.48,9.68-1.8,13.8-4.2,1.48-.84,3-1.92,4.68-1.84a7.27,7.27,0,0,1,3.2,1.2c3.72,2.12,7.44,4.2,11.16,6.32a22.835,22.835,0,0,0,7.2,3.04c1.72.28,4.44,1.52,6.6,2.24C211.49,321.554,207.89,327.514,206.89,329.074Z" transform="translate(-148.28 -306.147)" fill="#1a5a6b"/>
    </g>
    <g id="Group_70" data-name="Group 70" transform="translate(0 19.711)">
      <path id="Path_259" data-name="Path 259" d="M175.95,295.072a2.41,2.41,0,0,0,.32,1.16,1.943,1.943,0,0,0,1.52.68,13,13,0,0,0,3.04-.24,3.438,3.438,0,0,1-1.36,1.56,7.912,7.912,0,0,1-2.68,1.28,2.468,2.468,0,0,1-2.24-.36,2.534,2.534,0,0,1-.64-1.04,14.922,14.922,0,0,1-1.32-8.2,3.956,3.956,0,0,1,1-2.28c.6-.56,2.4-1.04,2.44.2a21.845,21.845,0,0,1-.16,2.24c-.04.76-.04,1.56-.04,2.32C175.83,293.312,175.91,294.192,175.95,295.072Z" transform="translate(-153.963 -275.822)" fill="#f39e81"/>
      <path id="Path_260" data-name="Path 260" d="M201.418,306.851a2.859,2.859,0,0,1,1.44-.6c.68-.08,1.4.24,2.08.04a4.363,4.363,0,0,1,.68-.2,2.218,2.218,0,0,1,1.12.28.4.4,0,0,1,.2.16c.04.16-.08.28-.24.36a21.035,21.035,0,0,1-5.24,2.28,1.025,1.025,0,0,1-1.36-.8C200.058,307.731,200.978,307.171,201.418,306.851Z" transform="translate(-170.551 -287.241)" fill="#f39e81"/>
      <path id="Path_261" data-name="Path 261" d="M142.595,327.4a45.423,45.423,0,0,1-2.92,4.32,8.419,8.419,0,0,0-1.36,2c-.2.52-.4,1.12-.92,1.28a1.391,1.391,0,0,1-.88-.16,5.494,5.494,0,0,1-1.8-1.36c-.36-.4-.64-.84-1-1.24-.36-.44-.8-.84-1.12-1.28a5.007,5.007,0,0,1-.72-1.64,18.406,18.406,0,0,1-.84-6.92.454.454,0,0,1,.12-.32.577.577,0,0,1,.28-.08,8.28,8.28,0,0,1,1.4.12,20.7,20.7,0,0,1,5.72,1.8c1.08.52,2.08,1.12,3.12,1.72a12.54,12.54,0,0,1,1.24.72C143.195,326.72,142.875,326.92,142.595,327.4Z" transform="translate(-129.088 -296.79)" fill="#fdd17a"/>
      <path id="Path_262" data-name="Path 262" d="M128.4,304.336c.2,1.52.52,3.24,1.72,4.16a6.354,6.354,0,0,0,3.68.84,22.6,22.6,0,0,0,4.04-.2,17.231,17.231,0,0,0,3.72-1.08c3.8-1.52,7.28-3.68,11-5.36a51.248,51.248,0,0,0,7.16-3.44.378.378,0,0,0-.16-.68l-2.4-.24a6.43,6.43,0,0,0-1.24-.04,6.274,6.274,0,0,0-1.88.52c-.84.32-1.68.64-2.48,1.04a14.03,14.03,0,0,1-2.2,1.08,7.023,7.023,0,0,1-1.8.28q-4.44.42-8.88.48a3.631,3.631,0,0,1-1.32-.16c-1-.4-1.36-1.64-1.4-2.72-.08-1.28.04-2.56-.08-3.8a4.76,4.76,0,0,0-1.56-3.36,4.1,4.1,0,0,0-3.04-.8,4.9,4.9,0,0,0-3.48,1.44c-.8.96-.32,1.32-.36,2.68,0,1.44.28,3.16.4,4.6C128,301.1,128.2,302.7,128.4,304.336Z" transform="translate(-126.894 -278.086)" fill="#f5b7a0"/>
      <path id="Path_263" data-name="Path 263" d="M145.021,261.786a5.747,5.747,0,0,1,1.68,1.08,5.238,5.238,0,0,1,1.16,2.36,22.368,22.368,0,0,1,.84,5.64c-.6.12-1.2.2-1.8.32-.12.04-.24.04-.32.16a.431.431,0,0,0-.08.32,22.437,22.437,0,0,0,.64,7.12,12.338,12.338,0,0,1,.52,2.64.658.658,0,0,1-.08.4c-.16.32-.6.32-.96.32-1.76,0-3.44.72-5.2,1.12a13.706,13.706,0,0,1-5.56.08,1.723,1.723,0,0,1-.88-.36,2.023,2.023,0,0,1-.48-1.2c-.36-2.6-.6-5.2-.76-7.84a.806.806,0,0,0-.12-.44.638.638,0,0,0-.48-.16,11.013,11.013,0,0,0-3.44.04,3.8,3.8,0,0,0-2.72,1.92c-.08.2-.28.48-.48.36a.434.434,0,0,1-.16-.36c-.04-1.04-.04-2.12-.08-3.16a21.19,21.19,0,0,1,.04-2.76,10.662,10.662,0,0,1,3.2-6.64c.76-.72,1.6-1.32,2.32-2.08a5.338,5.338,0,0,1,1.96-1.6,3.923,3.923,0,0,1,1.8.04c1.76.32,3.56.8,5.32,1.08A12.1,12.1,0,0,1,145.021,261.786Z" transform="translate(-126.234 -258.976)" fill="#fdd17a"/>
    </g>
    <g id="Group_71" data-name="Group 71" transform="translate(0.066)">
      <path id="Path_264" data-name="Path 264" d="M152.694,222.686c.12.2.16.4.28.6a2.2,2.2,0,0,0,1,1,5.56,5.56,0,0,1,.84.44.805.805,0,0,1,.32.84c-.12.36-.64.6-.48.96a.538.538,0,0,0,.24.28,1.936,1.936,0,0,1,.64,1.44,1.094,1.094,0,0,0,.08.64l.24.24a1.221,1.221,0,0,1-.04,1.76,1.912,1.912,0,0,1-1.12.4,21.322,21.322,0,0,0-4.76.92,2.343,2.343,0,0,1-1.24.28c-.88-.2-1.24-1.48-2.16-1.44-.32,0-.56.2-.88.24a1.624,1.624,0,0,1-1.32-.44,2.927,2.927,0,0,1-.76-1.2,3.546,3.546,0,0,1-.4-1.92,1.912,1.912,0,0,1,1.04-1.56,6.4,6.4,0,0,1,.84-.2,5.048,5.048,0,0,0,2.6-2.32c.6-.88,1.4-2.08,2.52-2.28A2.838,2.838,0,0,1,152.694,222.686Z" transform="translate(-136.453 -216.686)" fill="#f5b7a0"/>
      <path id="Path_265" data-name="Path 265" d="M153.56,245.831a8.168,8.168,0,0,0-.88,2.32,23.1,23.1,0,0,0-.76,3.6,2.009,2.009,0,0,1-.24.96,1.113,1.113,0,0,1-1.16.24,4.667,4.667,0,0,1-1.04-.68,20.809,20.809,0,0,0-5.36-2.36c-.16-.04-.32-.16-.32-.32.88-.24,1.84-.56,2.16-1.4a3.534,3.534,0,0,0,.08-1.12c-.08-.92-.16-1.88-.2-2.8a1.362,1.362,0,0,1,.04-.4c.08-.24.36-.32.6-.36a17.71,17.71,0,0,1,3.84.24,27.339,27.339,0,0,1,4.44.12c.16.04.72.16.76.36,0,.24-.48.32-.64.4A2.784,2.784,0,0,0,153.56,245.831Z" transform="translate(-136.84 -229.95)" fill="#f39e81"/>
      <path id="Path_266" data-name="Path 266" d="M140,211.14a1.976,1.976,0,0,1,2.2,1.24,5.664,5.664,0,0,1,.16.8,3.665,3.665,0,0,1-.04,1.32,1.462,1.462,0,0,1-.8,1c-.28.08-.6.08-.8.28a1.468,1.468,0,0,0-.36.8,1.78,1.78,0,0,1-1.48,1.2c-.2.04-.44.04-.56.2a1.175,1.175,0,0,0-.12.4,1.375,1.375,0,0,1-.88,1.04,4.835,4.835,0,0,0-.72.2.7.7,0,0,0-.48.52c-.04.32.28.56.52.76.24.24.4.64.16.84a.551.551,0,0,1-.68-.08c-.2-.12-.4-.32-.64-.32a.738.738,0,0,0-.6.48,1.631,1.631,0,0,0,.16,1.6,3.053,3.053,0,0,1,.32.44c.16.4-.04.92.24,1.28.12.12.32.2.4.36.08.2-.04.44.04.64.04.16.2.28.32.4a1.249,1.249,0,0,1-.28,1.8,1.06,1.06,0,0,0-.56.52,1.777,1.777,0,0,1-1.6.64c-.68.8-2.08.4-2.76-.44a2.907,2.907,0,0,0-.32-.36,2.752,2.752,0,0,0-.32-.12,1.983,1.983,0,0,1-1.28-2.44,3.229,3.229,0,0,1-1.92-2.32,2.436,2.436,0,0,1,0-1.2.742.742,0,0,0,.08-.28.719.719,0,0,0-.16-.36,4.426,4.426,0,0,1-.84-2.52,2.1,2.1,0,0,1,.24-1.12,1.077,1.077,0,0,1,.96-.56,12.065,12.065,0,0,1-.08-2.08,1.714,1.714,0,0,1,2.24-1.2,1.882,1.882,0,0,1,.44-1.8,1.806,1.806,0,0,1,1.76-.48.937.937,0,0,1,.68-.88,2.854,2.854,0,0,1,1.16-.08,1.666,1.666,0,0,1,.92-1.36,1.618,1.618,0,0,1,1.64.16,4.08,4.08,0,0,1,1-.36,4.614,4.614,0,0,1,1.04.12C139.2,209.9,139.6,210.42,140,211.14Z" transform="translate(-126.4 -209.7)" fill="#e8605c"/>
    </g>
    <path id="Path_267" data-name="Path 267" d="M233.44,261.5,225,262.78,217,279.5l9.04-2.56Z" transform="translate(-180.693 -240.779)" fill="#0b3a47"/>
    <path id="Path_268" data-name="Path 268" d="M205.461,300.1l.08,1.36-21.881,9.76-.96-1.48,13.68-6.56.04-.52Z" transform="translate(-160.113 -263.939)" fill="#547989"/>
  </g>
</svg>
