<svg id="Group_97" data-name="Group 97" xmlns="http://www.w3.org/2000/svg" xmlns:xlink="http://www.w3.org/1999/xlink" width="216.46" height="140.008" viewBox="0 0 216.46 140.008">
  <defs>
    <linearGradient id="linear-gradient" x1="0.612" y1="1.667" x2="0.438" y2="-0.18" gradientUnits="objectBoundingBox">
      <stop offset="0" stop-color="#f20000"/>
      <stop offset="1" stop-color="#ff9100"/>
    </linearGradient>
    <linearGradient id="linear-gradient-2" x1="0.242" y1="-0.101" x2="0.758" y2="1.4" gradientUnits="objectBoundingBox">
      <stop offset="0" stop-color="#93006d"/>
      <stop offset="0.726" stop-color="#40006b"/>
      <stop offset="1" stop-color="#0f1369"/>
    </linearGradient>
    <linearGradient id="linear-gradient-3" x1="15.914" y1="0.5" x2="16.914" y2="0.5" gradientUnits="objectBoundingBox">
      <stop offset="0" stop-color="#3d3d61"/>
      <stop offset="1" stop-color="#7e7fa5"/>
    </linearGradient>
  </defs>
  <g id="Group_77" data-name="Group 77" transform="translate(1.421 53.569)">
    <path id="Path_269" data-name="Path 269" d="M216.3,477.3a3.3,3.3,0,0,0,2.476.832,3.382,3.382,0,0,0,2.415-1.015,3.7,3.7,0,0,0-4.891.182Z" transform="translate(-173.824 -433.182)" fill="#f66d75"/>
    <path id="Path_270" data-name="Path 270" d="M129.992,367.7a89.149,89.149,0,0,0,.934-14.328c-.02-2.395-.142-4.789-.345-7.164-.183-2.374-.467-4.749-.812-7.123a132.264,132.264,0,0,0-2.821-14.044c-.589-2.314-1.258-4.607-1.969-6.88-.731-2.273-1.5-4.526-2.395-6.758l-.284.122c.852,2.212,1.6,4.485,2.293,6.758s1.319,4.566,1.887,6.88a131.859,131.859,0,0,1,2.638,14c.3,2.354.568,4.728.71,7.083.162,2.375.264,4.749.244,7.123a89.455,89.455,0,0,1-1.1,14.165Z" transform="translate(-98.901 -301.76)" fill="#ac4492"/>
    <path id="Path_271" data-name="Path 271" d="M110.991,263.9a6.361,6.361,0,0,1,2.719,4.647,6.516,6.516,0,0,1-1.319,5.236,7.124,7.124,0,0,1-1.4-9.883Z" transform="translate(-88.769 -263.9)" fill="#ac4492"/>
    <path id="Path_272" data-name="Path 272" d="M135.024,300.372a5.546,5.546,0,0,1-5.337,5.682,5.546,5.546,0,0,1,5.337-5.682Z" transform="translate(-104.765 -292.964)" fill="#ac4492"/>
    <path id="Path_273" data-name="Path 273" d="M100.607,318.75a5.532,5.532,0,0,1-7.407-2.395,5.066,5.066,0,0,1,4.2-.324A5.158,5.158,0,0,1,100.607,318.75Z" transform="translate(-75.706 -305.214)" fill="#ac4492"/>
    <path id="Path_274" data-name="Path 274" d="M107.207,342.05a5.532,5.532,0,0,1-7.407-2.395,5.532,5.532,0,0,1,7.407,2.395Z" transform="translate(-80.967 -323.785)" fill="#ac4492"/>
    <path id="Path_275" data-name="Path 275" d="M115.207,368.55a5.532,5.532,0,0,1-7.407-2.395,5.066,5.066,0,0,1,4.2-.325A4.992,4.992,0,0,1,115.207,368.55Z" transform="translate(-87.343 -344.907)" fill="#ac4492"/>
    <path id="Path_276" data-name="Path 276" d="M120.507,393.15a5.532,5.532,0,0,1-7.407-2.395,5.532,5.532,0,0,1,7.407,2.395Z" transform="translate(-91.568 -364.515)" fill="#ac4492"/>
    <path id="Path_277" data-name="Path 277" d="M147.4,388.15a5.532,5.532,0,0,0,7.407-2.395,5.066,5.066,0,0,0-4.2-.325A5.159,5.159,0,0,0,147.4,388.15Z" transform="translate(-118.907 -360.529)" fill="#ac4492"/>
    <path id="Path_278" data-name="Path 278" d="M142.124,323.773a5.546,5.546,0,0,1-5.337,5.682,5.075,5.075,0,0,1,1.5-3.937A5.17,5.17,0,0,1,142.124,323.773Z" transform="translate(-110.425 -311.616)" fill="#ac4492"/>
    <path id="Path_279" data-name="Path 279" d="M150.424,350.458a5.546,5.546,0,0,1-5.337,5.682,5.074,5.074,0,0,1,1.5-3.937A4.967,4.967,0,0,1,150.424,350.458Z" transform="translate(-117.04 -332.883)" fill="#ac4492"/>
    <g id="Group_74" data-name="Group 74" transform="translate(0 28.067)">
      <path id="Path_280" data-name="Path 280" d="M33.641,425.6a33.962,33.962,0,0,1,4.181,2.78,49.1,49.1,0,0,1,3.836,3.247c1.218,1.157,2.374,2.375,3.47,3.633,1.1,1.278,2.111,2.618,3.085,4a47.257,47.257,0,0,1,4.81,8.848,48.643,48.643,0,0,1,2.78,9.7l-.71.122a47.614,47.614,0,0,0-2.6-9.6,45.758,45.758,0,0,0-4.627-8.828c-.934-1.38-1.928-2.719-2.983-4-1.076-1.278-2.212-2.5-3.409-3.673-1.2-1.157-2.456-2.273-3.754-3.308A32.89,32.89,0,0,0,33.6,425.7Z" transform="translate(-28.202 -420.851)" fill="#ac4492"/>
      <path id="Path_281" data-name="Path 281" d="M7,406.436a4.613,4.613,0,0,0,2.07,3.227,4.581,4.581,0,0,0,3.734.852,4.613,4.613,0,0,0-2.07-3.227A4.581,4.581,0,0,0,7,406.436Z" transform="translate(-7 -405.482)" fill="#ac4492"/>
      <path id="Path_282" data-name="Path 282" d="M43.125,402.2a5.006,5.006,0,0,0,.406,7.062,4.579,4.579,0,0,0,1.258-3.612A4.656,4.656,0,0,0,43.125,402.2Z" transform="translate(-34.784 -402.2)" fill="#ac4492"/>
      <path id="Path_283" data-name="Path 283" d="M63.26,414.4a5.065,5.065,0,0,0-1.5,6.941,4.632,4.632,0,0,0,2.171-3.166A4.538,4.538,0,0,0,63.26,414.4Z" transform="translate(-50.008 -411.924)" fill="#ac4492"/>
      <path id="Path_284" data-name="Path 284" d="M79.66,429.5a5.065,5.065,0,0,0-1.5,6.941,4.631,4.631,0,0,0,2.171-3.166A4.538,4.538,0,0,0,79.66,429.5Z" transform="translate(-63.08 -423.96)" fill="#ac4492"/>
      <path id="Path_285" data-name="Path 285" d="M93.753,444.9a4.638,4.638,0,0,0-2.9,2.5,4.517,4.517,0,0,0-.3,3.815,4.638,4.638,0,0,0,2.9-2.5A4.513,4.513,0,0,0,93.753,444.9Z" transform="translate(-73.357 -436.234)" fill="#ac4492"/>
      <path id="Path_286" data-name="Path 286" d="M104.163,464.291a4.513,4.513,0,0,0-4.2,4.729,4.513,4.513,0,0,0,4.2-4.729Z" transform="translate(-81.068 -451.689)" fill="#ac4492"/>
      <path id="Path_287" data-name="Path 287" d="M113.763,476.491a4.513,4.513,0,0,0-4.2,4.729,4.513,4.513,0,0,0,4.2-4.729Z" transform="translate(-88.72 -461.413)" fill="#ac4492"/>
      <path id="Path_288" data-name="Path 288" d="M121.615,494.39a3.509,3.509,0,0,0-2.638,1.3,3.579,3.579,0,0,0-.974,2.76,3.508,3.508,0,0,0,2.638-1.3A3.459,3.459,0,0,0,121.615,494.39Z" transform="translate(-95.455 -475.679)" fill="#ac4492"/>
      <path id="Path_289" data-name="Path 289" d="M124.542,512.1a3,3,0,0,0-2.456-.041,2.892,2.892,0,0,0-1.786,1.685,3.259,3.259,0,0,0,4.242-1.644Z" transform="translate(-97.306 -489.574)" fill="#ac4492"/>
      <path id="Path_290" data-name="Path 290" d="M129.133,525.965a2.6,2.6,0,1,0-1.786.812A2.3,2.3,0,0,0,129.133,525.965Z" transform="translate(-101.451 -500.313)" fill="#ac4492"/>
      <path id="Path_291" data-name="Path 291" d="M17.1,436.75a4.6,4.6,0,0,0,3.815.223,4.608,4.608,0,0,0,2.882-2.537,4.6,4.6,0,0,0-3.815-.223A4.665,4.665,0,0,0,17.1,436.75Z" transform="translate(-15.05 -427.476)" fill="#ac4492"/>
      <path id="Path_292" data-name="Path 292" d="M32,449.05a5.036,5.036,0,0,0,6.7-2.314,4.6,4.6,0,0,0-3.815-.223A4.556,4.556,0,0,0,32,449.05Z" transform="translate(-26.926 -437.28)" fill="#ac4492"/>
      <path id="Path_293" data-name="Path 293" d="M47.9,464.15a4.6,4.6,0,0,0,3.815.223,4.556,4.556,0,0,0,2.882-2.537,5.036,5.036,0,0,0-6.7,2.313Z" transform="translate(-39.6 -449.315)" fill="#ac4492"/>
      <path id="Path_294" data-name="Path 294" d="M65.8,476.294a4.091,4.091,0,0,0,5.439-1.867,4.091,4.091,0,0,0-5.439,1.867Z" transform="translate(-53.867 -459.429)" fill="#ac4492"/>
      <path id="Path_295" data-name="Path 295" d="M79.2,487.447a3.2,3.2,0,0,0,4.384-1.522,2.954,2.954,0,0,0-2.517-.183A3.074,3.074,0,0,0,79.2,487.447Z" transform="translate(-64.547 -468.634)" fill="#ac4492"/>
      <path id="Path_296" data-name="Path 296" d="M87.3,499.847a3.2,3.2,0,0,0,4.384-1.522,3.2,3.2,0,0,0-4.384,1.522Z" transform="translate(-71.004 -478.518)" fill="#ac4492"/>
      <path id="Path_297" data-name="Path 297" d="M96,513.621a2.883,2.883,0,0,0,2.293.508,2.971,2.971,0,0,0,2.029-1.2,3.209,3.209,0,0,0-4.323.69Z" transform="translate(-77.938 -490.019)" fill="#ac4492"/>
      <path id="Path_298" data-name="Path 298" d="M104.5,523.718a2.789,2.789,0,0,0,3.186-2.171,2.538,2.538,0,0,0-2.029.447A2.6,2.6,0,0,0,104.5,523.718Z" transform="translate(-84.713 -497.274)" fill="#ac4492"/>
      <path id="Path_299" data-name="Path 299" d="M113.981,532.672a2.151,2.151,0,0,0,2.09-2.09,1.927,1.927,0,0,0-1.461.629A1.955,1.955,0,0,0,113.981,532.672Z" transform="translate(-92.267 -504.523)" fill="#ac4492"/>
      <path id="Path_300" data-name="Path 300" d="M120.24,538.049a1.18,1.18,0,0,0,.934-.345,1.156,1.156,0,0,0,.345-.934,1.18,1.18,0,0,0-.934.345A1.057,1.057,0,0,0,120.24,538.049Z" transform="translate(-97.246 -509.454)" fill="#ac4492"/>
      <path id="Path_301" data-name="Path 301" d="M122.266,542.248a1.18,1.18,0,0,0,.934-.345,1.156,1.156,0,0,0,.345-.934,1.181,1.181,0,0,0-.934.345A1.113,1.113,0,0,0,122.266,542.248Z" transform="translate(-98.867 -512.801)" fill="#ac4492"/>
    </g>
    <g id="Group_75" data-name="Group 75" transform="translate(26.728 11.202)">
      <path id="Path_302" data-name="Path 302" d="M179.441,353.5a47.291,47.291,0,0,0-4.018,5.2,54.479,54.479,0,0,0-3.369,5.642,63.739,63.739,0,0,0-2.78,5.966c-.812,2.029-1.522,4.12-2.131,6.23A61.089,61.089,0,0,0,164.91,389.5a63.633,63.633,0,0,0,.629,13.171l.934-.142a64.705,64.705,0,0,1-.832-12.988,61.336,61.336,0,0,1,2.009-12.867,59.936,59.936,0,0,1,2.029-6.21,65.36,65.36,0,0,1,2.679-5.966,60.259,60.259,0,0,1,3.267-5.662,45.071,45.071,0,0,1,3.917-5.236Z" transform="translate(-159.512 -346.519)" fill="#f66d75"/>
      <path id="Path_303" data-name="Path 303" d="M240.238,319.1a6.59,6.59,0,0,1-5.459,7.468,5.945,5.945,0,0,1,1.2-4.85A6.033,6.033,0,0,1,240.238,319.1Z" transform="translate(-215.174 -319.1)" fill="#f66d75"/>
      <path id="Path_304" data-name="Path 304" d="M206.021,330.6a6,6,0,0,1,3.064,3.957,6.061,6.061,0,0,1-.589,4.972,6.61,6.61,0,0,1-2.476-8.93Z" transform="translate(-191.673 -328.266)" fill="#f66d75"/>
      <path id="Path_305" data-name="Path 305" d="M183.493,355.9a5.957,5.957,0,0,1,4,3,6.056,6.056,0,0,1,.751,4.952,6.614,6.614,0,0,1-4.749-7.955Z" transform="translate(-174.198 -348.432)" fill="#f66d75"/>
      <path id="Path_306" data-name="Path 306" d="M169.593,381.4a5.959,5.959,0,0,1,4,3,6.056,6.056,0,0,1,.751,4.952,6.614,6.614,0,0,1-4.749-7.955Z" transform="translate(-163.119 -368.757)" fill="#f66d75"/>
      <path id="Path_307" data-name="Path 307" d="M153.73,408.3a6.584,6.584,0,0,1,6.636,6.454,6.018,6.018,0,0,1-4.648-1.867A5.923,5.923,0,0,1,153.73,408.3Z" transform="translate(-150.665 -390.181)" fill="#f66d75"/>
      <path id="Path_308" data-name="Path 308" d="M145.5,437a5.893,5.893,0,0,1,7.184,4.079A5.893,5.893,0,0,1,145.5,437Z" transform="translate(-144.12 -412.865)" fill="#f66d75"/>
      <path id="Path_309" data-name="Path 309" d="M138.7,456.1a5.892,5.892,0,0,1,7.184,4.079A5.893,5.893,0,0,1,138.7,456.1Z" transform="translate(-138.7 -428.089)" fill="#f66d75"/>
      <path id="Path_310" data-name="Path 310" d="M139.5,480.726a5.026,5.026,0,0,1,6.149,3.511,5.026,5.026,0,0,1-6.149-3.511Z" transform="translate(-139.338 -447.748)" fill="#f66d75"/>
      <path id="Path_311" data-name="Path 311" d="M140.7,502.686a3.942,3.942,0,0,1,3.024-1.1,3.88,3.88,0,0,1,2.922,1.339,4.241,4.241,0,0,1-5.946-.244Z" transform="translate(-140.294 -464.553)" fill="#f66d75"/>
      <path id="Path_312" data-name="Path 312" d="M144.5,520.1a3.118,3.118,0,0,1,2.009-1.6,1.383,1.383,0,1,1-2.009,1.6Z" transform="translate(-143.323 -477.907)" fill="#f66d75"/>
      <path id="Path_313" data-name="Path 313" d="M230.475,366.626a5.94,5.94,0,0,1-4.647,1.867,6.1,6.1,0,0,1-4.627-1.928,6.615,6.615,0,0,1,9.275.061Z" transform="translate(-204.457 -355.444)" fill="#f66d75"/>
      <path id="Path_314" data-name="Path 314" d="M217.174,388.026a5.941,5.941,0,0,1-4.647,1.867,6.1,6.1,0,0,1-4.627-1.928,6.615,6.615,0,0,1,9.274.061Z" transform="translate(-193.856 -372.501)" fill="#f66d75"/>
      <path id="Path_315" data-name="Path 315" d="M203.875,413.326a5.94,5.94,0,0,1-4.647,1.867,6.1,6.1,0,0,1-4.627-1.928,5.941,5.941,0,0,1,4.647-1.867A6.033,6.033,0,0,1,203.875,413.326Z" transform="translate(-183.256 -392.667)" fill="#f66d75"/>
      <path id="Path_316" data-name="Path 316" d="M192.829,434.761a5.366,5.366,0,0,1-7.529-.041,5.366,5.366,0,0,1,7.529.041Z" transform="translate(-175.843 -410.042)" fill="#f66d75"/>
      <path id="Path_317" data-name="Path 317" d="M185.968,453.217a3.878,3.878,0,0,1-3.044,1.279,3.764,3.764,0,0,1-3.024-1.319,3.813,3.813,0,0,1,3.044-1.279A3.956,3.956,0,0,1,185.968,453.217Z" transform="translate(-171.539 -424.947)" fill="#f66d75"/>
      <path id="Path_318" data-name="Path 318" d="M181.268,471.917a3.814,3.814,0,0,1-3.044,1.279,3.765,3.765,0,0,1-3.024-1.319,4.193,4.193,0,0,1,6.068.04Z" transform="translate(-167.793 -439.852)" fill="#f66d75"/>
      <path id="Path_319" data-name="Path 319" d="M176.742,491.83a4.211,4.211,0,0,1-5.642.954,3.775,3.775,0,0,1,2.638-1.583A3.7,3.7,0,0,1,176.742,491.83Z" transform="translate(-164.525 -456.213)" fill="#f66d75"/>
      <path id="Path_320" data-name="Path 320" d="M175.25,508.467a3.634,3.634,0,1,1-2.151-1.644A3.322,3.322,0,0,1,175.25,508.467Z" transform="translate(-163.967 -468.609)" fill="#f66d75"/>
      <path id="Path_321" data-name="Path 321" d="M172.55,522.6a2.786,2.786,0,0,1-3.45-1.7,2.785,2.785,0,0,1,3.45,1.7Z" transform="translate(-162.93 -479.822)" fill="#f66d75"/>
      <path id="Path_322" data-name="Path 322" d="M171.011,530.715a1.47,1.47,0,0,1-1.3-.041,1.438,1.438,0,0,1-.812-.995,1.47,1.47,0,0,1,1.3.041A1.411,1.411,0,0,1,171.011,530.715Z" transform="translate(-162.771 -486.839)" fill="#f66d75"/>
      <path id="Path_323" data-name="Path 323" d="M170.211,536.716a1.47,1.47,0,0,1-1.3-.041,1.438,1.438,0,0,1-.812-.995,1.468,1.468,0,0,1,1.3.04A1.364,1.364,0,0,1,170.211,536.716Z" transform="translate(-162.133 -491.622)" fill="#f66d75"/>
    </g>
    <g id="Group_76" data-name="Group 76" transform="translate(8.524 5.581)">
      <path id="Path_324" data-name="Path 324" d="M82.081,329.8a52.163,52.163,0,0,1,4.059,5.8c1.218,2.009,2.334,4.12,3.349,6.251.994,2.131,1.887,4.323,2.679,6.555a70.9,70.9,0,0,1,1.969,6.819,65.707,65.707,0,0,1,1.725,14.084,67.546,67.546,0,0,1-1.38,14.145l-.994-.2a68.418,68.418,0,0,0,1.563-13.942,65.929,65.929,0,0,0-1.482-13.963c-.507-2.293-1.116-4.566-1.847-6.8-.751-2.233-1.6-4.424-2.557-6.555a65.246,65.246,0,0,0-3.227-6.271A49.889,49.889,0,0,0,82,329.881Z" transform="translate(-75.303 -322.007)" fill="#f14e76"/>
      <path id="Path_325" data-name="Path 325" d="M56.2,291.4a7.115,7.115,0,0,0,5.479,8.341A7.115,7.115,0,0,0,56.2,291.4Z" transform="translate(-54.572 -291.4)" fill="#f14e76"/>
      <path id="Path_326" data-name="Path 326" d="M97.843,306.6a7.1,7.1,0,0,0-3.125,9.477,7.1,7.1,0,0,0,3.125-9.477Z" transform="translate(-84.814 -303.515)" fill="#f14e76"/>
      <path id="Path_327" data-name="Path 327" d="M116.231,335.1a6.4,6.4,0,0,0-4.465,3.024,6.474,6.474,0,0,0-1.055,5.3,6.4,6.4,0,0,0,4.465-3.024A6.5,6.5,0,0,0,116.231,335.1Z" transform="translate(-98.027 -326.231)" fill="#f14e76"/>
      <path id="Path_328" data-name="Path 328" d="M129.831,363.3a6.4,6.4,0,0,0-4.465,3.024,6.474,6.474,0,0,0-1.055,5.3,6.4,6.4,0,0,0,4.465-3.024A6.5,6.5,0,0,0,129.831,363.3Z" transform="translate(-108.867 -348.708)" fill="#f14e76"/>
      <path id="Path_329" data-name="Path 329" d="M139.647,393.069a6.468,6.468,0,0,0-5.094,1.766,6.387,6.387,0,0,0-2.374,4.83,7.083,7.083,0,0,0,7.468-6.6Z" transform="translate(-115.294 -372.389)" fill="#f14e76"/>
      <path id="Path_330" data-name="Path 330" d="M145.155,424.079a6.344,6.344,0,0,0-7.955,4.038,6.343,6.343,0,0,0,7.955-4.038Z" transform="translate(-119.3 -396.864)" fill="#f14e76"/>
      <path id="Path_331" data-name="Path 331" d="M151.455,444.979a6.343,6.343,0,0,0-7.955,4.038,6.344,6.344,0,0,0,7.955-4.038Z" transform="translate(-124.322 -413.523)" fill="#f14e76"/>
      <path id="Path_332" data-name="Path 332" d="M153.819,471.594a4.994,4.994,0,0,0-4.12.325,4.941,4.941,0,0,0-2.7,3.125,5,5,0,0,0,4.12-.325A4.883,4.883,0,0,0,153.819,471.594Z" transform="translate(-127.111 -434.78)" fill="#f14e76"/>
      <path id="Path_333" data-name="Path 333" d="M152.633,494.917a4.1,4.1,0,0,0-3.207-1.319,4.159,4.159,0,0,0-3.227,1.279,4.1,4.1,0,0,0,3.207,1.319A4.159,4.159,0,0,0,152.633,494.917Z" transform="translate(-126.474 -452.563)" fill="#f14e76"/>
      <path id="Path_334" data-name="Path 334" d="M153.671,513.417a3.4,3.4,0,0,0-2.09-1.826,3.33,3.33,0,0,0-2.78.142,3.705,3.705,0,0,0,4.871,1.685Z" transform="translate(-128.546 -466.72)" fill="#f14e76"/>
      <path id="Path_335" data-name="Path 335" d="M49,343.2a6.412,6.412,0,0,0,4.891,2.253,6.442,6.442,0,0,0,5.074-1.826,6.412,6.412,0,0,0-4.891-2.253A6.513,6.513,0,0,0,49,343.2Z" transform="translate(-49 -331.229)" fill="#f14e76"/>
      <path id="Path_336" data-name="Path 336" d="M62.2,366.99a7.111,7.111,0,0,0,9.965.426,7.111,7.111,0,0,0-9.965-.426Z" transform="translate(-59.521 -350.187)" fill="#f14e76"/>
      <path id="Path_337" data-name="Path 337" d="M75.2,395a7.111,7.111,0,0,0,9.965.426,6.411,6.411,0,0,0-4.891-2.253A6.514,6.514,0,0,0,75.2,395Z" transform="translate(-69.883 -372.516)" fill="#f14e76"/>
      <path id="Path_338" data-name="Path 338" d="M93.5,418.753a5.763,5.763,0,0,0,8.1.365,5.764,5.764,0,0,0-8.1-.365Z" transform="translate(-84.469 -391.721)" fill="#f14e76"/>
      <path id="Path_339" data-name="Path 339" d="M106.1,439.239a4.516,4.516,0,0,0,6.535.284,4.516,4.516,0,0,0-6.535-.284Z" transform="translate(-94.512 -408.229)" fill="#f14e76"/>
      <path id="Path_340" data-name="Path 340" d="M110.2,459.539a4.516,4.516,0,0,0,6.535.284,4.108,4.108,0,0,0-3.206-1.542A4.161,4.161,0,0,0,110.2,459.539Z" transform="translate(-97.78 -424.409)" fill="#f14e76"/>
      <path id="Path_341" data-name="Path 341" d="M116,481.146a4.1,4.1,0,0,0,2.76,1.847,4.013,4.013,0,0,0,3.267-.528,4.1,4.1,0,0,0-2.76-1.847A4,4,0,0,0,116,481.146Z" transform="translate(-102.403 -442.12)" fill="#f14e76"/>
      <path id="Path_342" data-name="Path 342" d="M119.8,499.561a3.925,3.925,0,0,0,5.3-1.2,3.925,3.925,0,0,0-5.3,1.2Z" transform="translate(-105.432 -455.908)" fill="#f14e76"/>
      <path id="Path_343" data-name="Path 343" d="M127.9,515.134a2.772,2.772,0,0,0,2.232-.061,2.708,2.708,0,0,0,1.563-1.583,2.766,2.766,0,0,0-2.232.061A2.6,2.6,0,0,0,127.9,515.134Z" transform="translate(-111.888 -468.255)" fill="#f14e76"/>
      <path id="Path_344" data-name="Path 344" d="M134.9,523.816a1.536,1.536,0,0,0,1.4.021,1.558,1.558,0,0,0,.934-1.035,1.535,1.535,0,0,0-1.4-.02A1.654,1.654,0,0,0,134.9,523.816Z" transform="translate(-117.467 -475.698)" fill="#f14e76"/>
      <path id="Path_345" data-name="Path 345" d="M135.4,530.316a1.533,1.533,0,0,0,1.4.021,1.556,1.556,0,0,0,.934-1.034,1.535,1.535,0,0,0-1.4-.021A1.609,1.609,0,0,0,135.4,530.316Z" transform="translate(-117.866 -480.879)" fill="#f14e76"/>
    </g>
    <path id="Path_346" data-name="Path 346" d="M158.916,479.559c2.232-3.267,4.566-6.454,7.083-9.518l-.041-.041c-2.577,3.024-4.992,6.149-7.286,9.376A112.017,112.017,0,0,0,152.26,489.4c-.467.832-.934,1.684-1.36,2.537.183.1.345.2.507.284.426-.872.873-1.725,1.319-2.577Q155.558,484.47,158.916,479.559Z" transform="translate(-121.696 -428.174)" fill="#f66d75"/>
    <path id="Path_347" data-name="Path 347" d="M226.788,449.7a3.236,3.236,0,0,0-2.516,4.181,3.042,3.042,0,0,0,2.212-1.522A3.006,3.006,0,0,0,226.788,449.7Z" transform="translate(-180.03 -411.993)" fill="#f66d75"/>
    <path id="Path_348" data-name="Path 348" d="M206.293,459.1a3.286,3.286,0,0,0,.02,2.6,3.36,3.36,0,0,0,1.745,1.948,3.686,3.686,0,0,0-1.766-4.546Z" transform="translate(-165.644 -419.486)" fill="#f66d75"/>
    <path id="Path_349" data-name="Path 349" d="M206.3,489.479a3.339,3.339,0,0,0,2.537.568,3.3,3.3,0,0,0,2.293-1.238,3.339,3.339,0,0,0-2.537-.568A3.223,3.223,0,0,0,206.3,489.479Z" transform="translate(-165.853 -442.681)" fill="#f66d75"/>
    <path id="Path_350" data-name="Path 350" d="M194.1,505.18a3.342,3.342,0,0,0,2.537.568,3.3,3.3,0,0,0,2.293-1.238,3.342,3.342,0,0,0-2.537-.568A3.154,3.154,0,0,0,194.1,505.18Z" transform="translate(-156.129 -455.195)" fill="#f66d75"/>
    <path id="Path_351" data-name="Path 351" d="M185.9,517.579a3.34,3.34,0,0,0,2.537.568,3.3,3.3,0,0,0,2.293-1.238,3.341,3.341,0,0,0-2.537-.568A3.3,3.3,0,0,0,185.9,517.579Z" transform="translate(-149.593 -465.078)" fill="#f66d75"/>
    <path id="Path_352" data-name="Path 352" d="M176.7,531.38a3.339,3.339,0,0,0,2.537.568,3.3,3.3,0,0,0,2.293-1.238,3.34,3.34,0,0,0-2.537-.568A3.3,3.3,0,0,0,176.7,531.38Z" transform="translate(-142.26 -476.078)" fill="#f66d75"/>
    <path id="Path_353" data-name="Path 353" d="M195.693,472.5a3.287,3.287,0,0,0,.02,2.6,3.36,3.36,0,0,0,1.745,1.948,3.287,3.287,0,0,0-.02-2.6A3.36,3.36,0,0,0,195.693,472.5Z" transform="translate(-157.195 -430.166)" fill="#f66d75"/>
    <path id="Path_354" data-name="Path 354" d="M185.593,486.4a3.284,3.284,0,0,0,.02,2.6,3.36,3.36,0,0,0,1.745,1.948,3.686,3.686,0,0,0-1.766-4.546Z" transform="translate(-149.145 -441.245)" fill="#f66d75"/>
    <path id="Path_355" data-name="Path 355" d="M175.993,500.3a3.285,3.285,0,0,0,.02,2.6,3.36,3.36,0,0,0,1.745,1.948,3.286,3.286,0,0,0-.02-2.6A3.36,3.36,0,0,0,175.993,500.3Z" transform="translate(-141.493 -452.324)" fill="#f66d75"/>
    <path id="Path_356" data-name="Path 356" d="M166.693,514a3.285,3.285,0,0,0,.02,2.6,3.36,3.36,0,0,0,1.745,1.948,3.287,3.287,0,0,0-.02-2.6A3.36,3.36,0,0,0,166.693,514Z" transform="translate(-134.08 -463.244)" fill="#f66d75"/>
    <path id="Path_357" data-name="Path 357" d="M109.928,576.6h12.2a8.571,8.571,0,0,1-.426,13.841H110.334a8.556,8.556,0,0,1-.406-13.841Z" transform="translate(-86.387 -513.14)" fill="url(#linear-gradient)"/>
    <rect id="Rectangle_40" data-name="Rectangle 40" width="13.475" height="1.339" transform="translate(36.461 63.95) rotate(180)" fill="#0072c5"/>
  </g>
  <ellipse id="Ellipse_24" data-name="Ellipse 24" cx="108.23" cy="5.622" rx="108.23" ry="5.622" transform="translate(0 128.252)" fill="#88a3d2"/>
  <g id="Group_84" data-name="Group 84" transform="translate(113.909 8.224)">
    <g id="Group_81" data-name="Group 81" transform="translate(0 18.852)">
      <path id="Path_358" data-name="Path 358" d="M615.931,139.134s-.264-5.134-1.6-5.134c-2.78,0-7.753,14.125-7.895,16.215-.243,3.491,2.151,3.694,4.506,3.978,2.313.284,2.74-4.789,2.74-4.789Z" transform="translate(-597.256 -133.869)" fill="#61004b"/>
      <g id="Group_80" data-name="Group 80" transform="translate(0 60.06)">
        <g id="Group_78" data-name="Group 78" transform="translate(15.461 6.842)">
          <path id="Path_359" data-name="Path 359" d="M661.881,648.488l-.081,4.343h.487l.629-4.932Z" transform="translate(-656.861 -610.378)" fill="#1d1b22"/>
          <path id="Path_360" data-name="Path 360" d="M640.937,463.052s.507,6.778,1.339,8.788c.832,2.029-.649,28.757-1.36,30.928a6.2,6.2,0,0,1-.589,1.278c-.771,1.32-.934,1.583.081,1.583,1.32,0,2.476-.244,2.74-.791.446-.934.832-4.161,1.745-4.161a3.891,3.891,0,0,0,.467-1.826c-.223-.954-.873-.467-.873-1.786s4.384-21.431,3.694-24.374c-.69-2.922-1.177-3.288-1.157-6.758S640.937,463.052,640.937,463.052Z" transform="translate(-639.245 -463.014)" fill="#fc7575"/>
          <path id="Path_361" data-name="Path 361" d="M642.79,634.1c-.406,2.415-1.989,6.8-2.922,7.225-1.36.182-1.32-.061-1.32-.913-.771,1.319-1.643,1.989-.608,1.989,1.319,0,3.389.1,3.653-.446.446-.934.69-4.485,1.6-4.485l-.3,4.363.487.02s.731-6.007.568-6.616A1.725,1.725,0,0,0,642.79,634.1Z" transform="translate(-637.466 -599.379)" fill="#393644"/>
        </g>
        <g id="Group_79" data-name="Group 79">
          <path id="Path_362" data-name="Path 362" d="M585.09,429.3s-4.931,9.417-4.627,12.2c.325,2.78,1.36,5.033.466,8.848-.892,3.8-7.976,17.6-8.138,20.132-.081,1.055.243,1.157.243,1.157a8.663,8.663,0,0,1-.974,4.181c-.487.487-1.035,2.9-1.5,2.9s-4.383.426-4.383.426c-.1-.893,1.1-.183,1.806-2.029s1.137-4.648,2.03-8.4,4.566-20.9,4.586-24.861c.021-3.937-.345-3.957.264-6.555a53.9,53.9,0,0,1,2.9-7.468Z" transform="translate(-565.179 -429.3)" fill="#fd5e5a"/>
          <path id="Path_363" data-name="Path 363" d="M563.6,644.052c-.913.852-2.395.67-2.314,1.38,0,0,5.074-.2,5.54-.2s.873-2.862,1.36-3.348.183,3.348.183,3.348h.507a41.441,41.441,0,0,1,.812-5.479,1.678,1.678,0,0,0-.528-2.05C567.619,640.643,567.436,644.763,563.6,644.052Z" transform="translate(-561.284 -595.408)" fill="#393644"/>
        </g>
      </g>
      <path id="Path_364" data-name="Path 364" d="M578.3,325.827s20.152,1.339,22.608-2.476c0,0,.061-9.66.447-16.946.548-10.208,3.531-32.9-1.035-43.287-.751-1.7-3.409-6.352-3.409-6.352L589.3,255s-5.4,30.949-6.047,40.994C582.582,306.04,578.3,325.827,578.3,325.827Z" transform="translate(-574.847 -230.313)" fill="#560036"/>
      <path id="Path_365" data-name="Path 365" d="M629.06,133.485s1.786-.731,10.046,1.258l-.325,7.955s-4.323,14.064-3.633,17.575c0,0-4.12,2.719-10.249-.284,0,0,1.542-10.31.974-12.765-.548-2.456-1.664-4.688-.081-7.245A60.246,60.246,0,0,0,629.06,133.485Z" transform="translate(-611.989 -133.354)" fill="#c20095"/>
      <path id="Path_366" data-name="Path 366" d="M624.973,153.707c.021-1.1.163-3.572.041-5.175-.182-2.354-2.212-5.013-.142-8.321,1.136-1.847,2.435-4.323,3.43-6.251h0c.466-.081.02,0,.02.02h0c-3.125,8.361-4.667,6.839-3.389,11.953C625.4,147.8,625.785,148.309,624.973,153.707Z" transform="translate(-611.231 -133.81)" fill="#da66bf"/>
      <path id="Path_367" data-name="Path 367" d="M654.472,219.495c-.933.649-1.542,1.6-3.572,2.172a32.977,32.977,0,0,0,3.836,2.638,28,28,0,0,0,.569-4.627C655.243,219.7,654.512,219.475,654.472,219.495Z" transform="translate(-632.713 -202.012)" fill="#fd5e5a"/>
      <path id="Path_368" data-name="Path 368" d="M677.188,142.984a5.2,5.2,0,0,0-2.374-2.8c-2.05-.244-2.74,10.046-2.74,10.046l-.812,5.946c-.162.183-.771,0-.994.1a29.552,29.552,0,0,1-.569,4.81c2.03,1.177,3.9,1.827,4.689,1.015C676.235,160.275,677.8,144.891,677.188,142.984Z" transform="translate(-647.697 -138.794)" fill="#920070"/>
      <path id="Path_369" data-name="Path 369" d="M661.965,222.009a11.182,11.182,0,0,1,1.238.934c.345.345,1.847,1.035,2.374.792s.812-1.969.568-4.384-1.5-1.827-2.05-1.664a4.139,4.139,0,0,1-1.014.2S661.418,220.771,661.965,222.009Z" transform="translate(-641.445 -200.427)" fill="#da66bf"/>
      <path id="Path_370" data-name="Path 370" d="M608.169,206.3s-.954-1.258-1.36-1.664-.913-.1-1.543.243c-.609.345-.3-.406-1.5.467a2.865,2.865,0,0,0-1.035,3.349c.447.994,2.192,2.273,3.125,1.319A18.263,18.263,0,0,0,608.169,206.3Z" transform="translate(-594.162 -190.017)" fill="#da66bf"/>
      <path id="Path_371" data-name="Path 371" d="M605.195,190.9c-.812-.183-3.308.69-3.308.69a3.574,3.574,0,0,0-.67,1.522.128.128,0,0,0,.142.142c-.183.122-.264.223-.183.3.325.325,2.943-.934,3.105-.771s-2.963.67-2.72,1.238c.1.243,1.3-.142,2.07-.406-.649.264-1.624.67-1.624.913,0,.386,2.719-.2,3.328-.2a2.881,2.881,0,0,1,.995.487c.183-.041.3.061.386.02a35.719,35.719,0,0,1,4.627.284C608.523,193.438,605.418,190.962,605.195,190.9Zm-2.821,1.826c-.2.1-.406.2-.589.3.183-.162.325-.528.568-.71.507-.365,1.279-.568,1.38-.447C603.875,192.017,603.1,192.362,602.374,192.728Z" transform="translate(-593.055 -179.202)" fill="#fc7575"/>
      <path id="Path_372" data-name="Path 372" d="M625.919,202.154a18.4,18.4,0,0,1-.426,3.125s-.345-.244-.446-.122h0c-1.116.589-2.679,2.212-5.743,2.882-3,.629-7.1.954-7.1-1.1a3.422,3.422,0,0,1,3.348-3.166,45.159,45.159,0,0,1,4.627.345h0C622.773,204.447,625.635,201.951,625.919,202.154Z" transform="translate(-601.867 -188.182)" fill="#ff8d8d"/>
      <path id="Path_373" data-name="Path 373" d="M681.111,140.153c-1.928-.041-2.72,15.383-3.511,15.708.142-2.517.507-5.622.528-5.966C678.27,147.885,679.163,139.788,681.111,140.153Z" transform="translate(-653.995 -138.764)" fill="#da66bf"/>
    </g>
    <g id="Group_83" data-name="Group 83" transform="translate(11.835)">
      <path id="Path_374" data-name="Path 374" d="M680.286,110.9l-1.664-.589-3.633-.832-.69-6.88,5.682,4.566Z" transform="translate(-663.199 -89.989)" fill="#3c1047"/>
      <path id="Path_375" data-name="Path 375" d="M627.048,65s-1.482,7.326-4.019,8.706-2.8,1.238-3.43.852a2.165,2.165,0,0,0,1.319,1.786c.081.02.162.061.264.081,1.481.345-.447,1.055-1.279,1.1s2.131,2.253,3.836,2.354,6.291.345,7.489-5.561C632.406,68.389,627.048,65,627.048,65Z" transform="translate(-619.6 -60.02)" fill="#3c1047"/>
      <path id="Path_376" data-name="Path 376" d="M657.529,101.635l-2.253,6.251s-.852,3.9.386,4.587,4.648-3.47,4.648-4.323c0-.873.751-8.95.751-8.95Z" transform="translate(-647.808 -87.279)" fill="#fd5e5a"/>
      <path id="Path_377" data-name="Path 377" d="M652.011,47.8a4.046,4.046,0,0,0-1.948,1.908c-.67,1.4-.182,3.349-.548,4.586s.182,7.834,3.47,7.286,4.384-5.114,4.688-6.129-.061-4.911-1.522-6.23A7.877,7.877,0,0,0,652.011,47.8Z" transform="translate(-643.366 -46.311)" fill="#fc7575"/>
      <g id="Group_82" data-name="Group 82" transform="translate(5.439 6.442)">
        <path id="Path_378" data-name="Path 378" d="M656.039,82.7a17.141,17.141,0,0,1,.122,2.5,1.489,1.489,0,0,0,.893,0,1.339,1.339,0,0,1-1.015.1A21.834,21.834,0,0,1,656.039,82.7Z" transform="translate(-654.05 -80.57)" fill="#510b5e"/>
        <path id="Path_379" data-name="Path 379" d="M660.5,73.461a3.049,3.049,0,0,1,.893-1.055,2.848,2.848,0,0,1,1.765-.1,3.763,3.763,0,0,0-1.563.2,2.6,2.6,0,0,0-.629.751Z" transform="translate(-657.638 -72.203)" fill="#510b5e"/>
        <path id="Path_380" data-name="Path 380" d="M649.187,76.641a2.222,2.222,0,0,0-.791-.771c-.467-.223-1.1.264-1.1.264s.67-.264.974-.1a2,2,0,0,1,.569.548Z" transform="translate(-647.117 -75.079)" fill="#510b5e"/>
        <path id="Path_381" data-name="Path 381" d="M658.418,101.72a4.784,4.784,0,0,1-2.618-.02A2.4,2.4,0,0,0,658.418,101.72Z" transform="translate(-653.893 -95.714)" fill="#fff"/>
        <ellipse id="Ellipse_25" data-name="Ellipse 25" cx="0.548" cy="0.386" rx="0.548" ry="0.386" transform="translate(3.892 2.554) rotate(-89.81)" fill="#510b5e"/>
        <path id="Path_382" data-name="Path 382" d="M664.5,80.036c-1.461-1.461-2.009-.365-2.5-.284.386.02.832-.406,1.258-.3A5.289,5.289,0,0,1,664.5,80.036Z" transform="translate(-658.834 -77.845)" fill="#42004a"/>
        <path id="Path_383" data-name="Path 383" d="M650.49,82.581c.02.244.183.426.345.406s.284-.244.264-.487-.183-.426-.345-.406C650.571,82.114,650.47,82.337,650.49,82.581Z" transform="translate(-649.658 -80.085)" fill="#510b5e"/>
        <path id="Path_384" data-name="Path 384" d="M648.429,82.25c-.914-1.563-1.6-.568-2.029-.548.325.061.771-.3,1.116-.162A4.827,4.827,0,0,1,648.429,82.25Z" transform="translate(-646.4 -79.511)" fill="#42004a"/>
        <ellipse id="Ellipse_26" data-name="Ellipse 26" cx="0.751" cy="1.015" rx="0.751" ry="1.015" transform="translate(4.595 4.068) rotate(-89.819)" fill="#fd5e5a"/>
      </g>
      <path id="Path_385" data-name="Path 385" d="M650.218,47.8a4.047,4.047,0,0,0-1.948,1.908c-.669,1.4-1.766,4.241-.568,4.729.711.284,3.937-4.343,4.546-6.291A10.1,10.1,0,0,0,650.218,47.8Z" transform="translate(-641.573 -46.311)" fill="#fd5e5a" opacity="0.53"/>
      <path id="Path_386" data-name="Path 386" d="M658.3,42.518a4.707,4.707,0,0,1,4.079-2.029c2.862.365,5.5,3.369,5.682,6.413.162,3.064.122,6.474,2.6,8.057s1.786,5.723.2,7.976a2.988,2.988,0,0,1-3.978.852s1.989-.913,1.7-1.461c0,0-1.907,1.989-3.125,1.116a4.222,4.222,0,0,1-1.562-1.786s2.456.345,1.3-1.441a23.941,23.941,0,0,1-1.928-4.16c-.792-1.847,1.014-5.6.791-8.747a1.206,1.206,0,0,1-.751.061c-1.5-.284-.527-1.136-1.441-3.125C659.9,42.214,658.462,42.579,658.3,42.518Z" transform="translate(-650.446 -40.461)" fill="#510b5e"/>
      <path id="Path_387" data-name="Path 387" d="M647.061,48.185c-2.475-.1-4.038,1.887-3.409,3.957a1.165,1.165,0,0,0,.629.832l.142-.487c-.142-.02-.3-.365-.345-.487C643.368,50.194,644.707,48.267,647.061,48.185Z" transform="translate(-638.659 -46.615)" fill="#510b5e"/>
      <path id="Path_388" data-name="Path 388" d="M646.425,42.487a4.607,4.607,0,0,0-3.166.365c-1.543.832-2.577,5.642-1.948,6.575.629.954-2.517.731-.751,1.258S647.968,43.117,646.425,42.487Z" transform="translate(-635.872 -41.972)" fill="#510b5e"/>
      <path id="Path_389" data-name="Path 389" d="M693.7,79.9a10.927,10.927,0,0,0-1.643,3.389c-.852,3.552,3.389,2.821,4.384,3.186a1.071,1.071,0,0,1,.527,1.664,2.46,2.46,0,0,1-1.157.852.687.687,0,0,0-.081,1.116c.649.609,1.847.02,1.847,1.136a2.237,2.237,0,0,1-1.2,1.969,2.267,2.267,0,0,0,1.441-1.969c.061-.913-.528-1.035-1.36-1.218-.507-.122-.629-.406-.548-.548.122-.3.853-.2,1.441-1.1a1.572,1.572,0,0,0-.142-2.029c-1.4-1.482-6.23.934-4.546-4.221C692.971,81.4,693.316,80.651,693.7,79.9Z" transform="translate(-677.264 -71.896)" fill="#560d68"/>
      <path id="Path_390" data-name="Path 390" d="M683.57,74.638s.345-1.36,1.015-1.035a1.445,1.445,0,0,1,.284,2.171C684.239,76.566,683.1,75.815,683.57,74.638Z" transform="translate(-670.5 -66.837)" fill="#fc7575"/>
      <path id="Path_391" data-name="Path 391" d="M684.958,77.131s.142-.852.487-.832c.325.02.467.751.264,1.157A.412.412,0,0,1,684.958,77.131Z" transform="translate(-671.685 -69.025)" fill="#fd5e5a"/>
    </g>
  </g>
  <g id="Group_85" data-name="Group 85" transform="translate(129.174 7.342)">
    <path id="Path_392" data-name="Path 392" d="M688.18,177s-1.1,6.494-4.506,10.878c-2.557,3.267-7.874,6.92-7.874,6.92l3.024,3.308,8.321-6.88Z" transform="translate(-667.824 -148.409)" fill="#363a68"/>
    <path id="Path_393" data-name="Path 393" d="M707.973,648.443c-3.755,0-3.673,1.542-3.673,1.542h11s-.548-4.749-.629-5.885h-2.577C711.808,645.48,710.875,648.443,707.973,648.443Z" transform="translate(-690.54 -520.714)" fill="#260e0d"/>
    <path id="Path_394" data-name="Path 394" d="M784.247,649.091c-3.43,0-4.12-4.16-4.221-4.891h-2.476v.365c0,.508-.649,6.089-.649,6.089h11S788,649.091,784.247,649.091Z" transform="translate(-748.407 -520.794)" fill="#260e0d"/>
    <path id="Path_395" data-name="Path 395" d="M733.7,369.8l3.511-29.711-.994-8.787H716.871l-.142,7.753-2.029,30.2s5.053,25.145,4.952,25.55H723.3c0-.1-1.035-27.559-1.035-27.559l4.181-24.475,1.624,25.693s-.751,23.156-.751,26.362h3.43C730.753,394.719,733.7,369.8,733.7,369.8Z" transform="translate(-698.83 -271.395)" fill="#2f1954"/>
    <path id="Path_396" data-name="Path 396" d="M749.895,147h6.677l-.223,21.958-8.849.609Z" transform="translate(-724.973 -124.497)" fill="#260e0d"/>
    <path id="Path_397" data-name="Path 397" d="M744.565,154.767c-2.111-2.354-6.981-6.129-12.339-5.216l-5.6,2.5-1.644,12.1L723.5,187.2l19.99.223,1.908-22.445S746.676,157.141,744.565,154.767Z" transform="translate(-705.844 -126.419)" fill="#f1a97e"/>
    <path id="Path_398" data-name="Path 398" d="M713.756,151.2l-1.481,44.749H703l2.74-20.315,1.786-12.359s.873-8.3,2.76-9.8A21.018,21.018,0,0,1,713.756,151.2Z" transform="translate(-689.504 -127.845)" fill="#555da2"/>
    <path id="Path_399" data-name="Path 399" d="M788.874,150l-.974,44.992h9.924s.365-35.657-.73-39.391S788.874,150,788.874,150Z" transform="translate(-757.174 -126.888)" fill="#555da2"/>
    <path id="Path_400" data-name="Path 400" d="M760.943,114.134a58.311,58.311,0,0,1-.508,7.144,1.994,1.994,0,0,0,1.035,2.232,3.966,3.966,0,0,0,2.314.223c2.517-.487,2.6-3.308,2.6-3.308l-.852-8.625Z" transform="translate(-735.25 -96.441)" fill="#fc7575"/>
    <path id="Path_401" data-name="Path 401" d="M767.249,111.8l-4.607,2.354s-.02,1.745-.142,3.653c1.2.061,2.719-.629,4.323-2.679q.365-.457.67-.913Z" transform="translate(-736.929 -96.441)" fill="#fd5e5a"/>
    <path id="Path_402" data-name="Path 402" d="M750.73,62.914a8.16,8.16,0,0,0-2.252,3.592c-.69,2.253-1.278,3.876-1.278,3.876l.731.487s-.568,3.146-.122,4.221c.691,1.624,3.552,2.943,6.819-.71,3.268-3.673,3.532-6.9,2.983-8.483C757.042,64.294,752.009,62.1,750.73,62.914Z" transform="translate(-724.734 -57.336)" fill="#fc7575"/>
    <path id="Path_403" data-name="Path 403" d="M754.359,45.205a3.913,3.913,0,0,0-3.531-.771c-2.09.568-2.8-.3-2.395-.771a2.765,2.765,0,0,1-2.517-1.624c-.69-1.684-.507-6.758,2.74-5.8s2.577,3.267,2.577,3.267,1.035-1.1,2.03-.528a1.451,1.451,0,0,1,.852,1.38s.893,1.867,2.131,2.111,1.116,3.024,1.116,3.024.731.568.224,2.6c-.507,2.009-3.532,5.155-3.532,6.109a4.248,4.248,0,0,1-.142-3.247c.589-1.969.589-3.105-.041-3.105C753.2,47.823,754.359,45.205,754.359,45.205Z" transform="translate(-723.45 -36.117)" fill="#121841"/>
    <path id="Path_404" data-name="Path 404" d="M783.817,93.744s.2-1.644.67-1.644.893.183.791,1.116c-.122.934-.589,1.969-1.2,1.542A.756.756,0,0,1,783.817,93.744Z" transform="translate(-753.843 -80.739)" fill="#fc7575"/>
    <path id="Path_405" data-name="Path 405" d="M804.145,77.962a.535.535,0,0,0-.284-.345c-.426-.2-1.015.244-1.4.548l-.061-.081a3.144,3.144,0,0,1,.913-.791.906.906,0,0,1,1.279.507Z" transform="translate(-768.731 -68.853)" fill="#121841"/>
    <path id="Path_406" data-name="Path 406" d="M803.9,83.932a1.971,1.971,0,0,0-.021-.771c-.284-1.238-1.624-1.136-1.684-1.177V81.9a1.823,1.823,0,0,1,2.232,1.6,2.248,2.248,0,0,1,.02.528Z" transform="translate(-768.572 -72.591)" fill="#121841"/>
    <ellipse id="Ellipse_27" data-name="Ellipse 27" cx="0.365" cy="0.731" rx="0.365" ry="0.731" transform="translate(24.901 9.839)" fill="#2f499f"/>
    <path id="Path_407" data-name="Path 407" d="M759.606,80.883a1.424,1.424,0,0,0-1.664-.244l-.142-.528a1.6,1.6,0,0,1,1.847.284Z" transform="translate(-733.183 -71.044)" fill="#2f499f"/>
    <path id="Path_408" data-name="Path 408" d="M785.053,95.056s.264-.568.508-.487.3,1.2-.142,1.684C784.993,96.72,784.627,95.949,785.053,95.056Z" transform="translate(-754.755 -82.7)" fill="#fd5e5a"/>
    <path id="Path_409" data-name="Path 409" d="M738.3,149.516,742.562,147l-1.4,22.79-2.314-13.151.812-.568Z" transform="translate(-717.64 -124.497)" fill="#777eb5"/>
    <path id="Path_410" data-name="Path 410" d="M790.3,169.648,790.685,147l3.815,1.745-2.09,7.306.528.406Z" transform="translate(-759.087 -124.497)" fill="#777eb5"/>
    <path id="Path_411" data-name="Path 411" d="M650.28,241.172,636.5,230.66l14.592-1.36,11.02,11.872Z" transform="translate(-636.5 -190.095)" fill="#1e3340"/>
    <path id="Path_412" data-name="Path 412" d="M728.151,265.8a5.046,5.046,0,0,1,2.049.954c.711.771,2.375,2.029,3.085,2.029s3.694.3,3.694.3l.507,3.369s-11.182-2.618-11.71-3.187,2.618.426,2.618.162-3.8-.548-3.592-1.2,3.511.872,3.8.548-4-.852-4-1.542,4.262.995,4.262.995.081-.345-1.076-.913c-1.157-.548-2.273-.994-2.009-1.278s3.207,1.5,3.592,1.075Z" transform="translate(-706.721 -219.188)" fill="#fc7575"/>
    <path id="Path_413" data-name="Path 413" d="M784.809,169.38a14.71,14.71,0,0,0-1.3,7.407c.325,4.363.873,11.081-.04,13.273s-7.57,0-7.57,0v5.175s9.66,4.018,12.461,2.7,2.536-12.623,2.536-18.163S786.6,165.4,784.809,169.38Z" transform="translate(-747.609 -141.54)" fill="#777eb5"/>
    <path id="Path_414" data-name="Path 414" d="M784.809,173.3a15.236,15.236,0,0,0-1.157,7.083c.3,4.079,1.258,12.907-.487,14.267-1.685,1.055-5.459,0-7.265-.649,1.766.487,6.778,1.664,7.428-.081.548-1.4.467-4.749.406-6.251-.2-6.454-.974-8.747.365-12.684A9.514,9.514,0,0,1,784.809,173.3Z" transform="translate(-747.609 -145.46)" fill="#eef1f9"/>
    <path id="Path_415" data-name="Path 415" d="M753.9,112.471l.122.812a3.411,3.411,0,0,0,2.415-1.583A3.232,3.232,0,0,1,753.9,112.471Z" transform="translate(-730.074 -96.361)" fill="#2b3278"/>
    <path id="Path_416" data-name="Path 416" d="M682.147,263.755a4.211,4.211,0,0,0-.507.995c-.3.71.528,1.461.69,1.624a6.245,6.245,0,0,0,1.218.893,2.934,2.934,0,0,0,.913.385c.487.1,1.6-1.684,1.441-1.847-.1-.122-.223-.2-.345-.162s-1.339,1.015-1.339,1.015,1.1-1.4.974-1.827-.365-.365-.467-.264-1.5,1.421-1.5,1.421a8.331,8.331,0,0,0,.873-1.948c-.081-.264-.467-.467-.893.2a7.672,7.672,0,0,1-.873.995,4.61,4.61,0,0,0,.406-1.684C682.614,263.146,682.147,263.755,682.147,263.755Z" transform="translate(-672.426 -217.284)" fill="#fc7575"/>
  </g>
  <g id="Group_87" data-name="Group 87" transform="translate(20.254 18.562)">
    <g id="Group_86" data-name="Group 86">
      <path id="Path_417" data-name="Path 417" d="M191.661,308.8v1.948H174.532v66.038H172.3V308.8Z" transform="translate(-157.587 -264.68)" fill="#082b57"/>
      <path id="Path_418" data-name="Path 418" d="M158.6,635.933h33.75a2.226,2.226,0,0,0-2.232-2.233H158.6Z" transform="translate(-146.667 -523.643)" fill="#082b57"/>
      <path id="Path_419" data-name="Path 419" d="M149.22,322.4l-.2,1.3-36.165.365v67.275H112V322.765Z" transform="translate(-109.524 -275.52)" fill="#13447a"/>
      <path id="Path_420" data-name="Path 420" d="M141.14,388.62H105.361V324.734h33.79l.345-2.334-37.22.365V388.62H99.8v2.922h44.242A2.906,2.906,0,0,0,141.14,388.62Z" transform="translate(-99.8 -275.52)" fill="url(#linear-gradient-2)"/>
      <path id="Path_421" data-name="Path 421" d="M125.333,307.3l31.9.3-8.361,2.862L112,310.73Z" transform="translate(-109.524 -263.485)" fill="#eb777e"/>
      <path id="Path_422" data-name="Path 422" d="M293.7,313.894v-2.232l8.361-2.862v1.4Z" transform="translate(-254.349 -264.68)" fill="#082b57"/>
      <path id="Path_423" data-name="Path 423" d="M160.455,220.462l-7.976.183L142.9,203.963l5.784-8.463,2.577,7.022h0a4.251,4.251,0,0,0-2.557,6.352l6.657,10.776S160.536,219.163,160.455,220.462Z" transform="translate(-134.153 -174.374)" fill="#361e42"/>
      <path id="Path_424" data-name="Path 424" d="M108.9,91.4l24.455,41.421,5.561-1.583L119.149,92.273Z" transform="translate(-107.053 -91.4)" fill="url(#linear-gradient-3)"/>
      <path id="Path_425" data-name="Path 425" d="M128.464,96.512,121.3,95.7l21.938,38.356,3.836-.528Z" transform="translate(-116.937 -94.827)" fill="#59d5b3"/>
      <path id="Path_426" data-name="Path 426" d="M143.63,107.412c1.766-.284,2.76-.994,1.664-2.7-2.192-3.349-3.795-4.242-2.354-6.413l2.354.264L151.3,110.5c-.02,3.775-1.015,1.258-1.786,4.14a9.062,9.062,0,0,0,.162,3.288Z" transform="translate(-133.747 -96.9)" fill="#fd5e5a"/>
      <path id="Path_427" data-name="Path 427" d="M101.7,94.647l1.461-3.247,24.455,41.421-2.821.812Z" transform="translate(-101.314 -91.4)" fill="#59316e"/>
      <path id="Path_428" data-name="Path 428" d="M136.295,259.105l-.792.284-1.6-4.323a2.536,2.536,0,0,0,.71-.467Z" transform="translate(-126.98 -221.48)" fill="#fd5e5a"/>
      <rect id="Rectangle_41" data-name="Rectangle 41" width="1.867" height="9.335" transform="translate(10.666 37.421) rotate(180)" fill="#8dfdb0"/>
      <rect id="Rectangle_42" data-name="Rectangle 42" width="1.867" height="4.871" transform="translate(10.666 32.95) rotate(180)" fill="#13447a"/>
      <path id="Path_429" data-name="Path 429" d="M150.1,226.822l1.238.223,1.847-10.107V214.3l-1.218,2.415Z" transform="translate(-139.892 -189.358)" fill="#be1e2d"/>
      <rect id="Rectangle_43" data-name="Rectangle 43" width="5.601" height="10.147" transform="translate(12.246 46.362) rotate(180)" fill="#20c9ac"/>
      <rect id="Rectangle_44" data-name="Rectangle 44" width="0.487" height="5.256" transform="translate(9.853 35.218) rotate(180)" fill="#13447a"/>
      <path id="Path_430" data-name="Path 430" d="M126.7,236.084l1.461,4a2.538,2.538,0,0,0,.71-.467l-.264-.731a.412.412,0,0,0,.467-.081c.162-.183-.122-.446-.284-.244.041-.061,0,.041-.142-.122-.284-.162.568-3.064-1.076-2.374l-.1-.264Zm1.481,1.583-.568-1.542a.344.344,0,0,1,.2,0C128.364,236.186,128.222,236.957,128.181,237.667Z" transform="translate(-121.241 -206.495)" fill="#5b1432"/>
      <path id="Path_431" data-name="Path 431" d="M192.491,200c1.684-.791-1.725-5.155-1.725-5.155s-2.6-5.7,0-3.1a3.826,3.826,0,0,0,2.354,1.137l3.511,6.981c-1.684,1.806-3.43,1.826-4.079,1.278l-.426-.751C192.125,200.2,192.186,200.138,192.491,200Z" transform="translate(-171.384 -170.833)" fill="#fcc400"/>
    </g>
    <path id="Path_432" data-name="Path 432" d="M351.478,427.569s5.561,4.505,5.987,6.19-.04,5.824-.852,6.636-17.169,1.2-20.68,0-4.444-4.871-3.937-7.773C332.5,429.7,348.576,426.027,351.478,427.569Z" transform="translate(-284.771 -359.055)" fill="#68335c"/>
    <path id="Path_433" data-name="Path 433" d="M446.78,410.5l-1.137,13.151-.1,1.786h-8.584L434.4,424V421.6l2.983,1.887,6.149-.528,1.116-12.461Z" transform="translate(-366.495 -345.741)" fill="#112f57"/>
    <path id="Path_434" data-name="Path 434" d="M473.629,462.556s-3.085-3.491-3.227-3.085a2.292,2.292,0,0,0,0,1.1s-.041-.04-.548-.04,0,1.38,0,1.38-.568-.649-1.1-.649-.406.893-.406.893,2.943,4.079,3.389,3.917.162-.954.162-.954,1.7.893,1.7,0-.223-1.055-.223-1.055S474.359,464.281,473.629,462.556Z" transform="translate(-393.547 -384.747)" fill="#4e6685"/>
    <rect id="Rectangle_45" data-name="Rectangle 45" width="3.491" height="34.845" transform="translate(63.498 114.973) rotate(180)" fill="#082b57"/>
    <rect id="Rectangle_46" data-name="Rectangle 46" width="10.411" height="1.116" transform="translate(67.837 113.519) rotate(180)" fill="#082b57"/>
    <rect id="Rectangle_47" data-name="Rectangle 47" width="29.264" height="2.374" transform="translate(76.661 115.795) rotate(180)" fill="#2059a4"/>
    <path id="Path_435" data-name="Path 435" d="M356.613,461.673c-.812.812-17.169,1.2-20.68,0S331.489,456.8,332,453.9c3.41,6.068,25.449,1.136,25.449,1.136C357.871,456.7,357.425,460.861,356.613,461.673Z" transform="translate(-284.771 -380.333)" fill="#b466a2"/>
  </g>
  <path id="Path_436" data-name="Path 436" d="M285.109,412.4s-19.909,6.393-22.06,8.544c-1.7,1.7,4.587,33.161,4.587,33.161l4.526-4.242-.69-24.292,13.617-4,4.891-3.044,5.155-2.6Z" transform="translate(-209.432 -328.693)" fill="#1b2e96"/>
  <path id="Path_437" data-name="Path 437" d="M256.379,238.2l12.441,10.066s15.809-8.808,16.174-8.463c2.233,2.232,2.659,11.284-.812,12.258s-17.027,2.6-17.027,2.6L253.7,243.517Z" transform="translate(-202.213 -189.846)" fill="#ba0045"/>
  <path id="Path_438" data-name="Path 438" d="M234.519,224.088a13.455,13.455,0,0,1-2.273-2.882,4.485,4.485,0,0,0-2.131-1.989c-.487-.223-4.3-.934-4.059-.041a19.1,19.1,0,0,1,.568,3.511c0,.771,3.795,1.644,4.85,2.334a6.514,6.514,0,0,1,1.745,1.827Z" transform="translate(-180.171 -174.334)" fill="#ff8585"/>
  <path id="Path_439" data-name="Path 439" d="M287.709,579.6l2.334,4.384-4.262.791-.081-.914-1.4-3.125Z" transform="translate(-226.603 -461.962)" fill="#390015"/>
  <g id="Group_89" data-name="Group 89" transform="translate(54.667 120.255)">
    <path id="Path_440" data-name="Path 440" d="M281.815,596.288l-3.349,3c-1.38,1.238-3.43,3.369-4.12,3.978s-4.647,1.218-4.952.548,2.07-2.578,2.719-4.221c.649-1.664,1.1-5.479,1.685-5.459.588.04,2.7-1.7,3.45-1.644C278,592.534,281.855,595.619,281.815,596.288Z" transform="translate(-269.368 -592.492)" fill="#3a758d"/>
    <path id="Path_441" data-name="Path 441" d="M285.324,608.9c-6.271,4.059-3.206,4.323-9.924,7.631,1.786-.649,4.181-1.847,5.337-3.369a16.254,16.254,0,0,1,2.192-2.232C283.68,610.219,284.492,609.549,285.324,608.9Z" transform="translate(-274.176 -605.57)" fill="#acfcdd"/>
    <g id="Group_88" data-name="Group 88" transform="translate(3.132 3.31)">
      <path id="Path_442" data-name="Path 442" d="M287.783,616.784a.277.277,0,0,1-.284.284,16.193,16.193,0,0,0-2.7.325c.041-.2.1-.406.142-.609a16.4,16.4,0,0,1,2.537-.284A.3.3,0,0,1,287.783,616.784Z" transform="translate(-284.8 -614.937)" fill="#acfcdd"/>
      <path id="Path_443" data-name="Path 443" d="M289.07,609.49a.3.3,0,0,1-.365.183,7.038,7.038,0,0,0-1.7-.3c.041-.2.081-.385.122-.568a7.123,7.123,0,0,1,1.766.345A.282.282,0,0,1,289.07,609.49Z" transform="translate(-286.554 -608.8)" fill="#acfcdd"/>
    </g>
  </g>
  <path id="Path_444" data-name="Path 444" d="M269.232,631.281l-1.258,4.81-3.673-2.334.568-.71,1.1-3.247Z" transform="translate(-210.662 -501.974)" fill="#390015"/>
  <g id="Group_91" data-name="Group 91" transform="translate(44.412 131.005)">
    <path id="Path_445" data-name="Path 445" d="M233.056,652.553s-2.638-.041-4.485-.081-4.81.142-5.723.122c-.933-.021-4.241-2.253-4-2.963.223-.71,3.267-.487,4.871-1.258s4.526-3.288,4.931-2.861,3.125.588,3.653,1.136S233.523,652.086,233.056,652.553Z" transform="translate(-218.837 -645.462)" fill="#3a758d"/>
    <path id="Path_446" data-name="Path 446" d="M236.681,669.836c-7.367-1.3-5.3.995-12.481-1.136,1.745.751,4.323,1.5,6.21,1.157a17.7,17.7,0,0,1,3.125-.162C234.591,669.715,235.646,669.775,236.681,669.836Z" transform="translate(-223.112 -663.984)" fill="#acfcdd"/>
    <g id="Group_90" data-name="Group 90" transform="translate(6.02 0.779)">
      <path id="Path_447" data-name="Path 447" d="M251.118,656.528a.288.288,0,0,1-.406.02,14.366,14.366,0,0,0-2.212-1.6c.183-.122.345-.223.528-.345a14.2,14.2,0,0,1,2.05,1.522A.275.275,0,0,1,251.118,656.528Z" transform="translate(-248.5 -653.524)" fill="#acfcdd"/>
      <path id="Path_448" data-name="Path 448" d="M258.021,651.147a.28.28,0,0,1-.386-.122,6.879,6.879,0,0,0-1.035-1.4c.162-.122.325-.223.487-.325a7.4,7.4,0,0,1,1.055,1.441A.323.323,0,0,1,258.021,651.147Z" transform="translate(-254.956 -649.3)" fill="#acfcdd"/>
    </g>
  </g>
  <path id="Path_449" data-name="Path 449" d="M287.146,425.6s-.568.243-1.441.649c-2.09.974-14.206,4.059-15.728,5.6C267.826,434,257.8,470.024,257.8,470.024l7.184.426s9.335-33.891,13.293-33.891,12.6,1.624,16.946-2.74c1.563-1.563,2.862-5.7,1.279-6.19C294.9,427.122,287.146,425.6,287.146,425.6Z" transform="translate(-205.481 -339.215)" fill="#7c8bde"/>
  <path id="Path_450" data-name="Path 450" d="M834.713,120.922s-.792-7.022-2.618-7.022c-3.856,0-10.289,19.442-10.492,22.3-.345,4.83,2.984,5.114,6.231,5.5,3.186.386,3.775-6.6,3.775-6.6Z" transform="translate(-654.844 -90.772)" fill="#62004b"/>
  <path id="Path_451" data-name="Path 451" d="M895.577,641.089l.447,2.5s-1.177,3.815-2.943,5.581-5.581,1.888-5.581.386,3.977-6.19,3.977-8C891.477,639.729,895.577,641.089,895.577,641.089Z" transform="translate(-707.388 -510.583)" fill="#4c5063"/>
  <path id="Path_452" data-name="Path 452" d="M824.44,635.576l.67,4.607H813.4s.385-1.136,3.775-1.806,3.673-1.969,3.673-1.969l-.345-2.862,3.084-.447Z" transform="translate(-648.326 -504.603)" fill="#4c5063"/>
  <path id="Path_453" data-name="Path 453" d="M833.336,335.146l-6.9,24.272,2.516,29.244h-4.444L818.4,357.734l6.109-35.434Z" transform="translate(-652.311 -256.879)" fill="#464f7c"/>
  <path id="Path_454" data-name="Path 454" d="M848.5,317.62l4.789,14.632s5.642,19.766,6.657,31.7a106.34,106.34,0,0,1,0,20.071l5.622.913s3.247-24.759,2.029-33.059c-1.2-8.3.264-28.534.264-28.534l-2.314-5.743H848.5Z" transform="translate(-676.302 -253.133)" fill="#5d69a5"/>
  <path id="Path_455" data-name="Path 455" d="M866.123,111.711l-4.709-1.6-5.723-.507-3.674.873L846.6,133.182l.182,20.7,19.564-.325-5.257-13.536Z" transform="translate(-674.788 -87.345)" fill="#c20095"/>
  <path id="Path_456" data-name="Path 456" d="M887.831,231.6c-1.3.913-2.13,2.212-4.931,3a48.98,48.98,0,0,0,5.3,3.633,38.45,38.45,0,0,0,.791-6.393C888.907,231.88,887.892,231.576,887.831,231.6Z" transform="translate(-703.721 -184.582)" fill="#fd5e5a"/>
  <path id="Path_457" data-name="Path 457" d="M917.157,124.361a9.134,9.134,0,0,0-3.45-4.282c-2.821-.325-3.592,14.308-3.592,14.308l-1.116,8.2c-.223.243-1.076,0-1.38.122-.061,2.273-.893,4.668-1.319,6.92,2.78,1.624,5.906,2.253,7.022,1.136C915.839,148.227,917.99,126.979,917.157,124.361Z" transform="translate(-722.372 -95.693)" fill="#da66bf"/>
  <path id="Path_458" data-name="Path 458" d="M819.932,192.172c-1.116-.244-4.566.954-4.566.954a5.086,5.086,0,0,0-.913,2.09c0,.142.081.2.2.183-.244.183-.345.325-.264.406.466.467,4.059-1.278,4.282-1.055s-4.1.913-3.754,1.7c.142.325,1.806-.183,2.841-.548-.913.345-2.232.934-2.232,1.279,0,.528,3.754-.284,4.586-.284a3.7,3.7,0,0,1,1.38.69c.264-.041.426.081.528.041a48.848,48.848,0,0,1,6.393.386C824.519,195.683,820.236,192.253,819.932,192.172Zm-3.9,2.516c-.284.142-.568.284-.812.426.243-.223.446-.731.771-.974.69-.487,1.766-.771,1.907-.609C818.086,193.694,817.03,194.181,816.036,194.688Z" transform="translate(-649.094 -153.133)" fill="#fc7575"/>
  <path id="Path_459" data-name="Path 459" d="M848.335,207.734c-.183.913-.162,3.633-.589,4.3,0,0-.467-.325-.629-.162h0c-1.543.812-3.694,3.065-7.915,3.957-4.14.873-9.8,1.319-9.8-1.5s2.841-4.363,4.627-4.363a60.93,60.93,0,0,1,6.393.467h0C844.012,210.88,847.969,207.45,848.335,207.734Z" transform="translate(-661.078 -165.55)" fill="#ff8d8d"/>
  <path id="Path_460" data-name="Path 460" d="M484.025,265.907s-10.411-10.31-12.765-12.684c-2.354-2.354-2.76,4.566-2.76,8.2,0,3.612,13.658,11.466,13.658,11.466Z" transform="translate(-373.421 -201.44)" fill="#8a0033"/>
  <path id="Path_461" data-name="Path 461" d="M481.65,319.31s3.592,1.1,3.592,6.738-.852,11.182-1.36,12.156-7.083.629-7.083.629l2.131-12.664-1.542-7.57Z" transform="translate(-380.036 -253.93)" fill="#8e6685"/>
  <path id="Path_462" data-name="Path 462" d="M468.3,318.657s1.786-.142,2.7,3.044c.893,3.186,2.476,14.064-1.664,17.006a3.509,3.509,0,0,1-3.227-.588,2.014,2.014,0,0,1-.507-2.415c.69-1.441,1.928-4.465,1.684-6.961C466.964,325.354,465.218,318.333,468.3,318.657Z" transform="translate(-370.951 -253.966)" fill="#68335c"/>
  <path id="Path_463" data-name="Path 463" d="M370.912,244.835a39.946,39.946,0,0,0-.467,12.237c.487,4.262.731,9.9-.852,12.927a14.966,14.966,0,0,1-7.793,6.88s13.191,7.712,18.955,5.8c0,0,9.68-24.739,7.59-33.587s-17.189-5.4-17.189-5.4Z" transform="translate(-288.375 -193.701)" fill="#f8005c"/>
  <path id="Path_464" data-name="Path 464" d="M371.156,246.2c-1.948,12.379,1.766,18.732-.792,25.53-.913,2.638-4.181,6.271-8.564,7.671,3.734-1.684,7.692-5.419,8.321-10.127C371.277,261.583,368.213,256.915,371.156,246.2Z" transform="translate(-288.375 -196.223)" fill="#fb669d"/>
  <g id="Group_95" data-name="Group 95" transform="translate(82.928 27.755)">
    <path id="Path_465" data-name="Path 465" d="M421.954,201a54.353,54.353,0,0,0-.183,9.619,3.063,3.063,0,0,0,1.482,2.293c1.644.994,2.882.244,3.957-.852l.243-6.88Z" transform="translate(-418.976 -187.951)" fill="#ff8585"/>
    <path id="Path_466" data-name="Path 466" d="M423.768,203.313c.812,3.389,2.841,6.048,4.789,6.393l.162-4.566-5.5-4.14h0v.02h0v.2h0v.081c0,.061-.02.142-.02.223A16.858,16.858,0,0,1,423.768,203.313Z" transform="translate(-420.243 -187.951)" fill="#fd5e5a"/>
    <path id="Path_467" data-name="Path 467" d="M423.123,159.248a1.188,1.188,0,0,1,.284.365,8.964,8.964,0,0,1,.934,4.931c-.182,2.78-.345,8.625-2.395,8.99-2.029.365-5.256-1.948-6.068-5.236s-2.517-4.688-1.745-7.468C414.9,158.091,423.123,159.248,423.123,159.248Z" transform="translate(-412.859 -154.478)" fill="#ff8585"/>
    <g id="Group_92" data-name="Group 92" transform="translate(1.105 4.52)">
      <path id="Path_468" data-name="Path 468" d="M423.231,159.22s-8.219-1.177-8.97,1.583.934,4.181,1.745,7.468c.731-.2,1.888-.284,1.238-4.262.629-2.131,1.847-1.908,2.07-2.841a2.821,2.821,0,0,1,2.253,1.522,7.94,7.94,0,0,0,2.8,3.085c.02-.467.061-.893.081-1.258C424.611,162.122,423.86,159.707,423.231,159.22Z" transform="translate(-414.073 -158.971)" fill="#fd5e5a"/>
      <path id="Path_469" data-name="Path 469" d="M423.409,204.448c-.142-.325.081.365,0,0Z" transform="translate(-421.476 -195.147)" fill="#fd5e5a"/>
    </g>
    <g id="Group_93" data-name="Group 93" transform="translate(9.264 11.466)">
      <path id="Path_470" data-name="Path 470" d="M454.381,196.549l1.157-.2-.548-3.044a.129.129,0,0,0-.122-.1.115.115,0,0,0-.081.142l.507,2.8-.934.162a.115.115,0,0,0-.081.142C454.259,196.508,454.32,196.549,454.381,196.549Z" transform="translate(-454.274 -193.2)" fill="#2b3278"/>
    </g>
    <ellipse id="Ellipse_28" data-name="Ellipse 28" cx="0.487" cy="0.629" rx="0.487" ry="0.629" transform="translate(7.845 10.891) rotate(-10.032)" fill="#2b3278"/>
    <ellipse id="Ellipse_29" data-name="Ellipse 29" cx="0.406" cy="0.589" rx="0.406" ry="0.589" transform="translate(10.347 10.871) rotate(-10.056)" fill="#2b3278"/>
    <g id="Group_94" data-name="Group 94" transform="translate(7.047 16.327)">
      <path id="Path_471" data-name="Path 471" d="M445.288,218.033a2.084,2.084,0,0,0,.386-.122.09.09,0,0,0,.04-.142.111.111,0,0,0-.142-.061,1.81,1.81,0,0,1-2.05-.528.1.1,0,0,0-.142,0,.123.123,0,0,0,0,.162A2.152,2.152,0,0,0,445.288,218.033Z" transform="translate(-443.35 -217.15)" fill="#2b3278"/>
    </g>
    <path id="Path_472" data-name="Path 472" d="M443.934,183.111a1.884,1.884,0,0,0-1.3-.386c-.67.122-1.035,1.035-1.035,1.035s.386-.751.974-.751a4.24,4.24,0,0,1,1.441.487Z" transform="translate(-434.908 -173.37)" fill="#2b3278"/>
    <path id="Path_473" data-name="Path 473" d="M412.782,146.42a12.136,12.136,0,0,1,1.015-2.577,1.482,1.482,0,0,0,.243-1.5s2.658.02,3.754,1.786,2.476,4.4,5.094,2.638,1.42-5.642.751-5.52a2.171,2.171,0,0,1-1.38-.365s-3-3.206-4.282-2.983c-1.258.223-.386-1.218-2.6-1.2s-3.551,2.395-3.551,2.395-1.137-.954-2.6.467.081,5.682.954,7.123a15.461,15.461,0,0,1,1.34,3.957S413.553,150.743,412.782,146.42Z" transform="translate(-408.627 -136.699)" fill="#710066"/>
    <path id="Path_474" data-name="Path 474" d="M422.7,178.818a.861.861,0,0,1,1.563-.446,1.616,1.616,0,0,1,.325,1.908c-.852,1.319-2.009.223-1.908-1.2C422.675,178.98,422.7,178.9,422.7,178.818Z" transform="translate(-419.819 -169.625)" fill="#fc7575"/>
    <path id="Path_475" data-name="Path 475" d="M427.1,181.448c-.081-.325-.589-1.218-1.015-.791-.426.406-.609,1.644.223,1.745C427.16,182.5,427.181,181.752,427.1,181.448Z" transform="translate(-422.255 -171.645)" fill="#fd5e5a"/>
  </g>
  <g id="Group_96" data-name="Group 96" transform="translate(171.528 0)">
    <path id="Path_476" data-name="Path 476" d="M858.854,17.513s-2.517,3.308-2.9,5.561c-.385,2.314-.853,6.007-.853,6.007h1.036a11.567,11.567,0,0,1,.852,3.409c0,1.36,2.171.507,3.41.507,1.258,0,4.038-1.076,5.135-5.013C866.607,24.068,868.6,17.046,858.854,17.513Z" transform="translate(-853.09 -13.928)" fill="#fc7575"/>
    <path id="Path_477" data-name="Path 477" d="M890.508,68.182s-6.94,3.125-6.94,2.05a46.076,46.076,0,0,0-.224-4.607c-.1-.913-.2-1.725-.244-2.212.264-.67,2.273-5.7,2.131-5.378h0L885.637,57Z" transform="translate(-875.409 -45.42)" fill="#fc7575"/>
    <path id="Path_478" data-name="Path 478" d="M854.148,1.127c-.122.2-2.09,4.221,1.319,5.743,3.409,1.542,4.262-.67,5.175.69s-.792,3.572-.041,4.83l1.136.223s.223-.67.69-.67c.446,0,.589,3.45,1.319,3.45s2.151-2.943,2.841-4.3,2.11-5.987-.507-7.184-3.754-.284-3.754-1.421-1.137.061-1.137.061a1.991,1.991,0,0,1-.223-1.826c.406-.974-2.781-1.319-3.531.629C856.645,3.3,855.406-.984,854.148,1.127Z" transform="translate(-851.794 0.063)" fill="#2d1175"/>
    <path id="Path_479" data-name="Path 479" d="M892.692,47.884s-.061,2.253.487,2.253a2.491,2.491,0,0,0,1.522-2.618C894.5,46.139,892.936,46.3,892.692,47.884Z" transform="translate(-883.052 -37.115)" fill="#fc7575"/>
    <path id="Path_480" data-name="Path 480" d="M894.169,49.935s-.264.893.142,1.3,1.2-.568.751-1.3C894.636,49.2,894.27,49.407,894.169,49.935Z" transform="translate(-884.164 -39.41)" fill="#fd5e5a"/>
    <path id="Path_481" data-name="Path 481" d="M865.081,48.7l-.081.548a2,2,0,0,1,1.481.406l.588.589A2.3,2.3,0,0,0,865.081,48.7Z" transform="translate(-860.982 -38.804)" fill="#2d1175"/>
    <ellipse id="Ellipse_30" data-name="Ellipse 30" cx="0.426" cy="0.507" rx="0.426" ry="0.507" transform="translate(4.282 11.053)" fill="#2d1175"/>
    <path id="Path_482" data-name="Path 482" d="M866.5,77.384a1.744,1.744,0,0,0,.914-.223,1.09,1.09,0,0,0,.3-.3.948.948,0,0,0,.122-.406v-.02c.02-.081.1-.162.182-.142s.162.1.143.183v.02a1.105,1.105,0,0,1-.244.487,1.325,1.325,0,0,1-.426.325A2.081,2.081,0,0,1,866.5,77.384Z" transform="translate(-862.177 -60.79)" fill="#2d1175"/>
    <path id="Path_483" data-name="Path 483" d="M846.052,26a1.3,1.3,0,0,0,.285.67,3.714,3.714,0,0,0,2.537.994,5.463,5.463,0,0,1-2.009-.041,2.216,2.216,0,0,1-1.664-1.5Z" transform="translate(-845.2 -20.711)" fill="#2d1175"/>
    <path id="Path_484" data-name="Path 484" d="M885.557,67.927a19.444,19.444,0,0,1-2.293,1.6c-.142-1.238-.264-2.212-.264-2.212s.629.548,2.131-5.419v.041h0C885.232,62.448,886.064,67.44,885.557,67.927Z" transform="translate(-875.328 -49.325)" fill="#fd5e5a"/>
    <path id="Path_485" data-name="Path 485" d="M863.182,66.475a9.012,9.012,0,0,0-.182,1.38c0,.507,1.258,1.055,2.395.731a10.333,10.333,0,0,0,3.1-1.461c.386-.386.69-5.622.69-5.622l-1.035-.2s-.507,3.409-.934,3.836C866.815,65.582,863.182,66.475,863.182,66.475Z" transform="translate(-859.388 -48.847)" fill="#2d1175"/>
  </g>
  <path id="Path_486" data-name="Path 486" d="M470.173,332s-.183,1.116,1.339,2.232a10.9,10.9,0,0,0,2.943,1.7c.406.081,2.557-1.076,1.4-2.354C474.678,332.284,470.173,332,470.173,332Z" transform="translate(-374.749 -264.61)" fill="#1f0610"/>
  <path id="Path_487" data-name="Path 487" d="M448.217,317.6l-14.206,3.734a28.671,28.671,0,0,1-4.891,2.923c-1.522.487-3.369,2.151-3,2.679.365.507,2.273-1.238,2.577-1.177s-1.116,2.111-1.359,3.47c-.223,1.36-.69,2.659.081,2.557s1.339-3.166,1.339-3.166,1.2-2.314,1.38-2.029c.182.264-.792,1.847-.792,1.847s-.243,1.7-.345,2.313c-.081.447.345,1.806.69,1.3.2-.284.1-1.4.345-2.03a9.88,9.88,0,0,1,1.3-2.334s-.853,3.9-.325,4c.548.1,1.1-3.146,1.1-3.146s1.319-2.7,1.908-2.922a37.423,37.423,0,0,1,3.389-1.685c1.238-.426,6.311.974,8.564,1.015,2.273.02,5.946-1.38,6.251-3.146C452.539,319.995,448.217,317.6,448.217,317.6Z" transform="translate(-339.601 -253.133)" fill="#f96969"/>
  <path id="Path_488" data-name="Path 488" d="M470.2,319.088l14.855-3.288s2.679,2.76,2.375,4.546-3.978,3.186-6.251,3.146a60.347,60.347,0,0,1-6.677-.467C475.294,321.178,474.157,319.189,470.2,319.088Z" transform="translate(-374.776 -251.698)" fill="#f9337d"/>
  <path id="Path_489" data-name="Path 489" d="M470.2,319.088a63.513,63.513,0,0,1,14.855-3.288C479.8,317,474.868,318.235,470.2,319.088Z" transform="translate(-374.776 -251.698)" fill="#fdadcb"/>
  <path id="Path_490" data-name="Path 490" d="M228.391,200.629l-4.729,9.6a.2.2,0,0,1-.244.081.188.188,0,0,1-.081-.244l4.16-9.843a.5.5,0,1,1,.913.386A.02.02,0,0,0,228.391,200.629Z" transform="translate(-178 -159.337)"/>
  <path id="Path_491" data-name="Path 491" d="M233.359,223.089c-.041-.284-.994-.588-.994-.588s-2.131,1.7-2.07,2.415,1.644-.467,1.644-.467S233.42,223.576,233.359,223.089Z" transform="translate(-183.557 -177.333)" fill="#fd5e5a"/>
  <path id="Path_492" data-name="Path 492" d="M224.167,219.1s1.3,3.511.791,3.47-1.6-2.131-1.563-2.821A.717.717,0,0,1,224.167,219.1Z" transform="translate(-178.058 -174.621)" fill="#fd5e5a"/>
</svg>
