<svg xmlns="http://www.w3.org/2000/svg" width="131.194" height="136.706" viewBox="0 0 131.194 136.706">
  <g id="Group_124" data-name="Group 124" transform="translate(-556.83 -57.955)">
    <rect id="Rectangle_94" data-name="Rectangle 94" width="91.527" height="68.514" transform="translate(576.505 77.827)" fill="#e6e5e5"/>
    <rect id="Rectangle_95" data-name="Rectangle 95" width="78" height="54.811" transform="translate(583.357 84.503)" fill="#17c6cd"/>
    <path id="Path_514" data-name="Path 514" d="M723.932,150.019a9.179,9.179,0,1,1-9.179-9.179A9.179,9.179,0,0,1,723.932,150.019Z" transform="translate(-81.64 -45.492)" fill="#fff"/>
    <g id="Group_118" data-name="Group 118" transform="translate(583.357 96.976)">
      <path id="Path_515" data-name="Path 515" d="M640.049,184.558,615.63,208.8h19.148l14.794-14.856Z" transform="translate(-615.63 -166.463)" fill="#131925"/>
      <path id="Path_516" data-name="Path 516" d="M718.236,144.449l-27.368,27.482,15.071,14.856h28.987v-26Z" transform="translate(-656.925 -144.449)" fill="#242d3c"/>
      <path id="Path_517" data-name="Path 517" d="M658.074,220.222h29.865l-15.071-14.856Z" transform="translate(-638.926 -177.884)" fill="#3e4a5a"/>
    </g>
    <path id="Path_518" data-name="Path 518" d="M556.831,58V76.2H575V58Zm14.5,14.7h-11.09V61.817h11.09Z" transform="translate(-0.001 -0.025)" fill="#d4d4d4"/>
    <path id="Path_519" data-name="Path 519" d="M807.367,57.955v18.2h18.167v-18.2Zm14.5,14.7h-11.09V61.771h11.09Z" transform="translate(-137.51 0)" fill="#d4d4d4"/>
    <path id="Path_520" data-name="Path 520" d="M807.367,257.563v18.2h18.167v-18.2Zm14.5,14.7h-11.09v-10.88h11.09Z" transform="translate(-137.51 -109.557)" fill="#d4d4d4"/>
    <path id="Path_521" data-name="Path 521" d="M556.83,257.563v18.2H575v-18.2Zm14.5,14.7h-11.09v-10.88h11.09Z" transform="translate(0 -109.557)" fill="#d4d4d4"/>
    <g id="Group_119" data-name="Group 119" transform="translate(578.006 65.174)">
      <rect id="Rectangle_96" data-name="Rectangle 96" width="3.818" height="3.758" transform="translate(0 0)" fill="#a5a5a5"/>
      <rect id="Rectangle_97" data-name="Rectangle 97" width="3.818" height="3.758" transform="translate(7.219 0)" fill="#a5a5a5"/>
      <rect id="Rectangle_98" data-name="Rectangle 98" width="3.818" height="3.758" transform="translate(14.439 0)" fill="#a5a5a5"/>
      <rect id="Rectangle_99" data-name="Rectangle 99" width="3.818" height="3.758" transform="translate(21.253 0)" fill="#a5a5a5"/>
      <rect id="Rectangle_100" data-name="Rectangle 100" width="3.818" height="3.758" transform="translate(28.337 0)" fill="#a5a5a5"/>
      <rect id="Rectangle_101" data-name="Rectangle 101" width="3.818" height="3.758" transform="translate(35.423 0)" fill="#a5a5a5"/>
      <rect id="Rectangle_102" data-name="Rectangle 102" width="3.818" height="3.758" transform="translate(42.372 0)" fill="#a5a5a5"/>
      <rect id="Rectangle_103" data-name="Rectangle 103" width="3.818" height="3.758" transform="translate(49.456 0)" fill="#a5a5a5"/>
      <rect id="Rectangle_104" data-name="Rectangle 104" width="3.818" height="3.758" transform="translate(56.406 0)" fill="#a5a5a5"/>
      <rect id="Rectangle_105" data-name="Rectangle 105" width="3.818" height="3.758" transform="translate(63.626 0)" fill="#a5a5a5"/>
      <rect id="Rectangle_106" data-name="Rectangle 106" width="3.818" height="3.758" transform="translate(70.575 0)" fill="#a5a5a5"/>
      <rect id="Rectangle_107" data-name="Rectangle 107" width="3.818" height="3.758" transform="translate(77.659 0)" fill="#a5a5a5"/>
      <rect id="Rectangle_108" data-name="Rectangle 108" width="3.818" height="3.758" transform="translate(84.608 0)" fill="#a5a5a5"/>
    </g>
    <g id="Group_120" data-name="Group 120" transform="translate(578.005 155.225)">
      <rect id="Rectangle_109" data-name="Rectangle 109" width="3.818" height="3.758" transform="translate(0 0)" fill="#a5a5a5"/>
      <rect id="Rectangle_110" data-name="Rectangle 110" width="3.818" height="3.758" transform="translate(7.22 0)" fill="#a5a5a5"/>
      <rect id="Rectangle_111" data-name="Rectangle 111" width="3.818" height="3.758" transform="translate(14.439 0)" fill="#a5a5a5"/>
      <rect id="Rectangle_112" data-name="Rectangle 112" width="3.818" height="3.758" transform="translate(21.253 0)" fill="#a5a5a5"/>
      <rect id="Rectangle_113" data-name="Rectangle 113" width="3.818" height="3.758" transform="translate(28.338 0)" fill="#a5a5a5"/>
      <rect id="Rectangle_114" data-name="Rectangle 114" width="3.818" height="3.758" transform="translate(35.423 0)" fill="#a5a5a5"/>
      <rect id="Rectangle_115" data-name="Rectangle 115" width="3.818" height="3.758" transform="translate(42.372 0)" fill="#a5a5a5"/>
      <rect id="Rectangle_116" data-name="Rectangle 116" width="3.818" height="3.758" transform="translate(49.457 0)" fill="#a5a5a5"/>
      <rect id="Rectangle_117" data-name="Rectangle 117" width="3.818" height="3.758" transform="translate(56.406 0)" fill="#a5a5a5"/>
      <rect id="Rectangle_118" data-name="Rectangle 118" width="3.818" height="3.758" transform="translate(63.626 0)" fill="#a5a5a5"/>
      <rect id="Rectangle_119" data-name="Rectangle 119" width="3.818" height="3.758" transform="translate(70.576 0)" fill="#a5a5a5"/>
      <rect id="Rectangle_120" data-name="Rectangle 120" width="3.818" height="3.758" transform="translate(77.659 0)" fill="#a5a5a5"/>
      <rect id="Rectangle_121" data-name="Rectangle 121" width="3.818" height="3.758" transform="translate(84.608 0)" fill="#a5a5a5"/>
    </g>
    <g id="Group_121" data-name="Group 121" transform="translate(564.034 78.645)">
      <rect id="Rectangle_122" data-name="Rectangle 122" width="3.758" height="3.818" transform="translate(0 63.355)" fill="#a5a5a5"/>
      <rect id="Rectangle_123" data-name="Rectangle 123" width="3.758" height="3.818" transform="translate(0 56.271)" fill="#a5a5a5"/>
      <rect id="Rectangle_124" data-name="Rectangle 124" width="3.758" height="3.818" transform="translate(0 49.185)" fill="#a5a5a5"/>
      <rect id="Rectangle_125" data-name="Rectangle 125" width="3.758" height="3.818" transform="translate(0 42.236)" fill="#a5a5a5"/>
      <rect id="Rectangle_126" data-name="Rectangle 126" width="3.758" height="3.818" transform="translate(0 35.152)" fill="#a5a5a5"/>
      <rect id="Rectangle_127" data-name="Rectangle 127" width="3.758" height="3.818" transform="translate(0 28.202)" fill="#a5a5a5"/>
      <rect id="Rectangle_128" data-name="Rectangle 128" width="3.758" height="3.818" transform="translate(0 20.983)" fill="#a5a5a5"/>
      <rect id="Rectangle_129" data-name="Rectangle 129" width="3.758" height="3.818" transform="translate(0 14.032)" fill="#a5a5a5"/>
      <rect id="Rectangle_130" data-name="Rectangle 130" width="3.758" height="3.818" transform="translate(0 6.949)" fill="#a5a5a5"/>
      <rect id="Rectangle_131" data-name="Rectangle 131" width="3.758" height="3.818" transform="translate(0 0)" fill="#a5a5a5"/>
    </g>
    <g id="Group_122" data-name="Group 122" transform="translate(677.061 78.646)">
      <rect id="Rectangle_132" data-name="Rectangle 132" width="3.758" height="3.818" transform="translate(0 63.355)" fill="#a5a5a5"/>
      <rect id="Rectangle_133" data-name="Rectangle 133" width="3.758" height="3.818" transform="translate(0 56.271)" fill="#a5a5a5"/>
      <rect id="Rectangle_134" data-name="Rectangle 134" width="3.758" height="3.818" transform="translate(0 49.185)" fill="#a5a5a5"/>
      <rect id="Rectangle_135" data-name="Rectangle 135" width="3.758" height="3.818" transform="translate(0 42.236)" fill="#a5a5a5"/>
      <rect id="Rectangle_136" data-name="Rectangle 136" width="3.758" height="3.818" transform="translate(0 35.152)" fill="#a5a5a5"/>
      <rect id="Rectangle_137" data-name="Rectangle 137" width="3.758" height="3.818" transform="translate(0 28.202)" fill="#a5a5a5"/>
      <rect id="Rectangle_138" data-name="Rectangle 138" width="3.758" height="3.818" transform="translate(0 20.983)" fill="#a5a5a5"/>
      <rect id="Rectangle_139" data-name="Rectangle 139" width="3.758" height="3.818" transform="translate(0 14.032)" fill="#a5a5a5"/>
      <rect id="Rectangle_140" data-name="Rectangle 140" width="3.758" height="3.818" transform="translate(0 6.949)" fill="#a5a5a5"/>
      <rect id="Rectangle_141" data-name="Rectangle 141" width="3.758" height="3.818" transform="translate(0 0)" fill="#a5a5a5"/>
    </g>
    <g id="Group_123" data-name="Group 123" transform="translate(556.831 175.402)">
      <rect id="Rectangle_142" data-name="Rectangle 142" width="131.193" height="9.63" transform="translate(0 9.63)" fill="#e54717"/>
      <path id="Path_522" data-name="Path 522" d="M682.23,318.289v4.563h-2.9v-4.563h-4.385v4.563h-2.9v-4.563h-4.385v4.563h-2.9v-4.563H660.37v4.563h-2.9v-4.563h-4.385v4.563h-2.9v-4.563H645.8v4.563h-2.9v-4.563H638.51v4.563h-2.9v-4.563h-4.385v4.563h-2.9v-4.563h-4.385v4.563h-2.9v-4.563h-4.385v4.563h-2.9v-4.563h-4.385v4.563h-2.9v-4.563h-4.385v4.563h-2.9v-4.563h-4.384v4.563h-2.9v-4.563H587.5v4.563h-2.9v-4.563h-4.385v4.563h-2.9v-4.563h-4.384v4.563h-2.9v-4.563h-4.251v4.563h-2.9v-4.563h-6.046v9.63H688.024v-9.63Z" transform="translate(-556.831 -318.289)" fill="#f15525"/>
    </g>
  </g>
</svg>
