<svg xmlns="http://www.w3.org/2000/svg" width="56.624" height="56.624" viewBox="0 0 56.624 56.624">
  <path id="instagram" d="M413.8,366.6H376a9.416,9.416,0,0,0-9.4,9.4v37.827a9.416,9.416,0,0,0,9.4,9.4h37.827a9.416,9.416,0,0,0,9.4-9.4V376A9.448,9.448,0,0,0,413.8,366.6Zm-29.086,24.758h20.367a10.777,10.777,0,1,1-20.367,0Zm31.42,0V412.6a3.549,3.549,0,0,1-3.543,3.543H377.208a3.549,3.549,0,0,1-3.543-3.543V391.358H379.2a16.081,16.081,0,1,0,31.4,0Zm0-12.39a1.77,1.77,0,0,1-1.761,1.761h-3.543a1.77,1.77,0,0,1-1.761-1.761v-3.543a1.77,1.77,0,0,1,1.761-1.761h3.543a1.77,1.77,0,0,1,1.761,1.761Z" transform="translate(-366.6 -366.6)" fill="#06f38c"/>
</svg>
