<svg xmlns="http://www.w3.org/2000/svg" width="65.207" height="65.207" viewBox="0 0 65.207 65.207">
  <path id="twitter" d="M394.8,362.2a32.6,32.6,0,1,0,32.6,32.6A32.6,32.6,0,0,0,394.8,362.2Zm18.739,23c.024.4.024.828.024,1.254,0,12.776-9.724,27.517-27.517,27.517a27.265,27.265,0,0,1-14.811-4.353,18.773,18.773,0,0,0,2.319.142,19.289,19.289,0,0,0,12-4.141,9.657,9.657,0,0,1-9.038-6.719,9.318,9.318,0,0,0,1.822.166,10.226,10.226,0,0,0,2.555-.331,9.694,9.694,0,0,1-7.76-9.488v-.118a9.461,9.461,0,0,0,4.377,1.207,9.675,9.675,0,0,1-3-12.895,27.5,27.5,0,0,0,19.922,10.1,9.668,9.668,0,0,1,16.467-8.8,19.038,19.038,0,0,0,6.128-2.342,9.58,9.58,0,0,1-4.259,5.347,19.934,19.934,0,0,0,5.56-1.514A19.444,19.444,0,0,1,413.542,385.2Z" transform="translate(-362.2 -362.2)" fill="#06f38c"/>
</svg>
